{"glyphs":{"0":{"ha":972,"x_min":40,"x_max":933,"o":"m 488 983 q 818 855 703 983 q 933 488 933 726 q 818 119 933 249 q 488 -10 703 -10 q 156 119 271 -10 q 40 488 40 247 q 156 856 40 728 q 488 983 271 983 m 488 750 q 418 725 443 750 q 382 644 393 700 q 371 488 371 588 q 382 331 371 388 q 418 249 393 274 q 488 224 443 224 q 556 249 531 224 q 592 331 581 274 q 603 488 603 388 q 592 644 603 588 q 556 725 581 700 q 488 750 532 750 z "},"1":{"ha":592,"x_min":-42,"x_max":450,"o":"m -42 974 l 450 974 l 450 0 l 128 0 l 128 719 l -42 719 l -42 974 z "},"2":{"ha":861,"x_min":14,"x_max":817,"o":"m 817 247 l 817 0 l 53 0 l 51 203 l 392 554 q 444 621 424 588 q 465 678 465 654 q 448 716 465 703 q 399 729 431 729 q 275 696 344 729 q 133 604 206 663 l 14 836 q 449 988 236 988 q 629 954 549 988 q 756 861 710 921 q 803 725 803 801 q 753 566 803 646 q 611 396 703 486 l 461 247 l 817 247 z "},"3":{"ha":853,"x_min":11,"x_max":824,"o":"m 593 582 q 760 488 697 560 q 824 310 824 417 q 774 142 824 215 q 632 27 724 68 q 418 -14 540 -14 q 196 22 306 -14 q 11 115 86 57 l 125 332 q 392 224 254 224 q 508 310 508 224 q 479 374 508 351 q 392 397 450 397 l 210 397 l 210 564 l 399 743 l 64 743 l 64 975 l 776 975 l 776 793 l 547 592 l 593 582 z "},"4":{"ha":854,"x_min":-14,"x_max":806,"o":"m 806 418 l 806 188 l 694 188 l 694 0 l 401 0 l 401 188 l -14 188 l -14 397 l 222 974 l 525 974 l 304 418 l 401 418 l 401 604 l 694 604 l 694 418 l 806 418 z "},"5":{"ha":876,"x_min":19,"x_max":838,"o":"m 449 624 q 653 588 565 624 q 790 485 742 551 q 838 331 838 418 q 787 149 838 228 q 642 28 736 71 q 424 -14 549 -14 q 211 21 321 -14 q 19 114 101 56 l 135 335 q 386 222 269 222 q 464 244 438 222 q 490 307 490 265 q 385 389 490 389 l 110 389 l 110 974 l 792 974 l 792 726 l 404 726 l 404 624 l 449 624 z "},"6":{"ha":871,"x_min":4,"x_max":801,"o":"m 672 689 q 482 753 593 753 q 343 706 390 753 q 296 569 296 660 q 494 649 368 649 q 656 608 586 649 q 763 495 725 568 q 801 328 801 422 q 756 148 801 225 q 626 28 710 71 q 432 -14 542 -14 q 203 46 300 -14 q 56 216 107 106 q 4 475 4 326 q 61 745 4 629 q 222 924 118 861 q 464 988 326 988 q 640 965 553 988 q 789 903 728 942 l 672 689 m 422 426 q 349 401 374 426 q 324 328 324 375 q 348 256 324 281 q 421 231 372 231 q 517 329 517 231 q 493 401 517 376 q 422 426 469 426 z "},"7":{"ha":836,"x_min":22,"x_max":826,"o":"m 22 974 l 826 974 l 826 760 l 492 0 l 151 0 l 472 726 l 306 726 l 306 590 l 22 590 l 22 974 z "},"8":{"ha":874,"x_min":-3,"x_max":813,"o":"m 403 988 q 592 954 511 988 q 717 859 674 921 q 761 715 761 797 q 735 607 761 660 q 664 521 708 554 q 772 418 732 485 q 813 275 813 351 q 762 123 813 189 q 619 22 711 57 q 404 -14 526 -14 q 190 22 282 -14 q 48 121 99 57 q -3 269 -3 185 q 42 416 -3 347 q 161 521 88 485 q 79 614 110 558 q 49 725 49 669 q 92 863 49 804 q 217 955 136 922 q 403 988 297 988 m 404 779 q 315 699 315 779 q 404 624 315 624 q 494 699 494 624 q 404 779 494 779 m 406 394 q 299 303 299 394 q 326 238 299 260 q 404 215 353 215 q 485 238 457 215 q 513 303 513 260 q 485 371 513 347 q 406 394 458 394 z "},"9":{"ha":869,"x_min":8,"x_max":804,"o":"m 136 286 q 325 222 213 222 q 465 269 418 222 q 513 406 513 315 q 314 325 439 325 q 153 365 222 325 q 47 479 85 406 q 8 647 8 553 q 54 827 8 750 q 184 946 100 904 q 378 988 268 988 q 606 928 510 988 q 753 758 701 868 q 804 500 804 649 q 747 229 804 346 q 586 49 690 113 q 343 -14 482 -14 q 169 10 257 -14 q 19 72 82 33 l 136 286 m 388 744 q 293 646 293 744 q 386 549 293 549 q 460 574 435 549 q 485 647 485 600 q 460 719 485 694 q 388 744 436 744 z "},"\u0000":{"ha":0,"x_min":0,"x_max":0,"o":""},"\r":{"ha":278,"x_min":0,"x_max":0,"o":""}," ":{"ha":278,"x_min":0,"x_max":0,"o":""},"A":{"ha":1038,"x_min":56,"x_max":982,"o":"m 56 567 q 113 792 56 694 q 274 942 169 889 q 515 994 378 994 q 761 942 656 994 q 924 792 867 889 q 982 567 982 694 l 982 0 l 660 0 l 660 207 l 378 207 l 378 0 l 56 0 l 56 567 m 660 567 q 621 683 660 639 q 518 726 582 726 q 416 683 454 726 q 378 567 378 639 l 378 438 l 660 438 l 660 567 z "},"Á":{"ha":1038,"x_min":56,"x_max":982,"o":"m 56 567 q 113 792 56 694 q 274 942 169 889 q 515 994 378 994 q 761 942 656 994 q 924 792 867 889 q 982 567 982 694 l 982 0 l 660 0 l 660 207 l 378 207 l 378 0 l 56 0 l 56 567 m 660 567 q 621 683 660 639 q 518 726 582 726 q 416 683 454 726 q 378 567 378 639 l 378 438 l 660 438 l 660 567 m 551 1297 l 786 1214 l 561 1035 l 364 1049 l 551 1297 z "},"Ă":{"ha":1038,"x_min":56,"x_max":982,"o":"m 56 567 q 113 792 56 694 q 274 942 169 889 q 515 994 378 994 q 761 942 656 994 q 924 792 867 889 q 982 567 982 694 l 982 0 l 660 0 l 660 207 l 378 207 l 378 0 l 56 0 l 56 567 m 660 567 q 621 683 660 639 q 518 726 582 726 q 416 683 454 726 q 378 567 378 639 l 378 438 l 660 438 l 660 567 m 451 1286 q 473 1235 454 1254 q 519 1217 492 1217 q 566 1235 547 1217 q 588 1286 585 1254 l 775 1286 q 700 1110 769 1176 q 519 1044 631 1044 q 339 1110 408 1044 q 264 1286 269 1176 l 451 1286 z "},"Ắ":{"ha":1038,"x_min":56,"x_max":982,"o":"m 56 567 q 113 792 56 694 q 274 942 169 889 q 515 994 378 994 q 761 942 656 994 q 924 792 867 889 q 982 567 982 694 l 982 0 l 660 0 l 660 207 l 378 207 l 378 0 l 56 0 l 56 567 m 660 567 q 621 683 660 639 q 518 726 582 726 q 416 683 454 726 q 378 567 378 639 l 378 438 l 660 438 l 660 567 z "},"Ặ":{"ha":1038,"x_min":56,"x_max":982,"o":"m 56 567 q 113 792 56 694 q 274 942 169 889 q 515 994 378 994 q 761 942 656 994 q 924 792 867 889 q 982 567 982 694 l 982 0 l 660 0 l 660 207 l 378 207 l 378 0 l 56 0 l 56 567 m 660 567 q 621 683 660 639 q 518 726 582 726 q 416 683 454 726 q 378 567 378 639 l 378 438 l 660 438 l 660 567 m 515 -90 q 629 -135 585 -90 q 674 -249 674 -179 q 629 -362 674 -318 q 515 -407 585 -407 q 401 -362 446 -407 q 357 -249 357 -318 q 401 -135 357 -179 q 515 -90 446 -90 m 451 1286 q 473 1235 454 1254 q 519 1217 492 1217 q 566 1235 547 1217 q 588 1286 585 1254 l 775 1286 q 700 1110 769 1176 q 519 1044 631 1044 q 339 1110 408 1044 q 264 1286 269 1176 l 451 1286 z "},"Ằ":{"ha":1038,"x_min":56,"x_max":982,"o":"m 56 567 q 113 792 56 694 q 274 942 169 889 q 515 994 378 994 q 761 942 656 994 q 924 792 867 889 q 982 567 982 694 l 982 0 l 660 0 l 660 207 l 378 207 l 378 0 l 56 0 l 56 567 m 660 567 q 621 683 660 639 q 518 726 582 726 q 416 683 454 726 q 378 567 378 639 l 378 438 l 660 438 l 660 567 z "},"Ẳ":{"ha":1038,"x_min":56,"x_max":982,"o":"m 56 567 q 113 792 56 694 q 274 942 169 889 q 515 994 378 994 q 761 942 656 994 q 924 792 867 889 q 982 567 982 694 l 982 0 l 660 0 l 660 207 l 378 207 l 378 0 l 56 0 l 56 567 m 660 567 q 621 683 660 639 q 518 726 582 726 q 416 683 454 726 q 378 567 378 639 l 378 438 l 660 438 l 660 567 z "},"Ẵ":{"ha":1038,"x_min":56,"x_max":982,"o":"m 56 567 q 113 792 56 694 q 274 942 169 889 q 515 994 378 994 q 761 942 656 994 q 924 792 867 889 q 982 567 982 694 l 982 0 l 660 0 l 660 207 l 378 207 l 378 0 l 56 0 l 56 567 m 660 567 q 621 683 660 639 q 518 726 582 726 q 416 683 454 726 q 378 567 378 639 l 378 438 l 660 438 l 660 567 z "},"Â":{"ha":1038,"x_min":56,"x_max":982,"o":"m 56 567 q 113 792 56 694 q 274 942 169 889 q 515 994 378 994 q 761 942 656 994 q 924 792 867 889 q 982 567 982 694 l 982 0 l 660 0 l 660 207 l 378 207 l 378 0 l 56 0 l 56 567 m 660 567 q 621 683 660 639 q 518 726 582 726 q 416 683 454 726 q 378 567 378 639 l 378 438 l 660 438 l 660 567 m 804 1044 l 610 1044 l 519 1144 l 429 1044 l 235 1044 l 389 1269 l 650 1269 l 804 1044 z "},"Ấ":{"ha":1038,"x_min":56,"x_max":982,"o":"m 56 567 q 113 792 56 694 q 274 942 169 889 q 515 994 378 994 q 761 942 656 994 q 924 792 867 889 q 982 567 982 694 l 982 0 l 660 0 l 660 207 l 378 207 l 378 0 l 56 0 l 56 567 m 660 567 q 621 683 660 639 q 518 726 582 726 q 416 683 454 726 q 378 567 378 639 l 378 438 l 660 438 l 660 567 z "},"Ậ":{"ha":1038,"x_min":56,"x_max":982,"o":"m 56 567 q 113 792 56 694 q 274 942 169 889 q 515 994 378 994 q 761 942 656 994 q 924 792 867 889 q 982 567 982 694 l 982 0 l 660 0 l 660 207 l 378 207 l 378 0 l 56 0 l 56 567 m 660 567 q 621 683 660 639 q 518 726 582 726 q 416 683 454 726 q 378 567 378 639 l 378 438 l 660 438 l 660 567 m 515 -90 q 629 -135 585 -90 q 674 -249 674 -179 q 629 -362 674 -318 q 515 -407 585 -407 q 401 -362 446 -407 q 357 -249 357 -318 q 401 -135 357 -179 q 515 -90 446 -90 m 804 1044 l 610 1044 l 519 1144 l 429 1044 l 235 1044 l 389 1269 l 650 1269 l 804 1044 z "},"Ầ":{"ha":1038,"x_min":56,"x_max":982,"o":"m 56 567 q 113 792 56 694 q 274 942 169 889 q 515 994 378 994 q 761 942 656 994 q 924 792 867 889 q 982 567 982 694 l 982 0 l 660 0 l 660 207 l 378 207 l 378 0 l 56 0 l 56 567 m 660 567 q 621 683 660 639 q 518 726 582 726 q 416 683 454 726 q 378 567 378 639 l 378 438 l 660 438 l 660 567 z "},"Ẩ":{"ha":1038,"x_min":56,"x_max":982,"o":"m 56 567 q 113 792 56 694 q 274 942 169 889 q 515 994 378 994 q 761 942 656 994 q 924 792 867 889 q 982 567 982 694 l 982 0 l 660 0 l 660 207 l 378 207 l 378 0 l 56 0 l 56 567 m 660 567 q 621 683 660 639 q 518 726 582 726 q 416 683 454 726 q 378 567 378 639 l 378 438 l 660 438 l 660 567 z "},"Ẫ":{"ha":1038,"x_min":56,"x_max":982,"o":"m 56 567 q 113 792 56 694 q 274 942 169 889 q 515 994 378 994 q 761 942 656 994 q 924 792 867 889 q 982 567 982 694 l 982 0 l 660 0 l 660 207 l 378 207 l 378 0 l 56 0 l 56 567 m 660 567 q 621 683 660 639 q 518 726 582 726 q 416 683 454 726 q 378 567 378 639 l 378 438 l 660 438 l 660 567 z "},"Ȁ":{"ha":1038,"x_min":56,"x_max":982,"o":"m 56 567 q 113 792 56 694 q 274 942 169 889 q 515 994 378 994 q 761 942 656 994 q 924 792 867 889 q 982 567 982 694 l 982 0 l 660 0 l 660 207 l 378 207 l 378 0 l 56 0 l 56 567 m 660 567 q 621 683 660 639 q 518 726 582 726 q 416 683 454 726 q 378 567 378 639 l 378 438 l 660 438 l 660 567 m 390 1293 l 504 1044 l 289 1031 l 165 1219 l 390 1293 m 697 1293 l 811 1044 l 596 1031 l 472 1219 l 697 1293 z "},"Ä":{"ha":1038,"x_min":56,"x_max":982,"o":"m 56 567 q 113 792 56 694 q 274 942 169 889 q 515 994 378 994 q 761 942 656 994 q 924 792 867 889 q 982 567 982 694 l 982 0 l 660 0 l 660 207 l 378 207 l 378 0 l 56 0 l 56 567 m 660 567 q 621 683 660 639 q 518 726 582 726 q 416 683 454 726 q 378 567 378 639 l 378 438 l 660 438 l 660 567 m 379 1290 q 467 1256 433 1290 q 501 1167 501 1221 q 467 1079 501 1114 q 379 1044 433 1044 q 291 1079 325 1044 q 257 1167 257 1114 q 291 1256 257 1221 q 379 1290 325 1290 m 660 1290 q 748 1256 714 1290 q 782 1167 782 1221 q 748 1079 782 1114 q 660 1044 714 1044 q 572 1079 606 1044 q 538 1167 538 1114 q 572 1256 538 1221 q 660 1290 606 1290 z "},"Ạ":{"ha":1038,"x_min":56,"x_max":982,"o":"m 56 567 q 113 792 56 694 q 274 942 169 889 q 515 994 378 994 q 761 942 656 994 q 924 792 867 889 q 982 567 982 694 l 982 0 l 660 0 l 660 207 l 378 207 l 378 0 l 56 0 l 56 567 m 660 567 q 621 683 660 639 q 518 726 582 726 q 416 683 454 726 q 378 567 378 639 l 378 438 l 660 438 l 660 567 m 515 -90 q 629 -135 585 -90 q 674 -249 674 -179 q 629 -362 674 -318 q 515 -407 585 -407 q 401 -362 446 -407 q 357 -249 357 -318 q 401 -135 357 -179 q 515 -90 446 -90 z "},"À":{"ha":1038,"x_min":56,"x_max":982,"o":"m 56 567 q 113 792 56 694 q 274 942 169 889 q 515 994 378 994 q 761 942 656 994 q 924 792 867 889 q 982 567 982 694 l 982 0 l 660 0 l 660 207 l 378 207 l 378 0 l 56 0 l 56 567 m 660 567 q 621 683 660 639 q 518 726 582 726 q 416 683 454 726 q 378 567 378 639 l 378 438 l 660 438 l 660 567 m 510 1297 l 664 1049 l 465 1035 l 274 1214 l 510 1297 z "},"Ả":{"ha":1038,"x_min":56,"x_max":982,"o":"m 56 567 q 113 792 56 694 q 274 942 169 889 q 515 994 378 994 q 761 942 656 994 q 924 792 867 889 q 982 567 982 694 l 982 0 l 660 0 l 660 207 l 378 207 l 378 0 l 56 0 l 56 567 m 660 567 q 621 683 660 639 q 518 726 582 726 q 416 683 454 726 q 378 567 378 639 l 378 438 l 660 438 l 660 567 m 535 1376 q 660 1337 618 1376 q 703 1235 703 1297 q 572 1029 703 1128 l 444 1081 q 492 1133 475 1107 q 510 1183 510 1160 q 499 1211 510 1201 q 471 1221 489 1221 q 417 1200 442 1221 l 342 1315 q 535 1376 439 1376 z "},"Ȃ":{"ha":1038,"x_min":56,"x_max":982,"o":"m 56 567 q 113 792 56 694 q 274 942 169 889 q 515 994 378 994 q 761 942 656 994 q 924 792 867 889 q 982 567 982 694 l 982 0 l 660 0 l 660 207 l 378 207 l 378 0 l 56 0 l 56 567 m 660 567 q 621 683 660 639 q 518 726 582 726 q 416 683 454 726 q 378 567 378 639 l 378 438 l 660 438 l 660 567 m 263 1044 q 338 1220 268 1154 q 518 1286 407 1286 q 699 1220 629 1286 q 774 1044 768 1154 l 586 1044 q 565 1095 583 1076 q 518 1114 546 1114 q 472 1095 490 1114 q 450 1044 453 1076 l 263 1044 z "},"Ā":{"ha":1038,"x_min":56,"x_max":982,"o":"m 56 567 q 113 792 56 694 q 274 942 169 889 q 515 994 378 994 q 761 942 656 994 q 924 792 867 889 q 982 567 982 694 l 982 0 l 660 0 l 660 207 l 378 207 l 378 0 l 56 0 l 56 567 m 660 567 q 621 683 660 639 q 518 726 582 726 q 416 683 454 726 q 378 567 378 639 l 378 438 l 660 438 l 660 567 m 256 1222 l 783 1222 l 783 1044 l 256 1044 l 256 1222 z "},"Ą":{"ha":1038,"x_min":56,"x_max":982,"o":"m 888 0 q 792 -125 792 -67 q 819 -161 792 -161 q 854 -150 835 -161 l 897 -304 q 749 -339 819 -339 q 628 -293 669 -339 q 588 -176 588 -247 q 660 1 588 -83 l 660 207 l 378 207 l 378 0 l 56 0 l 56 567 q 113 792 56 694 q 274 942 169 889 q 515 994 378 994 q 761 942 656 994 q 924 792 867 889 q 982 567 982 694 l 982 0 l 888 0 m 660 438 l 660 567 q 621 683 660 639 q 518 726 582 726 q 416 683 454 726 q 378 567 378 639 l 378 438 l 660 438 z "},"Å":{"ha":1038,"x_min":56,"x_max":982,"o":"m 56 567 q 113 792 56 694 q 274 942 169 889 q 515 994 378 994 q 761 942 656 994 q 924 792 867 889 q 982 567 982 694 l 982 0 l 660 0 l 660 207 l 378 207 l 378 0 l 56 0 l 56 567 m 660 567 q 621 683 660 639 q 518 726 582 726 q 416 683 454 726 q 378 567 378 639 l 378 438 l 660 438 l 660 567 m 519 1363 q 642 1313 592 1363 q 692 1190 692 1263 q 642 1068 692 1118 q 519 1018 592 1018 q 397 1068 447 1018 q 347 1190 347 1118 q 397 1313 347 1263 q 519 1363 447 1363 m 519 1244 q 481 1229 496 1244 q 465 1190 465 1214 q 481 1152 465 1168 q 519 1136 496 1136 q 558 1152 542 1136 q 574 1190 574 1168 q 558 1229 574 1214 q 519 1244 542 1244 z "},"Ǻ":{"ha":1038,"x_min":56,"x_max":982,"o":"m 56 567 q 113 792 56 694 q 274 942 169 889 q 515 994 378 994 q 761 942 656 994 q 924 792 867 889 q 982 567 982 694 l 982 0 l 660 0 l 660 207 l 378 207 l 378 0 l 56 0 l 56 567 m 660 567 q 621 683 660 639 q 518 726 582 726 q 416 683 454 726 q 378 567 378 639 l 378 438 l 660 438 l 660 567 m 519 1363 q 642 1313 592 1363 q 692 1190 692 1263 q 642 1068 692 1118 q 519 1018 592 1018 q 397 1068 447 1018 q 347 1190 347 1118 q 397 1313 347 1263 q 519 1363 447 1363 m 519 1244 q 481 1229 496 1244 q 465 1190 465 1214 q 481 1152 465 1168 q 519 1136 496 1136 q 558 1152 542 1136 q 574 1190 574 1168 q 558 1229 574 1214 q 519 1244 542 1244 m 572 1635 l 765 1522 l 525 1393 l 356 1436 l 572 1635 z "},"Ã":{"ha":1038,"x_min":56,"x_max":982,"o":"m 56 567 q 113 792 56 694 q 274 942 169 889 q 515 994 378 994 q 761 942 656 994 q 924 792 867 889 q 982 567 982 694 l 982 0 l 660 0 l 660 207 l 378 207 l 378 0 l 56 0 l 56 567 m 660 567 q 621 683 660 639 q 518 726 582 726 q 416 683 454 726 q 378 567 378 639 l 378 438 l 660 438 l 660 567 m 799 1288 q 763 1100 799 1158 q 650 1042 728 1042 q 587 1051 615 1042 q 522 1079 558 1061 q 499 1090 518 1081 q 465 1099 479 1099 q 436 1085 446 1099 q 425 1044 426 1072 l 263 1044 q 299 1232 263 1172 q 413 1292 335 1292 q 476 1281 447 1292 q 540 1254 506 1271 q 596 1235 579 1235 q 626 1247 617 1235 q 638 1288 636 1260 l 799 1288 z "},"Æ":{"ha":1593,"x_min":-14,"x_max":1540,"o":"m 1026 244 l 1540 244 l 1540 0 l 704 0 l 704 169 l 403 169 l 319 0 l -14 0 l 528 974 l 1528 974 l 1528 729 l 1026 729 l 1026 610 l 1482 610 l 1482 365 l 1026 365 l 1026 244 m 518 400 l 704 400 l 704 729 l 681 729 l 518 400 z "},"Ǽ":{"ha":1593,"x_min":-14,"x_max":1540,"o":"m 1026 244 l 1540 244 l 1540 0 l 704 0 l 704 169 l 403 169 l 319 0 l -14 0 l 528 974 l 1528 974 l 1528 729 l 1026 729 l 1026 610 l 1482 610 l 1482 365 l 1026 365 l 1026 244 m 518 400 l 704 400 l 704 729 l 681 729 l 518 400 m 1129 1297 l 1364 1214 l 1139 1035 l 942 1049 l 1129 1297 z "},"B":{"ha":1006,"x_min":69,"x_max":978,"o":"m 563 974 q 767 943 679 974 q 901 857 854 913 q 949 728 949 801 q 904 599 949 656 q 785 519 860 542 q 925 433 872 500 q 978 274 978 365 q 929 129 978 192 q 792 33 881 67 q 586 0 704 0 l 69 0 l 69 974 l 563 974 m 544 599 q 598 618 578 599 q 618 669 618 638 q 598 719 618 700 q 544 738 578 738 l 390 738 l 390 599 l 544 599 m 544 236 q 616 258 589 236 q 643 314 643 279 q 616 365 643 346 q 544 385 589 385 l 390 385 l 390 236 l 544 236 z "},"C":{"ha":956,"x_min":21,"x_max":960,"o":"m 774 593 q 670 690 731 653 q 553 726 610 726 q 449 697 496 726 q 377 614 403 667 q 351 494 351 561 q 377 374 351 428 q 449 290 403 321 q 553 260 496 260 q 666 291 606 260 q 774 374 726 322 l 960 175 q 763 31 878 85 q 536 -22 649 -22 q 272 44 389 -22 q 88 227 154 110 q 21 490 21 344 q 89 749 21 635 q 277 929 157 864 q 549 994 397 994 q 772 945 660 994 q 960 814 885 896 l 774 593 z "},"Ć":{"ha":956,"x_min":21,"x_max":960,"o":"m 774 593 q 670 690 731 653 q 553 726 610 726 q 449 697 496 726 q 377 614 403 667 q 351 494 351 561 q 377 374 351 428 q 449 290 403 321 q 553 260 496 260 q 666 291 606 260 q 774 374 726 322 l 960 175 q 763 31 878 85 q 536 -22 649 -22 q 272 44 389 -22 q 88 227 154 110 q 21 490 21 344 q 89 749 21 635 q 277 929 157 864 q 549 994 397 994 q 772 945 660 994 q 960 814 885 896 l 774 593 m 579 1297 l 814 1214 l 589 1035 l 392 1049 l 579 1297 z "},"Č":{"ha":956,"x_min":21,"x_max":960,"o":"m 774 593 q 670 690 731 653 q 553 726 610 726 q 449 697 496 726 q 377 614 403 667 q 351 494 351 561 q 377 374 351 428 q 449 290 403 321 q 553 260 496 260 q 666 291 606 260 q 774 374 726 322 l 960 175 q 763 31 878 85 q 536 -22 649 -22 q 272 44 389 -22 q 88 227 154 110 q 21 490 21 344 q 89 749 21 635 q 277 929 157 864 q 549 994 397 994 q 772 945 660 994 q 960 814 885 896 l 774 593 m 638 1269 l 832 1269 l 678 1044 l 417 1044 l 263 1269 l 457 1269 l 547 1171 l 638 1269 z "},"Ç":{"ha":956,"x_min":21,"x_max":960,"o":"m 553 260 q 666 291 606 260 q 774 374 726 322 l 960 175 q 791 45 889 97 q 593 -18 693 -7 l 569 -82 q 685 -197 685 -112 q 629 -304 685 -269 q 494 -339 574 -339 q 329 -312 408 -339 l 371 -187 q 433 -197 399 -197 q 474 -190 458 -197 q 489 -171 489 -183 q 466 -147 489 -154 q 410 -139 443 -139 l 386 -139 l 428 -12 q 216 80 308 10 q 72 256 124 150 q 21 490 21 363 q 89 749 21 635 q 277 929 157 864 q 549 994 397 994 q 772 945 660 994 q 960 814 885 896 l 774 593 q 670 690 731 653 q 553 726 610 726 q 449 697 496 726 q 377 614 403 667 q 351 494 351 561 q 377 374 351 428 q 449 290 403 321 q 553 260 496 260 z "},"Ḉ":{"ha":956,"x_min":21,"x_max":960,"o":"m 746 1214 l 521 1035 l 324 1049 l 511 1297 l 746 1214 m 553 260 q 666 291 606 260 q 774 374 726 322 l 960 175 q 791 45 889 97 q 593 -18 693 -7 l 569 -82 q 685 -197 685 -112 q 629 -304 685 -269 q 494 -339 574 -339 q 329 -312 408 -339 l 371 -187 q 433 -197 399 -197 q 474 -190 458 -197 q 489 -171 489 -183 q 466 -147 489 -154 q 410 -139 443 -139 l 386 -139 l 428 -12 q 216 80 308 10 q 72 256 124 150 q 21 490 21 363 q 89 749 21 635 q 277 929 157 864 q 549 994 397 994 q 772 945 660 994 q 960 814 885 896 l 774 593 q 670 690 731 653 q 553 726 610 726 q 449 697 496 726 q 377 614 403 667 q 351 494 351 561 q 377 374 351 428 q 449 290 403 321 q 553 260 496 260 z "},"Ĉ":{"ha":956,"x_min":21,"x_max":960,"o":"m 774 593 q 670 690 731 653 q 553 726 610 726 q 449 697 496 726 q 377 614 403 667 q 351 494 351 561 q 377 374 351 428 q 449 290 403 321 q 553 260 496 260 q 666 291 606 260 q 774 374 726 322 l 960 175 q 763 31 878 85 q 536 -22 649 -22 q 272 44 389 -22 q 88 227 154 110 q 21 490 21 344 q 89 749 21 635 q 277 929 157 864 q 549 994 397 994 q 772 945 660 994 q 960 814 885 896 l 774 593 m 832 1044 l 638 1044 l 547 1144 l 457 1044 l 263 1044 l 417 1269 l 678 1269 l 832 1044 z "},"Ċ":{"ha":956,"x_min":21,"x_max":960,"o":"m 774 593 q 670 690 731 653 q 553 726 610 726 q 449 697 496 726 q 377 614 403 667 q 351 494 351 561 q 377 374 351 428 q 449 290 403 321 q 553 260 496 260 q 666 291 606 260 q 774 374 726 322 l 960 175 q 763 31 878 85 q 536 -22 649 -22 q 272 44 389 -22 q 88 227 154 110 q 21 490 21 344 q 89 749 21 635 q 277 929 157 864 q 549 994 397 994 q 772 945 660 994 q 960 814 885 896 l 774 593 m 547 1361 q 661 1317 617 1361 q 706 1203 706 1272 q 661 1089 706 1133 q 547 1044 617 1044 q 433 1089 478 1044 q 389 1203 389 1133 q 433 1317 389 1272 q 547 1361 478 1361 z "},"D":{"ha":1054,"x_min":69,"x_max":1033,"o":"m 504 974 q 783 914 664 974 q 968 744 903 854 q 1033 488 1033 633 q 967 231 1033 340 q 777 60 900 121 q 492 0 654 0 l 69 0 l 69 974 l 504 974 m 513 250 q 652 314 600 250 q 704 485 704 378 q 648 658 704 593 q 497 724 592 724 l 392 724 l 392 250 l 513 250 z "},"Ǆ":{"ha":2003,"x_min":69,"x_max":1975,"o":"m 504 974 q 783 914 664 974 q 968 744 903 854 q 1033 488 1033 633 q 967 231 1033 340 q 777 60 900 121 q 492 0 654 0 l 69 0 l 69 974 l 504 974 m 513 250 q 652 314 600 250 q 704 485 704 378 q 648 658 704 593 q 497 724 592 724 l 392 724 l 392 250 l 513 250 m 1511 247 l 1975 247 l 1975 0 l 1082 0 l 1082 201 l 1264 413 l 1149 413 l 1149 606 l 1432 606 l 1536 726 l 1099 726 l 1099 974 l 1965 974 l 1965 772 l 1797 578 l 1894 578 l 1894 385 l 1631 385 l 1511 247 m 1622 1269 l 1817 1269 l 1663 1044 l 1401 1044 l 1247 1269 l 1442 1269 l 1532 1171 l 1622 1269 z "},"Ð":{"ha":1054,"x_min":-17,"x_max":1033,"o":"m 504 974 q 783 914 664 974 q 968 744 903 854 q 1033 488 1033 633 q 967 231 1033 340 q 777 60 900 121 q 492 0 654 0 l 69 0 l 69 419 l -17 419 l -17 556 l 69 556 l 69 974 l 504 974 m 513 250 q 652 314 600 250 q 704 485 704 378 q 648 658 704 593 q 497 724 592 724 l 392 724 l 392 556 l 576 556 l 576 419 l 392 419 l 392 250 l 513 250 z "},"Ď":{"ha":1054,"x_min":69,"x_max":1033,"o":"m 504 974 q 783 914 664 974 q 968 744 903 854 q 1033 488 1033 633 q 967 231 1033 340 q 777 60 900 121 q 492 0 654 0 l 69 0 l 69 974 l 504 974 m 513 250 q 652 314 600 250 q 704 485 704 378 q 648 658 704 593 q 497 724 592 724 l 392 724 l 392 250 l 513 250 m 579 1269 l 774 1269 l 619 1044 l 358 1044 l 204 1269 l 399 1269 l 489 1171 l 579 1269 z "},"Đ":{"ha":1054,"x_min":-17,"x_max":1033,"o":"m 504 974 q 783 914 664 974 q 968 744 903 854 q 1033 488 1033 633 q 967 231 1033 340 q 777 60 900 121 q 492 0 654 0 l 69 0 l 69 419 l -17 419 l -17 556 l 69 556 l 69 974 l 504 974 m 513 250 q 652 314 600 250 q 704 485 704 378 q 648 658 704 593 q 497 724 592 724 l 392 724 l 392 556 l 576 556 l 576 419 l 392 419 l 392 250 l 513 250 z "},"Ḍ":{"ha":1054,"x_min":69,"x_max":1033,"o":"m 504 974 q 783 914 664 974 q 968 744 903 854 q 1033 488 1033 633 q 967 231 1033 340 q 777 60 900 121 q 492 0 654 0 l 69 0 l 69 974 l 504 974 m 513 250 q 652 314 600 250 q 704 485 704 378 q 648 658 704 593 q 497 724 592 724 l 392 724 l 392 250 l 513 250 m 488 -90 q 601 -135 557 -90 q 646 -249 646 -179 q 601 -362 646 -318 q 488 -407 557 -407 q 374 -362 418 -407 q 329 -249 329 -318 q 374 -135 329 -179 q 488 -90 418 -90 z "},"Ḏ":{"ha":1054,"x_min":69,"x_max":1033,"o":"m 504 974 q 783 914 664 974 q 968 744 903 854 q 1033 488 1033 633 q 967 231 1033 340 q 777 60 900 121 q 492 0 654 0 l 69 0 l 69 974 l 504 974 m 513 250 q 652 314 600 250 q 704 485 704 378 q 648 658 704 593 q 497 724 592 724 l 392 724 l 392 250 l 513 250 m 269 -104 l 714 -104 l 714 -282 l 269 -282 l 269 -104 z "},"ǅ":{"ha":1843,"x_min":69,"x_max":1814,"o":"m 504 974 q 783 914 664 974 q 968 744 903 854 q 1033 488 1033 633 q 967 231 1033 340 q 777 60 900 121 q 492 0 654 0 l 69 0 l 69 974 l 504 974 m 513 250 q 652 314 600 250 q 704 485 704 378 q 648 658 704 593 q 497 724 592 724 l 392 724 l 392 250 l 513 250 m 1483 233 l 1814 233 l 1814 0 l 1089 0 l 1089 182 l 1211 315 l 1133 315 l 1133 465 l 1350 465 l 1406 526 l 1103 526 l 1103 760 l 1800 760 l 1800 578 l 1682 449 l 1763 449 l 1763 299 l 1543 299 l 1483 233 m 1547 1068 l 1742 1068 l 1588 843 l 1326 843 l 1172 1068 l 1367 1068 l 1457 969 l 1547 1068 z "},"E":{"ha":938,"x_min":21,"x_max":924,"o":"m 478 378 q 388 361 421 378 q 354 314 354 344 q 395 258 354 279 q 499 236 436 236 q 658 260 569 236 q 803 318 747 285 l 924 86 q 718 7 840 36 q 468 -22 596 -22 q 231 13 332 -22 q 76 112 131 47 q 21 265 21 176 q 73 417 21 353 q 221 514 125 482 q 118 604 156 546 q 81 735 81 663 q 192 928 81 858 q 497 999 303 999 q 713 977 607 999 q 886 921 818 956 l 785 686 q 656 726 725 711 q 525 740 588 740 q 421 722 457 740 q 385 672 385 704 q 413 627 385 643 q 478 611 440 611 l 746 611 l 746 378 l 478 378 z "},"É":{"ha":938,"x_min":21,"x_max":924,"o":"m 478 378 q 388 361 421 378 q 354 314 354 344 q 395 258 354 279 q 499 236 436 236 q 658 260 569 236 q 803 318 747 285 l 924 86 q 718 7 840 36 q 468 -22 596 -22 q 231 13 332 -22 q 76 112 131 47 q 21 265 21 176 q 73 417 21 353 q 221 514 125 482 q 118 604 156 546 q 81 735 81 663 q 192 928 81 858 q 497 999 303 999 q 713 977 607 999 q 886 921 818 956 l 785 686 q 656 726 725 711 q 525 740 588 740 q 421 722 457 740 q 385 672 385 704 q 413 627 385 643 q 478 611 440 611 l 746 611 l 746 378 l 478 378 m 538 1297 l 772 1214 l 547 1035 l 350 1049 l 538 1297 z "},"Ĕ":{"ha":938,"x_min":21,"x_max":924,"o":"m 478 378 q 388 361 421 378 q 354 314 354 344 q 395 258 354 279 q 499 236 436 236 q 658 260 569 236 q 803 318 747 285 l 924 86 q 718 7 840 36 q 468 -22 596 -22 q 231 13 332 -22 q 76 112 131 47 q 21 265 21 176 q 73 417 21 353 q 221 514 125 482 q 118 604 156 546 q 81 735 81 663 q 192 928 81 858 q 497 999 303 999 q 713 977 607 999 q 886 921 818 956 l 785 686 q 656 726 725 711 q 525 740 588 740 q 421 722 457 740 q 385 672 385 704 q 413 627 385 643 q 478 611 440 611 l 746 611 l 746 378 l 478 378 m 438 1286 q 459 1235 440 1254 q 506 1217 478 1217 q 552 1235 533 1217 q 574 1286 571 1254 l 761 1286 q 686 1110 756 1176 q 506 1044 617 1044 q 325 1110 394 1044 q 250 1286 256 1176 l 438 1286 z "},"Ě":{"ha":938,"x_min":21,"x_max":924,"o":"m 478 378 q 388 361 421 378 q 354 314 354 344 q 395 258 354 279 q 499 236 436 236 q 658 260 569 236 q 803 318 747 285 l 924 86 q 718 7 840 36 q 468 -22 596 -22 q 231 13 332 -22 q 76 112 131 47 q 21 265 21 176 q 73 417 21 353 q 221 514 125 482 q 118 604 156 546 q 81 735 81 663 q 192 928 81 858 q 497 999 303 999 q 713 977 607 999 q 886 921 818 956 l 785 686 q 656 726 725 711 q 525 740 588 740 q 421 722 457 740 q 385 672 385 704 q 413 627 385 643 q 478 611 440 611 l 746 611 l 746 378 l 478 378 m 596 1269 l 790 1269 l 636 1044 l 375 1044 l 221 1269 l 415 1269 l 506 1171 l 596 1269 z "},"Ḝ":{"ha":938,"x_min":21,"x_max":924,"o":"m 463 1044 q 282 1110 351 1044 q 207 1286 213 1176 l 394 1286 q 416 1235 397 1254 q 463 1217 435 1217 q 509 1235 490 1217 q 531 1286 528 1254 l 718 1286 q 643 1110 713 1176 q 463 1044 574 1044 m 553 -82 q 668 -197 668 -112 q 613 -304 668 -269 q 478 -339 557 -339 q 313 -312 392 -339 l 354 -187 q 417 -197 382 -197 q 457 -190 442 -197 q 472 -171 472 -183 q 449 -147 472 -154 q 393 -139 426 -139 l 369 -139 l 408 -21 q 124 66 228 -10 q 21 265 21 142 q 73 417 21 353 q 221 514 125 482 q 118 604 156 546 q 81 735 81 663 q 192 928 81 858 q 497 999 303 999 q 713 977 607 999 q 886 921 818 956 l 785 686 q 656 726 725 711 q 525 740 588 740 q 421 722 457 740 q 385 672 385 704 q 413 627 385 643 q 478 611 440 611 l 746 611 l 746 378 l 478 378 q 388 361 421 378 q 354 314 354 344 q 395 258 354 279 q 499 236 436 236 q 658 260 569 236 q 803 318 747 285 l 924 86 q 768 21 858 47 q 578 -17 678 -6 l 553 -82 z "},"Ê":{"ha":938,"x_min":21,"x_max":924,"o":"m 478 378 q 388 361 421 378 q 354 314 354 344 q 395 258 354 279 q 499 236 436 236 q 658 260 569 236 q 803 318 747 285 l 924 86 q 718 7 840 36 q 468 -22 596 -22 q 231 13 332 -22 q 76 112 131 47 q 21 265 21 176 q 73 417 21 353 q 221 514 125 482 q 118 604 156 546 q 81 735 81 663 q 192 928 81 858 q 497 999 303 999 q 713 977 607 999 q 886 921 818 956 l 785 686 q 656 726 725 711 q 525 740 588 740 q 421 722 457 740 q 385 672 385 704 q 413 627 385 643 q 478 611 440 611 l 746 611 l 746 378 l 478 378 m 790 1044 l 596 1044 l 506 1144 l 415 1044 l 221 1044 l 375 1269 l 636 1269 l 790 1044 z "},"Ế":{"ha":938,"x_min":21,"x_max":924,"o":"m 478 378 q 388 361 421 378 q 354 314 354 344 q 395 258 354 279 q 499 236 436 236 q 658 260 569 236 q 803 318 747 285 l 924 86 q 718 7 840 36 q 468 -22 596 -22 q 231 13 332 -22 q 76 112 131 47 q 21 265 21 176 q 73 417 21 353 q 221 514 125 482 q 118 604 156 546 q 81 735 81 663 q 192 928 81 858 q 497 999 303 999 q 713 977 607 999 q 886 921 818 956 l 785 686 q 656 726 725 711 q 525 740 588 740 q 421 722 457 740 q 385 672 385 704 q 413 627 385 643 q 478 611 440 611 l 746 611 l 746 378 l 478 378 m 817 1044 l 593 1044 l 504 1143 l 414 1044 l 192 1044 l 363 1236 l 644 1236 l 817 1044 m 557 1521 l 750 1408 l 510 1279 l 340 1322 l 557 1521 z "},"Ệ":{"ha":938,"x_min":21,"x_max":924,"o":"m 478 378 q 388 361 421 378 q 354 314 354 344 q 395 258 354 279 q 499 236 436 236 q 658 260 569 236 q 803 318 747 285 l 924 86 q 718 7 840 36 q 468 -22 596 -22 q 231 13 332 -22 q 76 112 131 47 q 21 265 21 176 q 73 417 21 353 q 221 514 125 482 q 118 604 156 546 q 81 735 81 663 q 192 928 81 858 q 497 999 303 999 q 713 977 607 999 q 886 921 818 956 l 785 686 q 656 726 725 711 q 525 740 588 740 q 421 722 457 740 q 385 672 385 704 q 413 627 385 643 q 478 611 440 611 l 746 611 l 746 378 l 478 378 m 490 -90 q 604 -135 560 -90 q 649 -249 649 -179 q 604 -362 649 -318 q 490 -407 560 -407 q 376 -362 421 -407 q 332 -249 332 -318 q 376 -135 332 -179 q 490 -90 421 -90 m 779 1044 l 585 1044 l 494 1144 l 404 1044 l 210 1044 l 364 1269 l 625 1269 l 779 1044 z "},"Ề":{"ha":938,"x_min":21,"x_max":924,"o":"m 478 378 q 388 361 421 378 q 354 314 354 344 q 395 258 354 279 q 499 236 436 236 q 658 260 569 236 q 803 318 747 285 l 924 86 q 718 7 840 36 q 468 -22 596 -22 q 231 13 332 -22 q 76 112 131 47 q 21 265 21 176 q 73 417 21 353 q 221 514 125 482 q 118 604 156 546 q 81 735 81 663 q 192 928 81 858 q 497 999 303 999 q 713 977 607 999 q 886 921 818 956 l 785 686 q 656 726 725 711 q 525 740 588 740 q 421 722 457 740 q 385 672 385 704 q 413 627 385 643 q 478 611 440 611 l 746 611 l 746 378 l 478 378 m 817 1044 l 593 1044 l 504 1143 l 414 1044 l 192 1044 l 363 1236 l 644 1236 l 817 1044 m 438 1521 l 654 1322 l 485 1279 l 244 1408 l 438 1521 z "},"Ể":{"ha":938,"x_min":21,"x_max":924,"o":"m 478 378 q 388 361 421 378 q 354 314 354 344 q 395 258 354 279 q 499 236 436 236 q 658 260 569 236 q 803 318 747 285 l 924 86 q 718 7 840 36 q 468 -22 596 -22 q 231 13 332 -22 q 76 112 131 47 q 21 265 21 176 q 73 417 21 353 q 221 514 125 482 q 118 604 156 546 q 81 735 81 663 q 192 928 81 858 q 497 999 303 999 q 713 977 607 999 q 886 921 818 956 l 785 686 q 656 726 725 711 q 525 740 588 740 q 421 722 457 740 q 385 672 385 704 q 413 627 385 643 q 478 611 440 611 l 746 611 l 746 378 l 478 378 m 831 1044 l 607 1044 l 518 1143 l 428 1044 l 206 1044 l 376 1236 l 658 1236 l 831 1044 m 519 1532 q 626 1501 592 1532 q 660 1426 660 1469 q 634 1349 660 1383 q 550 1279 608 1315 l 435 1322 q 476 1349 463 1338 q 489 1375 489 1361 q 460 1397 489 1397 q 417 1382 433 1397 l 349 1479 q 519 1532 436 1532 z "},"Ễ":{"ha":938,"x_min":21,"x_max":924,"o":"m 478 378 q 388 361 421 378 q 354 314 354 344 q 395 258 354 279 q 499 236 436 236 q 658 260 569 236 q 803 318 747 285 l 924 86 q 718 7 840 36 q 468 -22 596 -22 q 231 13 332 -22 q 76 112 131 47 q 21 265 21 176 q 73 417 21 353 q 221 514 125 482 q 118 604 156 546 q 81 735 81 663 q 192 928 81 858 q 497 999 303 999 q 713 977 607 999 q 886 921 818 956 l 785 686 q 656 726 725 711 q 525 740 588 740 q 421 722 457 740 q 385 672 385 704 q 413 627 385 643 q 478 611 440 611 l 746 611 l 746 378 l 478 378 m 803 1044 l 579 1044 l 490 1143 l 400 1044 l 178 1044 l 349 1236 l 631 1236 l 803 1044 m 757 1481 q 722 1326 757 1375 q 610 1276 688 1276 q 540 1285 572 1276 q 465 1311 507 1294 q 400 1329 417 1329 q 367 1317 376 1329 q 358 1279 358 1306 l 219 1279 q 254 1435 219 1385 q 367 1485 289 1485 q 438 1476 406 1485 q 513 1450 471 1467 q 548 1438 531 1443 q 576 1432 565 1432 q 608 1444 599 1432 q 619 1481 618 1456 l 757 1481 z "},"Ȅ":{"ha":938,"x_min":21,"x_max":924,"o":"m 478 378 q 388 361 421 378 q 354 314 354 344 q 395 258 354 279 q 499 236 436 236 q 658 260 569 236 q 803 318 747 285 l 924 86 q 718 7 840 36 q 468 -22 596 -22 q 231 13 332 -22 q 76 112 131 47 q 21 265 21 176 q 73 417 21 353 q 221 514 125 482 q 118 604 156 546 q 81 735 81 663 q 192 928 81 858 q 497 999 303 999 q 713 977 607 999 q 886 921 818 956 l 785 686 q 656 726 725 711 q 525 740 588 740 q 421 722 457 740 q 385 672 385 704 q 413 627 385 643 q 478 611 440 611 l 746 611 l 746 378 l 478 378 m 376 1293 l 490 1044 l 275 1031 l 151 1219 l 376 1293 m 683 1293 l 797 1044 l 582 1031 l 458 1219 l 683 1293 z "},"Ë":{"ha":938,"x_min":21,"x_max":924,"o":"m 478 378 q 388 361 421 378 q 354 314 354 344 q 395 258 354 279 q 499 236 436 236 q 658 260 569 236 q 803 318 747 285 l 924 86 q 718 7 840 36 q 468 -22 596 -22 q 231 13 332 -22 q 76 112 131 47 q 21 265 21 176 q 73 417 21 353 q 221 514 125 482 q 118 604 156 546 q 81 735 81 663 q 192 928 81 858 q 497 999 303 999 q 713 977 607 999 q 886 921 818 956 l 785 686 q 656 726 725 711 q 525 740 588 740 q 421 722 457 740 q 385 672 385 704 q 413 627 385 643 q 478 611 440 611 l 746 611 l 746 378 l 478 378 m 365 1290 q 453 1256 419 1290 q 488 1167 488 1221 q 453 1079 488 1114 q 365 1044 419 1044 q 277 1079 311 1044 q 243 1167 243 1114 q 277 1256 243 1221 q 365 1290 311 1290 m 646 1290 q 734 1256 700 1290 q 768 1167 768 1221 q 734 1079 768 1114 q 646 1044 700 1044 q 558 1079 592 1044 q 524 1167 524 1114 q 558 1256 524 1221 q 646 1290 592 1290 z "},"Ė":{"ha":938,"x_min":21,"x_max":924,"o":"m 478 378 q 388 361 421 378 q 354 314 354 344 q 395 258 354 279 q 499 236 436 236 q 658 260 569 236 q 803 318 747 285 l 924 86 q 718 7 840 36 q 468 -22 596 -22 q 231 13 332 -22 q 76 112 131 47 q 21 265 21 176 q 73 417 21 353 q 221 514 125 482 q 118 604 156 546 q 81 735 81 663 q 192 928 81 858 q 497 999 303 999 q 713 977 607 999 q 886 921 818 956 l 785 686 q 656 726 725 711 q 525 740 588 740 q 421 722 457 740 q 385 672 385 704 q 413 627 385 643 q 478 611 440 611 l 746 611 l 746 378 l 478 378 m 506 1361 q 619 1317 575 1361 q 664 1203 664 1272 q 619 1089 664 1133 q 506 1044 575 1044 q 392 1089 436 1044 q 347 1203 347 1133 q 392 1317 347 1272 q 506 1361 436 1361 z "},"Ẹ":{"ha":938,"x_min":21,"x_max":924,"o":"m 478 378 q 388 361 421 378 q 354 314 354 344 q 395 258 354 279 q 499 236 436 236 q 658 260 569 236 q 803 318 747 285 l 924 86 q 718 7 840 36 q 468 -22 596 -22 q 231 13 332 -22 q 76 112 131 47 q 21 265 21 176 q 73 417 21 353 q 221 514 125 482 q 118 604 156 546 q 81 735 81 663 q 192 928 81 858 q 497 999 303 999 q 713 977 607 999 q 886 921 818 956 l 785 686 q 656 726 725 711 q 525 740 588 740 q 421 722 457 740 q 385 672 385 704 q 413 627 385 643 q 478 611 440 611 l 746 611 l 746 378 l 478 378 m 490 -90 q 604 -135 560 -90 q 649 -249 649 -179 q 604 -362 649 -318 q 490 -407 560 -407 q 376 -362 421 -407 q 332 -249 332 -318 q 376 -135 332 -179 q 490 -90 421 -90 z "},"È":{"ha":938,"x_min":21,"x_max":924,"o":"m 478 378 q 388 361 421 378 q 354 314 354 344 q 395 258 354 279 q 499 236 436 236 q 658 260 569 236 q 803 318 747 285 l 924 86 q 718 7 840 36 q 468 -22 596 -22 q 231 13 332 -22 q 76 112 131 47 q 21 265 21 176 q 73 417 21 353 q 221 514 125 482 q 118 604 156 546 q 81 735 81 663 q 192 928 81 858 q 497 999 303 999 q 713 977 607 999 q 886 921 818 956 l 785 686 q 656 726 725 711 q 525 740 588 740 q 421 722 457 740 q 385 672 385 704 q 413 627 385 643 q 478 611 440 611 l 746 611 l 746 378 l 478 378 m 496 1297 l 650 1049 l 451 1035 l 260 1214 l 496 1297 z "},"Ẻ":{"ha":938,"x_min":21,"x_max":924,"o":"m 478 378 q 388 361 421 378 q 354 314 354 344 q 395 258 354 279 q 499 236 436 236 q 658 260 569 236 q 803 318 747 285 l 924 86 q 718 7 840 36 q 468 -22 596 -22 q 231 13 332 -22 q 76 112 131 47 q 21 265 21 176 q 73 417 21 353 q 221 514 125 482 q 118 604 156 546 q 81 735 81 663 q 192 928 81 858 q 497 999 303 999 q 713 977 607 999 q 886 921 818 956 l 785 686 q 656 726 725 711 q 525 740 588 740 q 421 722 457 740 q 385 672 385 704 q 413 627 385 643 q 478 611 440 611 l 746 611 l 746 378 l 478 378 m 521 1376 q 647 1337 604 1376 q 689 1235 689 1297 q 558 1029 689 1128 l 431 1081 q 478 1133 461 1107 q 496 1183 496 1160 q 485 1211 496 1201 q 457 1221 475 1221 q 403 1200 428 1221 l 328 1315 q 521 1376 425 1376 z "},"Ȇ":{"ha":938,"x_min":21,"x_max":924,"o":"m 478 378 q 388 361 421 378 q 354 314 354 344 q 395 258 354 279 q 499 236 436 236 q 658 260 569 236 q 803 318 747 285 l 924 86 q 718 7 840 36 q 468 -22 596 -22 q 231 13 332 -22 q 76 112 131 47 q 21 265 21 176 q 73 417 21 353 q 221 514 125 482 q 118 604 156 546 q 81 735 81 663 q 192 928 81 858 q 497 999 303 999 q 713 977 607 999 q 886 921 818 956 l 785 686 q 656 726 725 711 q 525 740 588 740 q 421 722 457 740 q 385 672 385 704 q 413 627 385 643 q 478 611 440 611 l 746 611 l 746 378 l 478 378 m 249 1044 q 324 1220 254 1154 q 504 1286 393 1286 q 685 1220 615 1286 q 760 1044 754 1154 l 572 1044 q 551 1095 569 1076 q 504 1114 532 1114 q 458 1095 476 1114 q 436 1044 439 1076 l 249 1044 z "},"Ē":{"ha":938,"x_min":21,"x_max":924,"o":"m 478 378 q 388 361 421 378 q 354 314 354 344 q 395 258 354 279 q 499 236 436 236 q 658 260 569 236 q 803 318 747 285 l 924 86 q 718 7 840 36 q 468 -22 596 -22 q 231 13 332 -22 q 76 112 131 47 q 21 265 21 176 q 73 417 21 353 q 221 514 125 482 q 118 604 156 546 q 81 735 81 663 q 192 928 81 858 q 497 999 303 999 q 713 977 607 999 q 886 921 818 956 l 785 686 q 656 726 725 711 q 525 740 588 740 q 421 722 457 740 q 385 672 385 704 q 413 627 385 643 q 478 611 440 611 l 746 611 l 746 378 l 478 378 m 242 1222 l 769 1222 l 769 1044 l 242 1044 l 242 1222 z "},"Ḗ":{"ha":938,"x_min":21,"x_max":924,"o":"m 478 378 q 388 361 421 378 q 354 314 354 344 q 395 258 354 279 q 499 236 436 236 q 658 260 569 236 q 803 318 747 285 l 924 86 q 718 7 840 36 q 468 -22 596 -22 q 231 13 332 -22 q 76 112 131 47 q 21 265 21 176 q 73 417 21 353 q 221 514 125 482 q 118 604 156 546 q 81 735 81 663 q 192 928 81 858 q 497 999 303 999 q 713 977 607 999 q 886 921 818 956 l 785 686 q 656 726 725 711 q 525 740 588 740 q 421 722 457 740 q 385 672 385 704 q 413 627 385 643 q 478 611 440 611 l 746 611 l 746 378 l 478 378 z "},"Ḕ":{"ha":938,"x_min":21,"x_max":924,"o":"m 478 378 q 388 361 421 378 q 354 314 354 344 q 395 258 354 279 q 499 236 436 236 q 658 260 569 236 q 803 318 747 285 l 924 86 q 718 7 840 36 q 468 -22 596 -22 q 231 13 332 -22 q 76 112 131 47 q 21 265 21 176 q 73 417 21 353 q 221 514 125 482 q 118 604 156 546 q 81 735 81 663 q 192 928 81 858 q 497 999 303 999 q 713 977 607 999 q 886 921 818 956 l 785 686 q 656 726 725 711 q 525 740 588 740 q 421 722 457 740 q 385 672 385 704 q 413 627 385 643 q 478 611 440 611 l 746 611 l 746 378 l 478 378 z "},"Ę":{"ha":938,"x_min":21,"x_max":924,"o":"m 817 -161 q 853 -150 833 -161 l 896 -304 q 826 -330 858 -321 q 753 -339 793 -339 q 633 -300 679 -339 q 586 -183 586 -261 q 607 -91 586 -135 q 672 -3 628 -47 q 468 -22 571 -22 q 231 13 332 -22 q 76 112 131 47 q 21 265 21 176 q 73 417 21 353 q 221 514 125 482 q 118 604 156 546 q 81 735 81 663 q 192 928 81 858 q 497 999 303 999 q 713 977 607 999 q 886 921 818 956 l 785 686 q 656 726 725 711 q 525 740 588 740 q 421 722 457 740 q 385 672 385 704 q 413 627 385 643 q 478 611 440 611 l 746 611 l 746 378 l 478 378 q 388 361 421 378 q 354 314 354 344 q 395 258 354 279 q 499 236 436 236 q 658 260 569 236 q 803 318 747 285 l 924 86 l 894 69 q 818 -31 846 19 q 790 -122 790 -82 q 817 -161 790 -161 z "},"Ẽ":{"ha":938,"x_min":21,"x_max":924,"o":"m 478 378 q 388 361 421 378 q 354 314 354 344 q 395 258 354 279 q 499 236 436 236 q 658 260 569 236 q 803 318 747 285 l 924 86 q 718 7 840 36 q 468 -22 596 -22 q 231 13 332 -22 q 76 112 131 47 q 21 265 21 176 q 73 417 21 353 q 221 514 125 482 q 118 604 156 546 q 81 735 81 663 q 192 928 81 858 q 497 999 303 999 q 713 977 607 999 q 886 921 818 956 l 785 686 q 656 726 725 711 q 525 740 588 740 q 421 722 457 740 q 385 672 385 704 q 413 627 385 643 q 478 611 440 611 l 746 611 l 746 378 l 478 378 m 785 1288 q 749 1100 785 1158 q 636 1042 714 1042 q 573 1051 601 1042 q 508 1079 544 1061 q 485 1090 504 1081 q 451 1099 465 1099 q 422 1085 432 1099 q 411 1044 413 1072 l 249 1044 q 285 1232 249 1172 q 399 1292 321 1292 q 463 1281 433 1292 q 526 1254 492 1271 q 582 1235 565 1235 q 613 1247 603 1235 q 624 1288 622 1260 l 785 1288 z "},"F":{"ha":806,"x_min":56,"x_max":819,"o":"m 476 719 q 406 693 432 719 q 379 624 379 667 l 379 563 l 728 563 l 728 318 l 379 318 l 379 0 l 56 0 l 56 631 q 103 819 56 738 q 240 944 151 900 q 446 988 328 988 q 652 969 550 988 q 819 921 754 951 l 747 657 q 606 701 681 683 q 476 719 532 719 z "},"G":{"ha":1025,"x_min":21,"x_max":990,"o":"m 699 514 l 975 514 l 975 0 l 740 0 l 740 50 q 628 -3 688 15 q 513 -22 569 -22 q 260 44 372 -22 q 84 226 147 110 q 21 488 21 342 q 91 748 21 632 q 285 929 161 864 q 564 994 408 994 q 795 953 679 994 q 990 842 911 911 l 808 621 q 694 698 760 669 q 568 726 628 726 q 457 695 507 726 q 379 610 407 664 q 351 488 351 556 q 377 363 351 418 q 448 277 403 308 q 550 246 493 246 q 631 264 592 246 q 699 314 669 282 l 699 514 z "},"Ğ":{"ha":1025,"x_min":21,"x_max":990,"o":"m 699 514 l 975 514 l 975 0 l 740 0 l 740 50 q 628 -3 688 15 q 513 -22 569 -22 q 260 44 372 -22 q 84 226 147 110 q 21 488 21 342 q 91 748 21 632 q 285 929 161 864 q 564 994 408 994 q 795 953 679 994 q 990 842 911 911 l 808 621 q 694 698 760 669 q 568 726 628 726 q 457 695 507 726 q 379 610 407 664 q 351 488 351 556 q 377 363 351 418 q 448 277 403 308 q 550 246 493 246 q 631 264 592 246 q 699 314 669 282 l 699 514 m 496 1286 q 517 1235 499 1254 q 564 1217 536 1217 q 610 1235 592 1217 q 632 1286 629 1254 l 819 1286 q 744 1110 814 1176 q 564 1044 675 1044 q 383 1110 453 1044 q 308 1286 314 1176 l 496 1286 z "},"Ǧ":{"ha":1025,"x_min":21,"x_max":990,"o":"m 699 514 l 975 514 l 975 0 l 740 0 l 740 50 q 628 -3 688 15 q 513 -22 569 -22 q 260 44 372 -22 q 84 226 147 110 q 21 488 21 342 q 91 748 21 632 q 285 929 161 864 q 564 994 408 994 q 795 953 679 994 q 990 842 911 911 l 808 621 q 694 698 760 669 q 568 726 628 726 q 457 695 507 726 q 379 610 407 664 q 351 488 351 556 q 377 363 351 418 q 448 277 403 308 q 550 246 493 246 q 631 264 592 246 q 699 314 669 282 l 699 514 m 654 1269 l 849 1269 l 694 1044 l 433 1044 l 279 1269 l 474 1269 l 564 1171 l 654 1269 z "},"Ĝ":{"ha":1025,"x_min":21,"x_max":990,"o":"m 699 514 l 975 514 l 975 0 l 740 0 l 740 50 q 628 -3 688 15 q 513 -22 569 -22 q 260 44 372 -22 q 84 226 147 110 q 21 488 21 342 q 91 748 21 632 q 285 929 161 864 q 564 994 408 994 q 795 953 679 994 q 990 842 911 911 l 808 621 q 694 698 760 669 q 568 726 628 726 q 457 695 507 726 q 379 610 407 664 q 351 488 351 556 q 377 363 351 418 q 448 277 403 308 q 550 246 493 246 q 631 264 592 246 q 699 314 669 282 l 699 514 m 849 1044 l 654 1044 l 564 1144 l 474 1044 l 279 1044 l 433 1269 l 694 1269 l 849 1044 z "},"Ģ":{"ha":1025,"x_min":21,"x_max":990,"o":"m 699 514 l 975 514 l 975 0 l 740 0 l 740 50 q 628 -3 688 15 q 513 -22 569 -22 q 260 44 372 -22 q 84 226 147 110 q 21 488 21 342 q 91 748 21 632 q 285 929 161 864 q 564 994 408 994 q 795 953 679 994 q 990 842 911 911 l 808 621 q 694 698 760 669 q 568 726 628 726 q 457 695 507 726 q 379 610 407 664 q 351 488 351 556 q 377 363 351 418 q 448 277 403 308 q 550 246 493 246 q 631 264 592 246 q 699 314 669 282 l 699 514 m 433 -81 l 676 -81 l 557 -335 l 390 -335 l 433 -81 z "},"Ġ":{"ha":1025,"x_min":21,"x_max":990,"o":"m 699 514 l 975 514 l 975 0 l 740 0 l 740 50 q 628 -3 688 15 q 513 -22 569 -22 q 260 44 372 -22 q 84 226 147 110 q 21 488 21 342 q 91 748 21 632 q 285 929 161 864 q 564 994 408 994 q 795 953 679 994 q 990 842 911 911 l 808 621 q 694 698 760 669 q 568 726 628 726 q 457 695 507 726 q 379 610 407 664 q 351 488 351 556 q 377 363 351 418 q 448 277 403 308 q 550 246 493 246 q 631 264 592 246 q 699 314 669 282 l 699 514 m 564 1361 q 678 1317 633 1361 q 722 1203 722 1272 q 678 1089 722 1133 q 564 1044 633 1044 q 450 1089 494 1044 q 406 1203 406 1133 q 450 1317 406 1272 q 564 1361 494 1361 z "},"Ḡ":{"ha":1025,"x_min":21,"x_max":990,"o":"m 699 514 l 975 514 l 975 0 l 740 0 l 740 50 q 628 -3 688 15 q 513 -22 569 -22 q 260 44 372 -22 q 84 226 147 110 q 21 488 21 342 q 91 748 21 632 q 285 929 161 864 q 564 994 408 994 q 795 953 679 994 q 990 842 911 911 l 808 621 q 694 698 760 669 q 568 726 628 726 q 457 695 507 726 q 379 610 407 664 q 351 488 351 556 q 377 363 351 418 q 448 277 403 308 q 550 246 493 246 q 631 264 592 246 q 699 314 669 282 l 699 514 m 300 1222 l 828 1222 l 828 1044 l 300 1044 l 300 1222 z "},"H":{"ha":1085,"x_min":69,"x_max":1015,"o":"m 69 974 l 392 974 l 392 596 l 693 596 l 693 974 l 1015 974 l 1015 0 l 693 0 l 693 351 l 392 351 l 392 0 l 69 0 l 69 974 z "},"Ħ":{"ha":1225,"x_min":8,"x_max":1210,"o":"m 1210 849 l 1210 713 l 1083 713 l 1083 0 l 761 0 l 761 351 l 460 351 l 460 0 l 138 0 l 138 713 l 8 713 l 8 849 l 138 849 l 138 974 l 460 974 l 460 849 l 761 849 l 761 974 l 1083 974 l 1083 849 l 1210 849 m 761 596 l 761 713 l 460 713 l 460 596 l 761 596 z "},"Ḫ":{"ha":1085,"x_min":69,"x_max":1015,"o":"m 69 974 l 392 974 l 392 596 l 693 596 l 693 974 l 1015 974 l 1015 0 l 693 0 l 693 351 l 392 351 l 392 0 l 69 0 l 69 974 m 475 -90 q 497 -141 478 -122 q 543 -160 515 -160 q 590 -141 571 -160 q 611 -90 608 -122 l 799 -90 q 724 -266 793 -200 q 543 -332 654 -332 q 363 -266 432 -332 q 288 -90 293 -200 l 475 -90 z "},"Ĥ":{"ha":1085,"x_min":69,"x_max":1015,"o":"m 69 974 l 392 974 l 392 596 l 693 596 l 693 974 l 1015 974 l 1015 0 l 693 0 l 693 351 l 392 351 l 392 0 l 69 0 l 69 974 m 842 1044 l 647 1044 l 557 1144 l 467 1044 l 272 1044 l 426 1269 l 688 1269 l 842 1044 z "},"Ḥ":{"ha":1085,"x_min":69,"x_max":1015,"o":"m 69 974 l 392 974 l 392 596 l 693 596 l 693 974 l 1015 974 l 1015 0 l 693 0 l 693 351 l 392 351 l 392 0 l 69 0 l 69 974 m 539 -90 q 653 -135 608 -90 q 697 -249 697 -179 q 653 -362 697 -318 q 539 -407 608 -407 q 425 -362 469 -407 q 381 -249 381 -318 q 425 -135 381 -179 q 539 -90 469 -90 z "},"I":{"ha":728,"x_min":56,"x_max":672,"o":"m 672 729 l 525 729 l 525 244 l 672 244 l 672 0 l 56 0 l 56 244 l 203 244 l 203 729 l 56 729 l 56 974 l 672 974 l 672 729 z "},"Ĳ":{"ha":1518,"x_min":56,"x_max":1463,"o":"m 672 729 l 525 729 l 525 244 l 672 244 l 672 0 l 56 0 l 56 244 l 203 244 l 203 729 l 56 729 l 56 974 l 672 974 l 672 729 m 1463 190 q 1364 -62 1463 28 q 1096 -153 1265 -153 q 717 17 871 -153 l 863 225 q 972 143 917 171 q 1065 115 1026 115 q 1120 136 1100 115 q 1140 197 1140 157 l 1140 719 l 808 719 l 808 974 l 1463 974 l 1463 190 z "},"Í":{"ha":728,"x_min":56,"x_max":672,"o":"m 672 729 l 525 729 l 525 244 l 672 244 l 672 0 l 56 0 l 56 244 l 203 244 l 203 729 l 56 729 l 56 974 l 672 974 l 672 729 m 396 1297 l 631 1214 l 406 1035 l 208 1049 l 396 1297 z "},"Ĭ":{"ha":728,"x_min":56,"x_max":672,"o":"m 672 729 l 525 729 l 525 244 l 672 244 l 672 0 l 56 0 l 56 244 l 203 244 l 203 729 l 56 729 l 56 974 l 672 974 l 672 729 m 296 1286 q 317 1235 299 1254 q 364 1217 336 1217 q 410 1235 392 1217 q 432 1286 429 1254 l 619 1286 q 544 1110 614 1176 q 364 1044 475 1044 q 183 1110 253 1044 q 108 1286 114 1176 l 296 1286 z "},"Î":{"ha":728,"x_min":56,"x_max":672,"o":"m 672 729 l 525 729 l 525 244 l 672 244 l 672 0 l 56 0 l 56 244 l 203 244 l 203 729 l 56 729 l 56 974 l 672 974 l 672 729 m 649 1044 l 454 1044 l 364 1144 l 274 1044 l 79 1044 l 233 1269 l 494 1269 l 649 1044 z "},"Ȉ":{"ha":728,"x_min":10,"x_max":672,"o":"m 672 729 l 525 729 l 525 244 l 672 244 l 672 0 l 56 0 l 56 244 l 203 244 l 203 729 l 56 729 l 56 974 l 672 974 l 672 729 m 235 1293 l 349 1044 l 133 1031 l 10 1219 l 235 1293 m 542 1293 l 656 1044 l 440 1031 l 317 1219 l 542 1293 z "},"Ï":{"ha":728,"x_min":56,"x_max":672,"o":"m 672 729 l 525 729 l 525 244 l 672 244 l 672 0 l 56 0 l 56 244 l 203 244 l 203 729 l 56 729 l 56 974 l 672 974 l 672 729 m 224 1290 q 312 1256 278 1290 q 346 1167 346 1221 q 312 1079 346 1114 q 224 1044 278 1044 q 135 1079 169 1044 q 101 1167 101 1114 q 135 1256 101 1221 q 224 1290 169 1290 m 504 1290 q 592 1256 558 1290 q 626 1167 626 1221 q 592 1079 626 1114 q 504 1044 558 1044 q 416 1079 450 1044 q 382 1167 382 1114 q 416 1256 382 1221 q 504 1290 450 1290 z "},"Ḯ":{"ha":728,"x_min":56,"x_max":672,"o":"m 672 729 l 525 729 l 525 244 l 672 244 l 672 0 l 56 0 l 56 244 l 203 244 l 203 729 l 56 729 l 56 974 l 672 974 l 672 729 z "},"İ":{"ha":728,"x_min":56,"x_max":672,"o":"m 672 729 l 525 729 l 525 244 l 672 244 l 672 0 l 56 0 l 56 244 l 203 244 l 203 729 l 56 729 l 56 974 l 672 974 l 672 729 m 364 1361 q 478 1317 433 1361 q 522 1203 522 1272 q 478 1089 522 1133 q 364 1044 433 1044 q 250 1089 294 1044 q 206 1203 206 1133 q 250 1317 206 1272 q 364 1361 294 1361 z "},"Ị":{"ha":728,"x_min":56,"x_max":672,"o":"m 672 729 l 525 729 l 525 244 l 672 244 l 672 0 l 56 0 l 56 244 l 203 244 l 203 729 l 56 729 l 56 974 l 672 974 l 672 729 m 360 -90 q 474 -135 429 -90 q 518 -249 518 -179 q 474 -362 518 -318 q 360 -407 429 -407 q 246 -362 290 -407 q 201 -249 201 -318 q 246 -135 201 -179 q 360 -90 290 -90 z "},"Ì":{"ha":728,"x_min":56,"x_max":672,"o":"m 672 729 l 525 729 l 525 244 l 672 244 l 672 0 l 56 0 l 56 244 l 203 244 l 203 729 l 56 729 l 56 974 l 672 974 l 672 729 m 354 1297 l 508 1049 l 310 1035 l 118 1214 l 354 1297 z "},"Ỉ":{"ha":728,"x_min":56,"x_max":672,"o":"m 672 729 l 525 729 l 525 244 l 672 244 l 672 0 l 56 0 l 56 244 l 203 244 l 203 729 l 56 729 l 56 974 l 672 974 l 672 729 m 379 1376 q 505 1337 463 1376 q 547 1235 547 1297 q 417 1029 547 1128 l 289 1081 q 337 1133 319 1107 q 354 1183 354 1160 q 344 1211 354 1201 q 315 1221 333 1221 q 261 1200 286 1221 l 186 1315 q 379 1376 283 1376 z "},"Ȋ":{"ha":728,"x_min":56,"x_max":672,"o":"m 672 729 l 525 729 l 525 244 l 672 244 l 672 0 l 56 0 l 56 244 l 203 244 l 203 729 l 56 729 l 56 974 l 672 974 l 672 729 m 107 1044 q 182 1220 113 1154 q 363 1286 251 1286 q 543 1220 474 1286 q 618 1044 613 1154 l 431 1044 q 409 1095 428 1076 q 363 1114 390 1114 q 316 1095 335 1114 q 294 1044 297 1076 l 107 1044 z "},"Ī":{"ha":728,"x_min":56,"x_max":672,"o":"m 672 729 l 525 729 l 525 244 l 672 244 l 672 0 l 56 0 l 56 244 l 203 244 l 203 729 l 56 729 l 56 974 l 672 974 l 672 729 m 100 1222 l 628 1222 l 628 1044 l 100 1044 l 100 1222 z "},"Į":{"ha":728,"x_min":56,"x_max":672,"o":"m 525 729 l 525 244 l 672 244 l 672 0 l 431 0 q 335 -125 335 -67 q 363 -161 335 -161 q 397 -150 378 -161 l 440 -304 q 292 -339 363 -339 q 172 -293 213 -339 q 131 -176 131 -247 q 201 0 131 -86 l 56 0 l 56 244 l 203 244 l 203 729 l 56 729 l 56 974 l 672 974 l 672 729 l 525 729 z "},"Ĩ":{"ha":728,"x_min":56,"x_max":672,"o":"m 672 729 l 525 729 l 525 244 l 672 244 l 672 0 l 56 0 l 56 244 l 203 244 l 203 729 l 56 729 l 56 974 l 672 974 l 672 729 m 643 1288 q 608 1100 643 1158 q 494 1042 572 1042 q 431 1051 460 1042 q 367 1079 403 1061 q 343 1090 363 1081 q 310 1099 324 1099 q 281 1085 290 1099 q 269 1044 271 1072 l 107 1044 q 143 1232 107 1172 q 257 1292 179 1292 q 321 1281 292 1292 q 385 1254 350 1271 q 440 1235 424 1235 q 471 1247 461 1235 q 482 1288 481 1260 l 643 1288 z "},"J":{"ha":790,"x_min":-11,"x_max":735,"o":"m 735 190 q 636 -62 735 28 q 368 -153 538 -153 q -11 17 143 -153 l 135 225 q 244 143 189 171 q 338 115 299 115 q 392 136 372 115 q 413 197 413 157 l 413 719 l 81 719 l 81 974 l 735 974 l 735 190 z "},"Ĵ":{"ha":790,"x_min":-11,"x_max":735,"o":"m 735 190 q 636 -62 735 28 q 368 -153 538 -153 q -11 17 143 -153 l 135 225 q 244 143 189 171 q 338 115 299 115 q 392 136 372 115 q 413 197 413 157 l 413 719 l 81 719 l 81 974 l 735 974 l 735 190 m 681 1044 l 486 1044 l 396 1144 l 306 1044 l 111 1044 l 265 1269 l 526 1269 l 681 1044 z "},"K":{"ha":1074,"x_min":69,"x_max":1074,"o":"m 1074 0 l 689 0 l 483 339 l 392 236 l 392 0 l 69 0 l 69 974 l 392 974 l 392 618 l 682 974 l 1053 974 l 704 585 l 1074 0 z "},"Ķ":{"ha":1074,"x_min":69,"x_max":1074,"o":"m 1074 0 l 689 0 l 483 339 l 392 236 l 392 0 l 69 0 l 69 974 l 392 974 l 392 618 l 682 974 l 1053 974 l 704 585 l 1074 0 m 393 -85 l 636 -85 l 517 -339 l 350 -339 l 393 -85 z "},"L":{"ha":811,"x_min":69,"x_max":797,"o":"m 69 974 l 392 974 l 392 268 l 797 268 l 797 0 l 69 0 l 69 974 z "},"Ǉ":{"ha":1601,"x_min":69,"x_max":1546,"o":"m 69 974 l 392 974 l 392 268 l 797 268 l 797 0 l 69 0 l 69 974 m 1546 190 q 1447 -62 1546 28 q 1179 -153 1349 -153 q 800 17 954 -153 l 946 225 q 1055 143 1000 171 q 1149 115 1110 115 q 1203 136 1183 115 q 1224 197 1224 157 l 1224 719 l 892 719 l 892 974 l 1546 974 l 1546 190 z "},"Ĺ":{"ha":811,"x_min":65,"x_max":797,"o":"m 69 974 l 392 974 l 392 268 l 797 268 l 797 0 l 69 0 l 69 974 m 253 1297 l 488 1214 l 263 1035 l 65 1049 l 253 1297 z "},"Ľ":{"ha":811,"x_min":69,"x_max":797,"o":"m 69 974 l 392 974 l 392 268 l 797 268 l 797 0 l 69 0 l 69 974 m 578 974 l 797 974 l 756 653 l 578 653 l 578 974 z "},"Ļ":{"ha":811,"x_min":69,"x_max":797,"o":"m 69 974 l 392 974 l 392 268 l 797 268 l 797 0 l 69 0 l 69 974 m 308 -85 l 551 -85 l 432 -339 l 265 -339 l 308 -85 z "},"Ŀ":{"ha":811,"x_min":69,"x_max":797,"o":"m 69 974 l 392 974 l 392 268 l 797 268 l 797 0 l 69 0 l 69 974 z "},"Ḷ":{"ha":811,"x_min":69,"x_max":797,"o":"m 69 974 l 392 974 l 392 268 l 797 268 l 797 0 l 69 0 l 69 974 m 429 -90 q 543 -135 499 -90 q 588 -249 588 -179 q 543 -362 588 -318 q 429 -407 499 -407 q 315 -362 360 -407 q 271 -249 271 -318 q 315 -135 271 -179 q 429 -90 360 -90 z "},"ǈ":{"ha":1283,"x_min":69,"x_max":1207,"o":"m 69 974 l 392 974 l 392 268 l 797 268 l 797 0 l 69 0 l 69 974 m 781 -32 q 833 -40 814 -40 q 878 -25 863 -42 q 894 24 894 -8 l 894 760 l 1207 760 l 1207 -24 q 1126 -212 1207 -142 q 910 -282 1046 -282 q 721 -250 804 -282 l 781 -32 m 1044 1135 q 1158 1090 1114 1135 q 1203 976 1203 1046 q 1158 863 1203 907 q 1044 818 1114 818 q 931 863 975 818 q 886 976 886 907 q 931 1090 886 1046 q 1044 1135 975 1135 z "},"Ḻ":{"ha":811,"x_min":69,"x_max":797,"o":"m 69 974 l 392 974 l 392 268 l 797 268 l 797 0 l 69 0 l 69 974 m 211 -104 l 656 -104 l 656 -282 l 211 -282 l 211 -104 z "},"Ł":{"ha":888,"x_min":21,"x_max":874,"o":"m 468 268 l 874 268 l 874 0 l 146 0 l 146 403 l 21 339 l 21 503 l 146 567 l 146 974 l 468 974 l 468 729 l 611 801 l 611 638 l 468 565 l 468 268 z "},"M":{"ha":1611,"x_min":69,"x_max":1556,"o":"m 1244 994 q 1408 950 1338 994 q 1517 825 1478 906 q 1556 636 1556 744 l 1556 0 l 1229 0 l 1229 558 q 1198 666 1229 626 q 1108 706 1167 706 q 1010 663 1047 706 q 974 549 974 619 l 974 0 l 647 0 l 647 558 q 616 666 647 626 q 526 706 585 706 q 428 663 465 706 q 392 549 392 619 l 392 0 l 69 0 l 69 974 l 392 974 l 392 842 q 506 955 436 915 q 663 994 575 994 q 840 942 765 994 q 949 793 914 889 q 1067 942 990 889 q 1244 994 1143 994 z "},"Ṃ":{"ha":1611,"x_min":69,"x_max":1556,"o":"m 1244 994 q 1408 950 1338 994 q 1517 825 1478 906 q 1556 636 1556 744 l 1556 0 l 1229 0 l 1229 558 q 1198 666 1229 626 q 1108 706 1167 706 q 1010 663 1047 706 q 974 549 974 619 l 974 0 l 647 0 l 647 558 q 616 666 647 626 q 526 706 585 706 q 428 663 465 706 q 392 549 392 619 l 392 0 l 69 0 l 69 974 l 392 974 l 392 842 q 506 955 436 915 q 663 994 575 994 q 840 942 765 994 q 949 793 914 889 q 1067 942 990 889 q 1244 994 1143 994 m 807 -90 q 921 -135 876 -90 q 965 -249 965 -179 q 921 -362 965 -318 q 807 -407 876 -407 q 693 -362 738 -407 q 649 -249 649 -318 q 693 -135 649 -179 q 807 -90 738 -90 z "},"N":{"ha":1057,"x_min":69,"x_max":1001,"o":"m 675 994 q 847 951 774 994 q 961 826 921 907 q 1001 636 1001 744 l 1001 0 l 675 0 l 675 558 q 640 665 675 625 q 546 706 606 706 q 433 663 475 706 q 392 549 392 621 l 392 0 l 69 0 l 69 974 l 392 974 l 392 838 q 510 953 438 913 q 675 994 583 994 z "},"Ǌ":{"ha":1847,"x_min":69,"x_max":1792,"o":"m 675 994 q 847 951 774 994 q 961 826 921 907 q 1001 636 1001 744 l 1001 0 l 675 0 l 675 558 q 640 665 675 625 q 546 706 606 706 q 433 663 475 706 q 392 549 392 621 l 392 0 l 69 0 l 69 974 l 392 974 l 392 838 q 510 953 438 913 q 675 994 583 994 m 1792 190 q 1693 -62 1792 28 q 1425 -153 1594 -153 q 1046 17 1200 -153 l 1192 225 q 1301 143 1246 171 q 1394 115 1356 115 q 1449 136 1429 115 q 1469 197 1469 157 l 1469 719 l 1138 719 l 1138 974 l 1792 974 l 1792 190 z "},"Ń":{"ha":1057,"x_min":69,"x_max":1001,"o":"m 675 994 q 847 951 774 994 q 961 826 921 907 q 1001 636 1001 744 l 1001 0 l 675 0 l 675 558 q 640 665 675 625 q 546 706 606 706 q 433 663 475 706 q 392 549 392 621 l 392 0 l 69 0 l 69 974 l 392 974 l 392 838 q 510 953 438 913 q 675 994 583 994 m 589 1297 l 824 1214 l 599 1035 l 401 1049 l 589 1297 z "},"Ň":{"ha":1057,"x_min":69,"x_max":1001,"o":"m 675 994 q 847 951 774 994 q 961 826 921 907 q 1001 636 1001 744 l 1001 0 l 675 0 l 675 558 q 640 665 675 625 q 546 706 606 706 q 433 663 475 706 q 392 549 392 621 l 392 0 l 69 0 l 69 974 l 392 974 l 392 838 q 510 953 438 913 q 675 994 583 994 m 647 1269 l 842 1269 l 688 1044 l 426 1044 l 272 1269 l 467 1269 l 557 1171 l 647 1269 z "},"Ņ":{"ha":1057,"x_min":69,"x_max":1001,"o":"m 675 994 q 847 951 774 994 q 961 826 921 907 q 1001 636 1001 744 l 1001 0 l 675 0 l 675 558 q 640 665 675 625 q 546 706 606 706 q 433 663 475 706 q 392 549 392 621 l 392 0 l 69 0 l 69 974 l 392 974 l 392 838 q 510 953 438 913 q 675 994 583 994 m 404 -85 l 647 -85 l 528 -339 l 361 -339 l 404 -85 z "},"Ṅ":{"ha":1057,"x_min":69,"x_max":1001,"o":"m 675 994 q 847 951 774 994 q 961 826 921 907 q 1001 636 1001 744 l 1001 0 l 675 0 l 675 558 q 640 665 675 625 q 546 706 606 706 q 433 663 475 706 q 392 549 392 621 l 392 0 l 69 0 l 69 974 l 392 974 l 392 838 q 510 953 438 913 q 675 994 583 994 m 557 1361 q 671 1317 626 1361 q 715 1203 715 1272 q 671 1089 715 1133 q 557 1044 626 1044 q 443 1089 488 1044 q 399 1203 399 1133 q 443 1317 399 1272 q 557 1361 488 1361 z "},"Ṇ":{"ha":1057,"x_min":69,"x_max":1001,"o":"m 675 994 q 847 951 774 994 q 961 826 921 907 q 1001 636 1001 744 l 1001 0 l 675 0 l 675 558 q 640 665 675 625 q 546 706 606 706 q 433 663 475 706 q 392 549 392 621 l 392 0 l 69 0 l 69 974 l 392 974 l 392 838 q 510 953 438 913 q 675 994 583 994 m 525 -90 q 639 -135 594 -90 q 683 -249 683 -179 q 639 -362 683 -318 q 525 -407 594 -407 q 411 -362 456 -407 q 367 -249 367 -318 q 411 -135 367 -179 q 525 -90 456 -90 z "},"Ŋ":{"ha":1057,"x_min":69,"x_max":1001,"o":"m 675 974 q 847 930 774 974 q 961 805 921 886 q 1001 615 1001 724 l 1001 0 q 894 -230 992 -147 q 635 -312 796 -312 q 400 -257 507 -312 l 499 -14 q 614 -44 568 -44 q 675 17 675 -44 l 675 538 q 640 644 675 604 q 546 685 606 685 q 433 642 475 685 q 392 528 392 600 l 392 0 l 69 0 l 69 974 l 392 974 l 392 817 q 510 933 438 892 q 675 974 583 974 z "},"ǋ":{"ha":1529,"x_min":69,"x_max":1453,"o":"m 675 994 q 847 951 774 994 q 961 826 921 907 q 1001 636 1001 744 l 1001 0 l 675 0 l 675 558 q 640 665 675 625 q 546 706 606 706 q 433 663 475 706 q 392 549 392 621 l 392 0 l 69 0 l 69 974 l 392 974 l 392 838 q 510 953 438 913 q 675 994 583 994 m 1026 -32 q 1079 -40 1060 -40 q 1124 -25 1108 -42 q 1140 24 1140 -8 l 1140 760 l 1453 760 l 1453 -24 q 1372 -212 1453 -142 q 1156 -282 1292 -282 q 967 -250 1050 -282 l 1026 -32 m 1290 1135 q 1404 1090 1360 1135 q 1449 976 1449 1046 q 1404 863 1449 907 q 1290 818 1360 818 q 1176 863 1221 818 q 1132 976 1132 907 q 1176 1090 1132 1046 q 1290 1135 1221 1135 z "},"Ṉ":{"ha":1057,"x_min":69,"x_max":1001,"o":"m 675 994 q 847 951 774 994 q 961 826 921 907 q 1001 636 1001 744 l 1001 0 l 675 0 l 675 558 q 640 665 675 625 q 546 706 606 706 q 433 663 475 706 q 392 549 392 621 l 392 0 l 69 0 l 69 974 l 392 974 l 392 838 q 510 953 438 913 q 675 994 583 994 m 307 -104 l 751 -104 l 751 -282 l 307 -282 l 307 -104 z "},"Ñ":{"ha":1057,"x_min":69,"x_max":1001,"o":"m 675 994 q 847 951 774 994 q 961 826 921 907 q 1001 636 1001 744 l 1001 0 l 675 0 l 675 558 q 640 665 675 625 q 546 706 606 706 q 433 663 475 706 q 392 549 392 621 l 392 0 l 69 0 l 69 974 l 392 974 l 392 838 q 510 953 438 913 q 675 994 583 994 m 836 1288 q 801 1100 836 1158 q 688 1042 765 1042 q 624 1051 653 1042 q 560 1079 596 1061 q 536 1090 556 1081 q 503 1099 517 1099 q 474 1085 483 1099 q 463 1044 464 1072 l 300 1044 q 336 1232 300 1172 q 450 1292 372 1292 q 514 1281 485 1292 q 578 1254 543 1271 q 633 1235 617 1235 q 664 1247 654 1235 q 675 1288 674 1260 l 836 1288 z "},"O":{"ha":1111,"x_min":21,"x_max":1090,"o":"m 556 994 q 831 929 708 994 q 1022 749 953 864 q 1090 489 1090 633 q 1022 226 1090 343 q 831 44 953 110 q 556 -22 708 -22 q 281 44 403 -22 q 90 226 158 110 q 21 489 21 343 q 90 750 21 635 q 281 930 158 865 q 556 994 403 994 m 560 726 q 456 695 504 726 q 380 610 408 664 q 351 488 351 556 q 380 365 351 419 q 456 278 408 310 q 560 246 504 246 q 661 277 615 246 q 733 364 707 308 q 760 488 760 419 q 733 610 760 556 q 661 696 707 665 q 560 726 615 726 z "},"Ó":{"ha":1111,"x_min":21,"x_max":1090,"o":"m 556 994 q 831 929 708 994 q 1022 749 953 864 q 1090 489 1090 633 q 1022 226 1090 343 q 831 44 953 110 q 556 -22 708 -22 q 281 44 403 -22 q 90 226 158 110 q 21 489 21 343 q 90 750 21 635 q 281 930 158 865 q 556 994 403 994 m 560 726 q 456 695 504 726 q 380 610 408 664 q 351 488 351 556 q 380 365 351 419 q 456 278 408 310 q 560 246 504 246 q 661 277 615 246 q 733 364 707 308 q 760 488 760 419 q 733 610 760 556 q 661 696 707 665 q 560 726 615 726 m 588 1297 l 822 1214 l 597 1035 l 400 1049 l 588 1297 z "},"Ŏ":{"ha":1111,"x_min":21,"x_max":1090,"o":"m 556 994 q 831 929 708 994 q 1022 749 953 864 q 1090 489 1090 633 q 1022 226 1090 343 q 831 44 953 110 q 556 -22 708 -22 q 281 44 403 -22 q 90 226 158 110 q 21 489 21 343 q 90 750 21 635 q 281 930 158 865 q 556 994 403 994 m 560 726 q 456 695 504 726 q 380 610 408 664 q 351 488 351 556 q 380 365 351 419 q 456 278 408 310 q 560 246 504 246 q 661 277 615 246 q 733 364 707 308 q 760 488 760 419 q 733 610 760 556 q 661 696 707 665 q 560 726 615 726 m 488 1286 q 509 1235 490 1254 q 556 1217 528 1217 q 602 1235 583 1217 q 624 1286 621 1254 l 811 1286 q 736 1110 806 1176 q 556 1044 667 1044 q 375 1110 444 1044 q 300 1286 306 1176 l 488 1286 z "},"Ô":{"ha":1111,"x_min":21,"x_max":1090,"o":"m 556 994 q 831 929 708 994 q 1022 749 953 864 q 1090 489 1090 633 q 1022 226 1090 343 q 831 44 953 110 q 556 -22 708 -22 q 281 44 403 -22 q 90 226 158 110 q 21 489 21 343 q 90 750 21 635 q 281 930 158 865 q 556 994 403 994 m 560 726 q 456 695 504 726 q 380 610 408 664 q 351 488 351 556 q 380 365 351 419 q 456 278 408 310 q 560 246 504 246 q 661 277 615 246 q 733 364 707 308 q 760 488 760 419 q 733 610 760 556 q 661 696 707 665 q 560 726 615 726 m 840 1044 l 646 1044 l 556 1144 l 465 1044 l 271 1044 l 425 1269 l 686 1269 l 840 1044 z "},"Ố":{"ha":1111,"x_min":21,"x_max":1090,"o":"m 556 994 q 831 929 708 994 q 1022 749 953 864 q 1090 489 1090 633 q 1022 226 1090 343 q 831 44 953 110 q 556 -22 708 -22 q 281 44 403 -22 q 90 226 158 110 q 21 489 21 343 q 90 750 21 635 q 281 930 158 865 q 556 994 403 994 m 560 726 q 456 695 504 726 q 380 610 408 664 q 351 488 351 556 q 380 365 351 419 q 456 278 408 310 q 560 246 504 246 q 661 277 615 246 q 733 364 707 308 q 760 488 760 419 q 733 610 760 556 q 661 696 707 665 q 560 726 615 726 m 867 1044 l 643 1044 l 554 1143 l 464 1044 l 242 1044 l 413 1236 l 694 1236 l 867 1044 m 607 1521 l 800 1408 l 560 1279 l 390 1322 l 607 1521 z "},"Ộ":{"ha":1111,"x_min":21,"x_max":1090,"o":"m 556 994 q 831 929 708 994 q 1022 749 953 864 q 1090 489 1090 633 q 1022 226 1090 343 q 831 44 953 110 q 556 -22 708 -22 q 281 44 403 -22 q 90 226 158 110 q 21 489 21 343 q 90 750 21 635 q 281 930 158 865 q 556 994 403 994 m 560 726 q 456 695 504 726 q 380 610 408 664 q 351 488 351 556 q 380 365 351 419 q 456 278 408 310 q 560 246 504 246 q 661 277 615 246 q 733 364 707 308 q 760 488 760 419 q 733 610 760 556 q 661 696 707 665 q 560 726 615 726 m 551 -90 q 665 -135 621 -90 q 710 -249 710 -179 q 665 -362 710 -318 q 551 -407 621 -407 q 438 -362 482 -407 q 393 -249 393 -318 q 438 -135 393 -179 q 551 -90 482 -90 m 840 1044 l 646 1044 l 556 1144 l 465 1044 l 271 1044 l 425 1269 l 686 1269 l 840 1044 z "},"Ồ":{"ha":1111,"x_min":21,"x_max":1090,"o":"m 556 994 q 831 929 708 994 q 1022 749 953 864 q 1090 489 1090 633 q 1022 226 1090 343 q 831 44 953 110 q 556 -22 708 -22 q 281 44 403 -22 q 90 226 158 110 q 21 489 21 343 q 90 750 21 635 q 281 930 158 865 q 556 994 403 994 m 560 726 q 456 695 504 726 q 380 610 408 664 q 351 488 351 556 q 380 365 351 419 q 456 278 408 310 q 560 246 504 246 q 661 277 615 246 q 733 364 707 308 q 760 488 760 419 q 733 610 760 556 q 661 696 707 665 q 560 726 615 726 m 867 1044 l 643 1044 l 554 1143 l 464 1044 l 242 1044 l 413 1236 l 694 1236 l 867 1044 m 488 1521 l 704 1322 l 535 1279 l 294 1408 l 488 1521 z "},"Ổ":{"ha":1111,"x_min":21,"x_max":1090,"o":"m 556 994 q 831 929 708 994 q 1022 749 953 864 q 1090 489 1090 633 q 1022 226 1090 343 q 831 44 953 110 q 556 -22 708 -22 q 281 44 403 -22 q 90 226 158 110 q 21 489 21 343 q 90 750 21 635 q 281 930 158 865 q 556 994 403 994 m 560 726 q 456 695 504 726 q 380 610 408 664 q 351 488 351 556 q 380 365 351 419 q 456 278 408 310 q 560 246 504 246 q 661 277 615 246 q 733 364 707 308 q 760 488 760 419 q 733 610 760 556 q 661 696 707 665 q 560 726 615 726 m 881 1044 l 657 1044 l 568 1143 l 478 1044 l 256 1044 l 426 1236 l 708 1236 l 881 1044 m 569 1532 q 676 1501 642 1532 q 710 1426 710 1469 q 684 1349 710 1383 q 600 1279 658 1315 l 485 1322 q 526 1349 513 1338 q 539 1375 539 1361 q 510 1397 539 1397 q 467 1382 483 1397 l 399 1479 q 569 1532 486 1532 z "},"Ỗ":{"ha":1111,"x_min":21,"x_max":1090,"o":"m 556 994 q 831 929 708 994 q 1022 749 953 864 q 1090 489 1090 633 q 1022 226 1090 343 q 831 44 953 110 q 556 -22 708 -22 q 281 44 403 -22 q 90 226 158 110 q 21 489 21 343 q 90 750 21 635 q 281 930 158 865 q 556 994 403 994 m 560 726 q 456 695 504 726 q 380 610 408 664 q 351 488 351 556 q 380 365 351 419 q 456 278 408 310 q 560 246 504 246 q 661 277 615 246 q 733 364 707 308 q 760 488 760 419 q 733 610 760 556 q 661 696 707 665 q 560 726 615 726 m 853 1044 l 629 1044 l 540 1143 l 450 1044 l 228 1044 l 399 1236 l 681 1236 l 853 1044 m 807 1481 q 772 1326 807 1375 q 660 1276 738 1276 q 590 1285 622 1276 q 515 1311 557 1294 q 450 1329 467 1329 q 417 1317 426 1329 q 408 1279 408 1306 l 269 1279 q 304 1435 269 1385 q 417 1485 339 1485 q 488 1476 456 1485 q 563 1450 521 1467 q 598 1438 581 1443 q 626 1432 615 1432 q 658 1444 649 1432 q 669 1481 668 1456 l 807 1481 z "},"Ȍ":{"ha":1111,"x_min":21,"x_max":1090,"o":"m 556 994 q 831 929 708 994 q 1022 749 953 864 q 1090 489 1090 633 q 1022 226 1090 343 q 831 44 953 110 q 556 -22 708 -22 q 281 44 403 -22 q 90 226 158 110 q 21 489 21 343 q 90 750 21 635 q 281 930 158 865 q 556 994 403 994 m 560 726 q 456 695 504 726 q 380 610 408 664 q 351 488 351 556 q 380 365 351 419 q 456 278 408 310 q 560 246 504 246 q 661 277 615 246 q 733 364 707 308 q 760 488 760 419 q 733 610 760 556 q 661 696 707 665 q 560 726 615 726 m 426 1293 l 540 1044 l 325 1031 l 201 1219 l 426 1293 m 733 1293 l 847 1044 l 632 1031 l 508 1219 l 733 1293 z "},"Ö":{"ha":1111,"x_min":21,"x_max":1090,"o":"m 556 994 q 831 929 708 994 q 1022 749 953 864 q 1090 489 1090 633 q 1022 226 1090 343 q 831 44 953 110 q 556 -22 708 -22 q 281 44 403 -22 q 90 226 158 110 q 21 489 21 343 q 90 750 21 635 q 281 930 158 865 q 556 994 403 994 m 560 726 q 456 695 504 726 q 380 610 408 664 q 351 488 351 556 q 380 365 351 419 q 456 278 408 310 q 560 246 504 246 q 661 277 615 246 q 733 364 707 308 q 760 488 760 419 q 733 610 760 556 q 661 696 707 665 q 560 726 615 726 m 415 1290 q 503 1256 469 1290 q 538 1167 538 1221 q 503 1079 538 1114 q 415 1044 469 1044 q 327 1079 361 1044 q 293 1167 293 1114 q 327 1256 293 1221 q 415 1290 361 1290 m 696 1290 q 784 1256 750 1290 q 818 1167 818 1221 q 784 1079 818 1114 q 696 1044 750 1044 q 608 1079 642 1044 q 574 1167 574 1114 q 608 1256 574 1221 q 696 1290 642 1290 z "},"Ȫ":{"ha":1111,"x_min":21,"x_max":1090,"o":"m 556 994 q 831 929 708 994 q 1022 749 953 864 q 1090 489 1090 633 q 1022 226 1090 343 q 831 44 953 110 q 556 -22 708 -22 q 281 44 403 -22 q 90 226 158 110 q 21 489 21 343 q 90 750 21 635 q 281 930 158 865 q 556 994 403 994 m 560 726 q 456 695 504 726 q 380 610 408 664 q 351 488 351 556 q 380 365 351 419 q 456 278 408 310 q 560 246 504 246 q 661 277 615 246 q 733 364 707 308 q 760 488 760 419 q 733 610 760 556 q 661 696 707 665 q 560 726 615 726 z "},"Ȱ":{"ha":1111,"x_min":21,"x_max":1090,"o":"m 556 994 q 831 929 708 994 q 1022 749 953 864 q 1090 489 1090 633 q 1022 226 1090 343 q 831 44 953 110 q 556 -22 708 -22 q 281 44 403 -22 q 90 226 158 110 q 21 489 21 343 q 90 750 21 635 q 281 930 158 865 q 556 994 403 994 m 560 726 q 456 695 504 726 q 380 610 408 664 q 351 488 351 556 q 380 365 351 419 q 456 278 408 310 q 560 246 504 246 q 661 277 615 246 q 733 364 707 308 q 760 488 760 419 q 733 610 760 556 q 661 696 707 665 q 560 726 615 726 z "},"Ọ":{"ha":1111,"x_min":21,"x_max":1090,"o":"m 556 994 q 831 929 708 994 q 1022 749 953 864 q 1090 489 1090 633 q 1022 226 1090 343 q 831 44 953 110 q 556 -22 708 -22 q 281 44 403 -22 q 90 226 158 110 q 21 489 21 343 q 90 750 21 635 q 281 930 158 865 q 556 994 403 994 m 560 726 q 456 695 504 726 q 380 610 408 664 q 351 488 351 556 q 380 365 351 419 q 456 278 408 310 q 560 246 504 246 q 661 277 615 246 q 733 364 707 308 q 760 488 760 419 q 733 610 760 556 q 661 696 707 665 q 560 726 615 726 m 551 -90 q 665 -135 621 -90 q 710 -249 710 -179 q 665 -362 710 -318 q 551 -407 621 -407 q 438 -362 482 -407 q 393 -249 393 -318 q 438 -135 393 -179 q 551 -90 482 -90 z "},"Ò":{"ha":1111,"x_min":21,"x_max":1090,"o":"m 556 994 q 831 929 708 994 q 1022 749 953 864 q 1090 489 1090 633 q 1022 226 1090 343 q 831 44 953 110 q 556 -22 708 -22 q 281 44 403 -22 q 90 226 158 110 q 21 489 21 343 q 90 750 21 635 q 281 930 158 865 q 556 994 403 994 m 560 726 q 456 695 504 726 q 380 610 408 664 q 351 488 351 556 q 380 365 351 419 q 456 278 408 310 q 560 246 504 246 q 661 277 615 246 q 733 364 707 308 q 760 488 760 419 q 733 610 760 556 q 661 696 707 665 q 560 726 615 726 m 546 1297 l 700 1049 l 501 1035 l 310 1214 l 546 1297 z "},"Ỏ":{"ha":1111,"x_min":21,"x_max":1090,"o":"m 556 994 q 831 929 708 994 q 1022 749 953 864 q 1090 489 1090 633 q 1022 226 1090 343 q 831 44 953 110 q 556 -22 708 -22 q 281 44 403 -22 q 90 226 158 110 q 21 489 21 343 q 90 750 21 635 q 281 930 158 865 q 556 994 403 994 m 560 726 q 456 695 504 726 q 380 610 408 664 q 351 488 351 556 q 380 365 351 419 q 456 278 408 310 q 560 246 504 246 q 661 277 615 246 q 733 364 707 308 q 760 488 760 419 q 733 610 760 556 q 661 696 707 665 q 560 726 615 726 m 571 1376 q 697 1337 654 1376 q 739 1235 739 1297 q 608 1029 739 1128 l 481 1081 q 528 1133 511 1107 q 546 1183 546 1160 q 535 1211 546 1201 q 507 1221 525 1221 q 453 1200 478 1221 l 378 1315 q 571 1376 475 1376 z "},"Ơ":{"ha":1156,"x_min":21,"x_max":1147,"o":"m 1106 1193 q 1147 1032 1147 1110 q 1104 892 1147 951 q 983 804 1061 832 q 1063 660 1035 740 q 1090 489 1090 579 q 1022 226 1090 343 q 831 44 953 110 q 556 -22 708 -22 q 281 44 403 -22 q 90 226 158 110 q 21 489 21 343 q 90 750 21 635 q 281 930 158 865 q 556 994 403 994 q 813 938 699 994 q 832 936 819 936 q 890 962 869 936 q 911 1026 911 988 q 883 1113 911 1072 l 1106 1193 m 560 246 q 661 277 615 246 q 733 364 707 308 q 760 488 760 419 q 733 610 760 556 q 661 696 707 665 q 560 726 615 726 q 456 695 504 726 q 380 610 408 664 q 351 488 351 556 q 380 365 351 419 q 456 278 408 310 q 560 246 504 246 z "},"Ớ":{"ha":1156,"x_min":21,"x_max":1147,"o":"m 1106 1193 q 1147 1032 1147 1110 q 1104 892 1147 951 q 983 804 1061 832 q 1063 660 1035 740 q 1090 489 1090 579 q 1022 226 1090 343 q 831 44 953 110 q 556 -22 708 -22 q 281 44 403 -22 q 90 226 158 110 q 21 489 21 343 q 90 750 21 635 q 281 930 158 865 q 556 994 403 994 q 813 938 699 994 q 832 936 819 936 q 890 962 869 936 q 911 1026 911 988 q 883 1113 911 1072 l 1106 1193 m 560 246 q 661 277 615 246 q 733 364 707 308 q 760 488 760 419 q 733 610 760 556 q 661 696 707 665 q 560 726 615 726 q 456 695 504 726 q 380 610 408 664 q 351 488 351 556 q 380 365 351 419 q 456 278 408 310 q 560 246 504 246 m 588 1297 l 822 1214 l 597 1035 l 400 1049 l 588 1297 z "},"Ợ":{"ha":1154,"x_min":21,"x_max":1147,"o":"m 1106 1193 q 1147 1032 1147 1110 q 1104 892 1147 951 q 983 804 1061 832 q 1063 660 1035 740 q 1090 489 1090 579 q 1022 226 1090 343 q 831 44 953 110 q 556 -22 708 -22 q 281 44 403 -22 q 90 226 158 110 q 21 489 21 343 q 90 750 21 635 q 281 930 158 865 q 556 994 403 994 q 813 938 699 994 q 832 936 819 936 q 890 962 869 936 q 911 1026 911 988 q 883 1113 911 1072 l 1106 1193 m 560 246 q 661 277 615 246 q 733 364 707 308 q 760 488 760 419 q 733 610 760 556 q 661 696 707 665 q 560 726 615 726 q 456 695 504 726 q 380 610 408 664 q 351 488 351 556 q 380 365 351 419 q 456 278 408 310 q 560 246 504 246 m 551 -90 q 665 -135 621 -90 q 710 -249 710 -179 q 665 -362 710 -318 q 551 -407 621 -407 q 438 -362 482 -407 q 393 -249 393 -318 q 438 -135 393 -179 q 551 -90 482 -90 z "},"Ờ":{"ha":1156,"x_min":21,"x_max":1147,"o":"m 1106 1193 q 1147 1032 1147 1110 q 1104 892 1147 951 q 983 804 1061 832 q 1063 660 1035 740 q 1090 489 1090 579 q 1022 226 1090 343 q 831 44 953 110 q 556 -22 708 -22 q 281 44 403 -22 q 90 226 158 110 q 21 489 21 343 q 90 750 21 635 q 281 930 158 865 q 556 994 403 994 q 813 938 699 994 q 832 936 819 936 q 890 962 869 936 q 911 1026 911 988 q 883 1113 911 1072 l 1106 1193 m 560 246 q 661 277 615 246 q 733 364 707 308 q 760 488 760 419 q 733 610 760 556 q 661 696 707 665 q 560 726 615 726 q 456 695 504 726 q 380 610 408 664 q 351 488 351 556 q 380 365 351 419 q 456 278 408 310 q 560 246 504 246 m 546 1297 l 700 1049 l 501 1035 l 310 1214 l 546 1297 z "},"Ở":{"ha":1156,"x_min":21,"x_max":1147,"o":"m 1106 1193 q 1147 1032 1147 1110 q 1104 892 1147 951 q 983 804 1061 832 q 1063 660 1035 740 q 1090 489 1090 579 q 1022 226 1090 343 q 831 44 953 110 q 556 -22 708 -22 q 281 44 403 -22 q 90 226 158 110 q 21 489 21 343 q 90 750 21 635 q 281 930 158 865 q 556 994 403 994 q 813 938 699 994 q 832 936 819 936 q 890 962 869 936 q 911 1026 911 988 q 883 1113 911 1072 l 1106 1193 m 560 246 q 661 277 615 246 q 733 364 707 308 q 760 488 760 419 q 733 610 760 556 q 661 696 707 665 q 560 726 615 726 q 456 695 504 726 q 380 610 408 664 q 351 488 351 556 q 380 365 351 419 q 456 278 408 310 q 560 246 504 246 m 571 1376 q 697 1337 654 1376 q 739 1235 739 1297 q 608 1029 739 1128 l 481 1081 q 528 1133 511 1107 q 546 1183 546 1160 q 535 1211 546 1201 q 507 1221 525 1221 q 453 1200 478 1221 l 378 1315 q 571 1376 475 1376 z "},"Ỡ":{"ha":1156,"x_min":21,"x_max":1147,"o":"m 1106 1193 q 1147 1032 1147 1110 q 1104 892 1147 951 q 983 804 1061 832 q 1063 660 1035 740 q 1090 489 1090 579 q 1022 226 1090 343 q 831 44 953 110 q 556 -22 708 -22 q 281 44 403 -22 q 90 226 158 110 q 21 489 21 343 q 90 750 21 635 q 281 930 158 865 q 556 994 403 994 q 813 938 699 994 q 832 936 819 936 q 890 962 869 936 q 911 1026 911 988 q 883 1113 911 1072 l 1106 1193 m 560 246 q 661 277 615 246 q 733 364 707 308 q 760 488 760 419 q 733 610 760 556 q 661 696 707 665 q 560 726 615 726 q 456 695 504 726 q 380 610 408 664 q 351 488 351 556 q 380 365 351 419 q 456 278 408 310 q 560 246 504 246 m 835 1288 q 799 1100 835 1158 q 686 1042 764 1042 q 623 1051 651 1042 q 558 1079 594 1061 q 535 1090 554 1081 q 501 1099 515 1099 q 472 1085 482 1099 q 461 1044 463 1072 l 299 1044 q 335 1232 299 1172 q 449 1292 371 1292 q 513 1281 483 1292 q 576 1254 542 1271 q 632 1235 615 1235 q 663 1247 653 1235 q 674 1288 672 1260 l 835 1288 z "},"Ő":{"ha":1111,"x_min":21,"x_max":1090,"o":"m 556 994 q 831 929 708 994 q 1022 749 953 864 q 1090 489 1090 633 q 1022 226 1090 343 q 831 44 953 110 q 556 -22 708 -22 q 281 44 403 -22 q 90 226 158 110 q 21 489 21 343 q 90 750 21 635 q 281 930 158 865 q 556 994 403 994 m 560 726 q 456 695 504 726 q 380 610 408 664 q 351 488 351 556 q 380 365 351 419 q 456 278 408 310 q 560 246 504 246 q 661 277 615 246 q 733 364 707 308 q 760 488 760 419 q 733 610 760 556 q 661 696 707 665 q 560 726 615 726 m 394 1297 l 619 1224 l 496 1035 l 279 1049 l 394 1297 m 701 1297 l 926 1224 l 803 1035 l 586 1049 l 701 1297 z "},"Ȏ":{"ha":1111,"x_min":21,"x_max":1090,"o":"m 556 994 q 831 929 708 994 q 1022 749 953 864 q 1090 489 1090 633 q 1022 226 1090 343 q 831 44 953 110 q 556 -22 708 -22 q 281 44 403 -22 q 90 226 158 110 q 21 489 21 343 q 90 750 21 635 q 281 930 158 865 q 556 994 403 994 m 560 726 q 456 695 504 726 q 380 610 408 664 q 351 488 351 556 q 380 365 351 419 q 456 278 408 310 q 560 246 504 246 q 661 277 615 246 q 733 364 707 308 q 760 488 760 419 q 733 610 760 556 q 661 696 707 665 q 560 726 615 726 m 299 1044 q 374 1220 304 1154 q 554 1286 443 1286 q 735 1220 665 1286 q 810 1044 804 1154 l 622 1044 q 601 1095 619 1076 q 554 1114 582 1114 q 508 1095 526 1114 q 486 1044 489 1076 l 299 1044 z "},"Ō":{"ha":1111,"x_min":21,"x_max":1090,"o":"m 556 994 q 831 929 708 994 q 1022 749 953 864 q 1090 489 1090 633 q 1022 226 1090 343 q 831 44 953 110 q 556 -22 708 -22 q 281 44 403 -22 q 90 226 158 110 q 21 489 21 343 q 90 750 21 635 q 281 930 158 865 q 556 994 403 994 m 560 726 q 456 695 504 726 q 380 610 408 664 q 351 488 351 556 q 380 365 351 419 q 456 278 408 310 q 560 246 504 246 q 661 277 615 246 q 733 364 707 308 q 760 488 760 419 q 733 610 760 556 q 661 696 707 665 q 560 726 615 726 m 292 1222 l 819 1222 l 819 1044 l 292 1044 l 292 1222 z "},"Ṓ":{"ha":1111,"x_min":21,"x_max":1090,"o":"m 556 994 q 831 929 708 994 q 1022 749 953 864 q 1090 489 1090 633 q 1022 226 1090 343 q 831 44 953 110 q 556 -22 708 -22 q 281 44 403 -22 q 90 226 158 110 q 21 489 21 343 q 90 750 21 635 q 281 930 158 865 q 556 994 403 994 m 560 726 q 456 695 504 726 q 380 610 408 664 q 351 488 351 556 q 380 365 351 419 q 456 278 408 310 q 560 246 504 246 q 661 277 615 246 q 733 364 707 308 q 760 488 760 419 q 733 610 760 556 q 661 696 707 665 q 560 726 615 726 m 321 1210 l 765 1210 l 765 1044 l 321 1044 l 321 1210 m 596 1514 l 789 1401 l 549 1272 l 379 1315 l 596 1514 z "},"Ṑ":{"ha":1111,"x_min":21,"x_max":1090,"o":"m 556 994 q 831 929 708 994 q 1022 749 953 864 q 1090 489 1090 633 q 1022 226 1090 343 q 831 44 953 110 q 556 -22 708 -22 q 281 44 403 -22 q 90 226 158 110 q 21 489 21 343 q 90 750 21 635 q 281 930 158 865 q 556 994 403 994 m 560 726 q 456 695 504 726 q 380 610 408 664 q 351 488 351 556 q 380 365 351 419 q 456 278 408 310 q 560 246 504 246 q 661 277 615 246 q 733 364 707 308 q 760 488 760 419 q 733 610 760 556 q 661 696 707 665 q 560 726 615 726 m 351 1210 l 796 1210 l 796 1044 l 351 1044 l 351 1210 m 507 1514 l 724 1315 l 554 1272 l 314 1401 l 507 1514 z "},"Ǫ":{"ha":1111,"x_min":21,"x_max":1090,"o":"m 1090 489 q 1032 246 1090 356 q 871 68 974 136 q 796 -33 824 18 q 768 -122 768 -83 q 794 -161 768 -161 q 831 -150 811 -161 l 874 -304 q 803 -330 836 -321 q 731 -339 771 -339 q 610 -300 657 -339 q 564 -183 564 -261 q 636 -17 564 -97 q 556 -22 601 -22 q 281 44 403 -22 q 90 226 158 110 q 21 489 21 343 q 90 750 21 635 q 281 930 158 865 q 556 994 403 994 q 831 929 708 994 q 1022 749 953 864 q 1090 489 1090 633 m 351 488 q 380 365 351 419 q 456 278 408 310 q 560 246 504 246 q 661 277 615 246 q 733 364 707 308 q 760 488 760 419 q 733 610 760 556 q 661 696 707 665 q 560 726 615 726 q 456 695 504 726 q 380 610 408 664 q 351 488 351 556 z "},"Ø":{"ha":1111,"x_min":21,"x_max":1090,"o":"m 878 886 q 1034 715 978 819 q 1090 482 1090 610 q 1022 225 1090 339 q 831 46 953 111 q 556 -19 708 -19 q 365 10 453 -19 l 315 -76 l 139 -76 l 228 76 q 76 249 131 144 q 21 482 21 354 q 90 738 21 625 q 281 914 158 850 q 556 978 403 978 q 739 951 649 978 l 796 1049 l 972 1049 l 878 886 m 351 481 q 388 350 351 408 l 596 706 q 560 710 579 710 q 456 680 504 710 q 380 598 408 650 q 351 481 351 546 m 560 249 q 661 279 615 249 q 733 363 707 310 q 760 481 760 415 q 721 619 760 561 l 510 256 q 560 249 535 249 z "},"Ǿ":{"ha":1111,"x_min":21,"x_max":1090,"o":"m 878 886 q 1034 715 978 819 q 1090 482 1090 610 q 1022 225 1090 339 q 831 46 953 111 q 556 -19 708 -19 q 365 10 453 -19 l 315 -76 l 139 -76 l 228 76 q 76 249 131 144 q 21 482 21 354 q 90 738 21 625 q 281 914 158 850 q 556 978 403 978 q 739 951 649 978 l 796 1049 l 972 1049 l 878 886 m 351 481 q 388 350 351 408 l 596 706 q 560 710 579 710 q 456 680 504 710 q 380 598 408 650 q 351 481 351 546 m 560 249 q 661 279 615 249 q 733 363 707 310 q 760 481 760 415 q 721 619 760 561 l 510 256 q 560 249 535 249 m 617 1297 l 851 1214 l 626 1035 l 429 1049 l 617 1297 z "},"Õ":{"ha":1111,"x_min":21,"x_max":1090,"o":"m 556 994 q 831 929 708 994 q 1022 749 953 864 q 1090 489 1090 633 q 1022 226 1090 343 q 831 44 953 110 q 556 -22 708 -22 q 281 44 403 -22 q 90 226 158 110 q 21 489 21 343 q 90 750 21 635 q 281 930 158 865 q 556 994 403 994 m 560 726 q 456 695 504 726 q 380 610 408 664 q 351 488 351 556 q 380 365 351 419 q 456 278 408 310 q 560 246 504 246 q 661 277 615 246 q 733 364 707 308 q 760 488 760 419 q 733 610 760 556 q 661 696 707 665 q 560 726 615 726 m 835 1288 q 799 1100 835 1158 q 686 1042 764 1042 q 623 1051 651 1042 q 558 1079 594 1061 q 535 1090 554 1081 q 501 1099 515 1099 q 472 1085 482 1099 q 461 1044 463 1072 l 299 1044 q 335 1232 299 1172 q 449 1292 371 1292 q 513 1281 483 1292 q 576 1254 542 1271 q 632 1235 615 1235 q 663 1247 653 1235 q 674 1288 672 1260 l 835 1288 z "},"Ṍ":{"ha":1111,"x_min":21,"x_max":1090,"o":"m 556 994 q 831 929 708 994 q 1022 749 953 864 q 1090 489 1090 633 q 1022 226 1090 343 q 831 44 953 110 q 556 -22 708 -22 q 281 44 403 -22 q 90 226 158 110 q 21 489 21 343 q 90 750 21 635 q 281 930 158 865 q 556 994 403 994 m 560 726 q 456 695 504 726 q 380 610 408 664 q 351 488 351 556 q 380 365 351 419 q 456 278 408 310 q 560 246 504 246 q 661 277 615 246 q 733 364 707 308 q 760 488 760 419 q 733 610 760 556 q 661 696 707 665 q 560 726 615 726 z "},"Ṏ":{"ha":1111,"x_min":21,"x_max":1090,"o":"m 556 994 q 831 929 708 994 q 1022 749 953 864 q 1090 489 1090 633 q 1022 226 1090 343 q 831 44 953 110 q 556 -22 708 -22 q 281 44 403 -22 q 90 226 158 110 q 21 489 21 343 q 90 750 21 635 q 281 930 158 865 q 556 994 403 994 m 560 726 q 456 695 504 726 q 380 610 408 664 q 351 488 351 556 q 380 365 351 419 q 456 278 408 310 q 560 246 504 246 q 661 277 615 246 q 733 364 707 308 q 760 488 760 419 q 733 610 760 556 q 661 696 707 665 q 560 726 615 726 z "},"Ȭ":{"ha":1111,"x_min":21,"x_max":1090,"o":"m 556 994 q 831 929 708 994 q 1022 749 953 864 q 1090 489 1090 633 q 1022 226 1090 343 q 831 44 953 110 q 556 -22 708 -22 q 281 44 403 -22 q 90 226 158 110 q 21 489 21 343 q 90 750 21 635 q 281 930 158 865 q 556 994 403 994 m 560 726 q 456 695 504 726 q 380 610 408 664 q 351 488 351 556 q 380 365 351 419 q 456 278 408 310 q 560 246 504 246 q 661 277 615 246 q 733 364 707 308 q 760 488 760 419 q 733 610 760 556 q 661 696 707 665 q 560 726 615 726 z "},"Œ":{"ha":1565,"x_min":21,"x_max":1513,"o":"m 1513 244 l 1513 0 l 554 0 q 281 63 403 0 q 90 235 160 125 q 21 485 21 346 q 90 735 21 624 q 280 910 158 847 q 554 974 401 974 l 1500 974 l 1500 729 l 999 729 l 999 610 l 1454 610 l 1454 365 l 999 365 l 999 244 l 1513 244 m 676 256 l 676 714 l 554 714 q 450 684 496 714 q 378 601 404 654 q 351 483 351 549 q 378 366 351 418 q 450 284 404 314 q 554 254 496 254 l 676 256 z "},"P":{"ha":953,"x_min":69,"x_max":925,"o":"m 526 974 q 821 883 717 974 q 925 625 925 792 q 821 351 925 449 q 526 253 717 253 l 392 253 l 392 0 l 69 0 l 69 974 l 526 974 m 510 497 q 591 528 563 497 q 619 615 619 560 q 591 699 619 669 q 510 729 563 729 l 392 729 l 392 497 l 510 497 z "},"Þ":{"ha":969,"x_min":69,"x_max":942,"o":"m 531 854 q 747 812 654 854 q 891 692 840 769 q 942 510 942 614 q 891 315 942 399 q 747 187 840 232 q 531 142 654 142 l 392 142 l 392 0 l 69 0 l 69 974 l 392 974 l 392 854 l 531 854 m 517 386 q 585 417 560 386 q 611 500 611 449 q 585 580 611 550 q 517 610 560 610 l 392 610 l 392 386 l 517 386 z "},"Q":{"ha":1111,"x_min":21,"x_max":1090,"o":"m 1090 489 q 1042 266 1090 368 q 905 93 993 164 q 701 -6 817 22 l 701 -208 l 410 -208 l 410 -6 q 206 92 294 22 q 69 265 118 163 q 21 489 21 367 q 90 750 21 635 q 281 930 158 865 q 556 994 403 994 q 831 929 708 994 q 1022 749 953 864 q 1090 489 1090 633 m 560 246 q 661 277 615 246 q 733 364 707 308 q 760 488 760 419 q 733 610 760 556 q 661 696 707 665 q 560 726 615 726 q 456 695 504 726 q 380 610 408 664 q 351 488 351 556 q 380 365 351 419 q 456 278 408 310 q 560 246 504 246 z "},"R":{"ha":1007,"x_min":69,"x_max":993,"o":"m 629 0 l 513 253 l 392 253 l 392 0 l 69 0 l 69 974 l 540 974 q 847 883 739 974 q 956 625 956 792 q 916 441 956 519 q 801 317 876 363 l 993 0 l 629 0 m 392 497 l 540 497 q 622 528 593 497 q 650 615 650 560 q 622 699 650 669 q 540 729 593 729 l 392 729 l 392 497 z "},"Ŕ":{"ha":1007,"x_min":69,"x_max":993,"o":"m 629 0 l 513 253 l 392 253 l 392 0 l 69 0 l 69 974 l 540 974 q 847 883 739 974 q 956 625 956 792 q 916 441 956 519 q 801 317 876 363 l 993 0 l 629 0 m 392 497 l 540 497 q 622 528 593 497 q 650 615 650 560 q 622 699 650 669 q 540 729 593 729 l 392 729 l 392 497 m 535 1297 l 769 1214 l 544 1035 l 347 1049 l 535 1297 z "},"Ř":{"ha":1007,"x_min":69,"x_max":993,"o":"m 629 0 l 513 253 l 392 253 l 392 0 l 69 0 l 69 974 l 540 974 q 847 883 739 974 q 956 625 956 792 q 916 441 956 519 q 801 317 876 363 l 993 0 l 629 0 m 392 497 l 540 497 q 622 528 593 497 q 650 615 650 560 q 622 699 650 669 q 540 729 593 729 l 392 729 l 392 497 m 593 1269 l 788 1269 l 633 1044 l 372 1044 l 218 1269 l 413 1269 l 503 1171 l 593 1269 z "},"Ŗ":{"ha":1007,"x_min":69,"x_max":993,"o":"m 629 0 l 513 253 l 392 253 l 392 0 l 69 0 l 69 974 l 540 974 q 847 883 739 974 q 956 625 956 792 q 916 441 956 519 q 801 317 876 363 l 993 0 l 629 0 m 392 497 l 540 497 q 622 528 593 497 q 650 615 650 560 q 622 699 650 669 q 540 729 593 729 l 392 729 l 392 497 m 374 -85 l 617 -85 l 497 -339 l 331 -339 l 374 -85 z "},"Ȑ":{"ha":1007,"x_min":69,"x_max":993,"o":"m 629 0 l 513 253 l 392 253 l 392 0 l 69 0 l 69 974 l 540 974 q 847 883 739 974 q 956 625 956 792 q 916 441 956 519 q 801 317 876 363 l 993 0 l 629 0 m 392 497 l 540 497 q 622 528 593 497 q 650 615 650 560 q 622 699 650 669 q 540 729 593 729 l 392 729 l 392 497 m 374 1293 l 488 1044 l 272 1031 l 149 1219 l 374 1293 m 681 1293 l 794 1044 l 579 1031 l 456 1219 l 681 1293 z "},"Ṛ":{"ha":1007,"x_min":69,"x_max":993,"o":"m 629 0 l 513 253 l 392 253 l 392 0 l 69 0 l 69 974 l 540 974 q 847 883 739 974 q 956 625 956 792 q 916 441 956 519 q 801 317 876 363 l 993 0 l 629 0 m 392 497 l 540 497 q 622 528 593 497 q 650 615 650 560 q 622 699 650 669 q 540 729 593 729 l 392 729 l 392 497 m 494 -90 q 608 -135 564 -90 q 653 -249 653 -179 q 608 -362 653 -318 q 494 -407 564 -407 q 381 -362 425 -407 q 336 -249 336 -318 q 381 -135 336 -179 q 494 -90 425 -90 z "},"Ȓ":{"ha":1007,"x_min":69,"x_max":993,"o":"m 629 0 l 513 253 l 392 253 l 392 0 l 69 0 l 69 974 l 540 974 q 847 883 739 974 q 956 625 956 792 q 916 441 956 519 q 801 317 876 363 l 993 0 l 629 0 m 392 497 l 540 497 q 622 528 593 497 q 650 615 650 560 q 622 699 650 669 q 540 729 593 729 l 392 729 l 392 497 m 246 1044 q 321 1220 251 1154 q 501 1286 390 1286 q 682 1220 613 1286 q 757 1044 751 1154 l 569 1044 q 548 1095 567 1076 q 501 1114 529 1114 q 455 1095 474 1114 q 433 1044 436 1076 l 246 1044 z "},"Ṟ":{"ha":1007,"x_min":69,"x_max":993,"o":"m 629 0 l 513 253 l 392 253 l 392 0 l 69 0 l 69 974 l 540 974 q 847 883 739 974 q 956 625 956 792 q 916 441 956 519 q 801 317 876 363 l 993 0 l 629 0 m 392 497 l 540 497 q 622 528 593 497 q 650 615 650 560 q 622 699 650 669 q 540 729 593 729 l 392 729 l 392 497 m 276 -104 l 721 -104 l 721 -282 l 276 -282 l 276 -104 z "},"S":{"ha":922,"x_min":11,"x_max":915,"o":"m 799 636 q 622 717 719 682 q 464 751 525 751 q 404 708 404 751 q 442 657 404 675 q 564 617 481 639 q 737 558 668 588 q 857 466 806 529 q 908 300 908 403 q 853 123 908 194 q 706 17 799 51 q 499 -18 613 -18 q 238 24 369 -18 q 11 140 107 67 l 131 383 q 315 274 204 319 q 501 229 426 229 q 558 242 538 229 q 579 283 579 256 q 540 335 579 317 q 415 375 500 354 q 244 430 313 401 q 125 518 175 458 q 75 678 75 578 q 126 848 75 775 q 272 960 178 921 q 492 999 367 999 q 719 967 606 999 q 915 882 832 935 l 799 636 z "},"Ś":{"ha":922,"x_min":11,"x_max":915,"o":"m 799 636 q 622 717 719 682 q 464 751 525 751 q 404 708 404 751 q 442 657 404 675 q 564 617 481 639 q 737 558 668 588 q 857 466 806 529 q 908 300 908 403 q 853 123 908 194 q 706 17 799 51 q 499 -18 613 -18 q 238 24 369 -18 q 11 140 107 67 l 131 383 q 315 274 204 319 q 501 229 426 229 q 558 242 538 229 q 579 283 579 256 q 540 335 579 317 q 415 375 500 354 q 244 430 313 401 q 125 518 175 458 q 75 678 75 578 q 126 848 75 775 q 272 960 178 921 q 492 999 367 999 q 719 967 606 999 q 915 882 832 935 l 799 636 m 531 1297 l 765 1214 l 540 1035 l 343 1049 l 531 1297 z "},"Ṥ":{"ha":922,"x_min":11,"x_max":915,"o":"m 799 636 q 622 717 719 682 q 464 751 525 751 q 404 708 404 751 q 442 657 404 675 q 564 617 481 639 q 737 558 668 588 q 857 466 806 529 q 908 300 908 403 q 853 123 908 194 q 706 17 799 51 q 499 -18 613 -18 q 238 24 369 -18 q 11 140 107 67 l 131 383 q 315 274 204 319 q 501 229 426 229 q 558 242 538 229 q 579 283 579 256 q 540 335 579 317 q 415 375 500 354 q 244 430 313 401 q 125 518 175 458 q 75 678 75 578 q 126 848 75 775 q 272 960 178 921 q 492 999 367 999 q 719 967 606 999 q 915 882 832 935 l 799 636 z "},"Ꞌ":{"ha":475,"x_min":76,"x_max":399,"o":"m 76 974 l 399 974 l 357 411 l 76 411 l 76 974 z "},"Š":{"ha":922,"x_min":11,"x_max":915,"o":"m 799 636 q 622 717 719 682 q 464 751 525 751 q 404 708 404 751 q 442 657 404 675 q 564 617 481 639 q 737 558 668 588 q 857 466 806 529 q 908 300 908 403 q 853 123 908 194 q 706 17 799 51 q 499 -18 613 -18 q 238 24 369 -18 q 11 140 107 67 l 131 383 q 315 274 204 319 q 501 229 426 229 q 558 242 538 229 q 579 283 579 256 q 540 335 579 317 q 415 375 500 354 q 244 430 313 401 q 125 518 175 458 q 75 678 75 578 q 126 848 75 775 q 272 960 178 921 q 492 999 367 999 q 719 967 606 999 q 915 882 832 935 l 799 636 m 589 1269 l 783 1269 l 629 1044 l 368 1044 l 214 1269 l 408 1269 l 499 1171 l 589 1269 z "},"Ṧ":{"ha":922,"x_min":11,"x_max":915,"o":"m 799 636 q 622 717 719 682 q 464 751 525 751 q 404 708 404 751 q 442 657 404 675 q 564 617 481 639 q 737 558 668 588 q 857 466 806 529 q 908 300 908 403 q 853 123 908 194 q 706 17 799 51 q 499 -18 613 -18 q 238 24 369 -18 q 11 140 107 67 l 131 383 q 315 274 204 319 q 501 229 426 229 q 558 242 538 229 q 579 283 579 256 q 540 335 579 317 q 415 375 500 354 q 244 430 313 401 q 125 518 175 458 q 75 678 75 578 q 126 848 75 775 q 272 960 178 921 q 492 999 367 999 q 719 967 606 999 q 915 882 832 935 l 799 636 z "},"Ş":{"ha":922,"x_min":11,"x_max":915,"o":"m 404 708 q 442 657 404 675 q 564 617 481 639 q 737 558 668 588 q 857 466 806 529 q 908 300 908 403 q 812 79 908 160 q 563 -15 715 -1 l 538 -82 q 653 -197 653 -112 q 597 -304 653 -269 q 463 -339 542 -339 q 297 -312 376 -339 l 339 -187 q 401 -197 367 -197 q 442 -190 426 -197 q 457 -171 457 -183 q 434 -147 457 -154 q 378 -139 411 -139 l 354 -139 l 396 -11 q 188 42 289 3 q 11 140 88 81 l 131 383 q 315 274 204 319 q 501 229 426 229 q 558 242 538 229 q 579 283 579 256 q 540 335 579 317 q 415 375 500 354 q 244 430 313 401 q 125 518 175 458 q 75 678 75 578 q 126 848 75 775 q 272 960 178 921 q 492 999 367 999 q 719 967 606 999 q 915 882 832 935 l 799 636 q 622 717 719 682 q 464 751 525 751 q 404 708 404 751 z "},"Ŝ":{"ha":922,"x_min":11,"x_max":915,"o":"m 799 636 q 622 717 719 682 q 464 751 525 751 q 404 708 404 751 q 442 657 404 675 q 564 617 481 639 q 737 558 668 588 q 857 466 806 529 q 908 300 908 403 q 853 123 908 194 q 706 17 799 51 q 499 -18 613 -18 q 238 24 369 -18 q 11 140 107 67 l 131 383 q 315 274 204 319 q 501 229 426 229 q 558 242 538 229 q 579 283 579 256 q 540 335 579 317 q 415 375 500 354 q 244 430 313 401 q 125 518 175 458 q 75 678 75 578 q 126 848 75 775 q 272 960 178 921 q 492 999 367 999 q 719 967 606 999 q 915 882 832 935 l 799 636 m 783 1044 l 589 1044 l 499 1144 l 408 1044 l 214 1044 l 368 1269 l 629 1269 l 783 1044 z "},"Ș":{"ha":922,"x_min":11,"x_max":915,"o":"m 799 636 q 622 717 719 682 q 464 751 525 751 q 404 708 404 751 q 442 657 404 675 q 564 617 481 639 q 737 558 668 588 q 857 466 806 529 q 908 300 908 403 q 853 123 908 194 q 706 17 799 51 q 499 -18 613 -18 q 238 24 369 -18 q 11 140 107 67 l 131 383 q 315 274 204 319 q 501 229 426 229 q 558 242 538 229 q 579 283 579 256 q 540 335 579 317 q 415 375 500 354 q 244 430 313 401 q 125 518 175 458 q 75 678 75 578 q 126 848 75 775 q 272 960 178 921 q 492 999 367 999 q 719 967 606 999 q 915 882 832 935 l 799 636 m 354 -85 l 597 -85 l 478 -339 l 311 -339 l 354 -85 z "},"Ṡ":{"ha":922,"x_min":11,"x_max":915,"o":"m 799 636 q 622 717 719 682 q 464 751 525 751 q 404 708 404 751 q 442 657 404 675 q 564 617 481 639 q 737 558 668 588 q 857 466 806 529 q 908 300 908 403 q 853 123 908 194 q 706 17 799 51 q 499 -18 613 -18 q 238 24 369 -18 q 11 140 107 67 l 131 383 q 315 274 204 319 q 501 229 426 229 q 558 242 538 229 q 579 283 579 256 q 540 335 579 317 q 415 375 500 354 q 244 430 313 401 q 125 518 175 458 q 75 678 75 578 q 126 848 75 775 q 272 960 178 921 q 492 999 367 999 q 719 967 606 999 q 915 882 832 935 l 799 636 m 499 1361 q 613 1317 568 1361 q 657 1203 657 1272 q 613 1089 657 1133 q 499 1044 568 1044 q 385 1089 429 1044 q 340 1203 340 1133 q 385 1317 340 1272 q 499 1361 429 1361 z "},"Ṣ":{"ha":922,"x_min":11,"x_max":915,"o":"m 799 636 q 622 717 719 682 q 464 751 525 751 q 404 708 404 751 q 442 657 404 675 q 564 617 481 639 q 737 558 668 588 q 857 466 806 529 q 908 300 908 403 q 853 123 908 194 q 706 17 799 51 q 499 -18 613 -18 q 238 24 369 -18 q 11 140 107 67 l 131 383 q 315 274 204 319 q 501 229 426 229 q 558 242 538 229 q 579 283 579 256 q 540 335 579 317 q 415 375 500 354 q 244 430 313 401 q 125 518 175 458 q 75 678 75 578 q 126 848 75 775 q 272 960 178 921 q 492 999 367 999 q 719 967 606 999 q 915 882 832 935 l 799 636 m 475 -90 q 589 -135 544 -90 q 633 -249 633 -179 q 589 -362 633 -318 q 475 -407 544 -407 q 361 -362 406 -407 q 317 -249 317 -318 q 361 -135 317 -179 q 475 -90 406 -90 z "},"Ṩ":{"ha":922,"x_min":11,"x_max":915,"o":"m 799 636 q 622 717 719 682 q 464 751 525 751 q 404 708 404 751 q 442 657 404 675 q 564 617 481 639 q 737 558 668 588 q 857 466 806 529 q 908 300 908 403 q 853 123 908 194 q 706 17 799 51 q 499 -18 613 -18 q 238 24 369 -18 q 11 140 107 67 l 131 383 q 315 274 204 319 q 501 229 426 229 q 558 242 538 229 q 579 283 579 256 q 540 335 579 317 q 415 375 500 354 q 244 430 313 401 q 125 518 175 458 q 75 678 75 578 q 126 848 75 775 q 272 960 178 921 q 492 999 367 999 q 719 967 606 999 q 915 882 832 935 l 799 636 m 475 -90 q 589 -135 544 -90 q 633 -249 633 -179 q 589 -362 633 -318 q 475 -407 544 -407 q 361 -362 406 -407 q 317 -249 317 -318 q 361 -135 317 -179 q 475 -90 406 -90 m 479 1361 q 593 1317 549 1361 q 638 1203 638 1272 q 593 1089 638 1133 q 479 1044 549 1044 q 365 1089 410 1044 q 321 1203 321 1133 q 365 1317 321 1272 q 479 1361 410 1361 z "},"ẞ":{"ha":1022,"x_min":42,"x_max":994,"o":"m 810 544 q 946 447 897 514 q 994 289 994 381 q 893 78 994 156 q 597 0 792 0 l 483 0 l 483 236 l 540 236 q 629 259 597 236 q 661 321 661 282 q 629 381 661 360 q 540 403 597 403 l 518 403 l 518 569 l 644 725 q 574 732 607 732 q 418 674 474 732 q 363 513 363 615 l 363 0 l 42 0 l 42 485 q 101 755 42 642 q 274 928 161 868 q 544 988 388 988 q 740 962 647 988 q 906 890 832 936 l 906 669 l 810 544 z "},"Ə":{"ha":1085,"x_min":31,"x_max":1050,"o":"m 529 994 q 797 929 678 994 q 983 749 915 864 q 1050 489 1050 633 q 983 226 1050 343 q 797 44 915 110 q 531 -22 679 -22 q 283 33 388 -22 q 117 175 179 88 q 31 367 56 263 l 686 632 q 620 702 660 678 q 535 726 581 726 q 428 694 476 726 q 353 608 381 663 l 132 838 q 306 953 204 913 q 529 994 408 994 m 533 246 q 663 303 615 246 q 718 453 711 360 l 392 318 q 453 265 417 285 q 533 246 490 246 z "},"T":{"ha":989,"x_min":14,"x_max":961,"o":"m 881 640 q 649 717 771 694 l 649 0 l 326 0 l 326 717 q 94 640 203 694 l 14 878 q 238 965 117 935 q 486 994 358 994 q 735 964 614 994 q 961 876 857 933 l 881 640 z "},"Ŧ":{"ha":989,"x_min":14,"x_max":961,"o":"m 881 640 q 649 717 771 694 l 649 499 l 801 499 l 801 333 l 649 333 l 649 0 l 326 0 l 326 333 l 169 333 l 169 499 l 326 499 l 326 717 q 94 640 203 694 l 14 878 q 238 965 117 935 q 486 994 358 994 q 735 964 614 994 q 961 876 857 933 l 881 640 z "},"Ť":{"ha":989,"x_min":14,"x_max":961,"o":"m 881 640 q 649 717 771 694 l 649 0 l 326 0 l 326 717 q 94 640 203 694 l 14 878 q 238 965 117 935 q 486 994 358 994 q 735 964 614 994 q 961 876 857 933 l 881 640 m 585 1269 l 779 1269 l 625 1044 l 364 1044 l 210 1269 l 404 1269 l 494 1171 l 585 1269 z "},"Ţ":{"ha":989,"x_min":14,"x_max":961,"o":"m 576 0 l 546 -82 q 661 -197 661 -112 q 606 -304 661 -269 q 471 -339 550 -339 q 306 -312 385 -339 l 347 -187 q 410 -197 375 -197 q 450 -190 435 -197 q 465 -171 465 -183 q 442 -147 465 -154 q 386 -139 419 -139 l 363 -139 l 408 0 l 326 0 l 326 717 q 94 640 203 694 l 14 878 q 238 965 117 935 q 486 994 358 994 q 735 964 614 994 q 961 876 857 933 l 881 640 q 649 717 771 694 l 649 0 l 576 0 z "},"Ț":{"ha":989,"x_min":14,"x_max":961,"o":"m 881 640 q 649 717 771 694 l 649 0 l 326 0 l 326 717 q 94 640 203 694 l 14 878 q 238 965 117 935 q 486 994 358 994 q 735 964 614 994 q 961 876 857 933 l 881 640 m 363 -85 l 606 -85 l 486 -339 l 319 -339 l 363 -85 z "},"Ṭ":{"ha":989,"x_min":14,"x_max":961,"o":"m 881 640 q 649 717 771 694 l 649 0 l 326 0 l 326 717 q 94 640 203 694 l 14 878 q 238 965 117 935 q 486 994 358 994 q 735 964 614 994 q 961 876 857 933 l 881 640 m 483 -90 q 597 -135 553 -90 q 642 -249 642 -179 q 597 -362 642 -318 q 483 -407 553 -407 q 369 -362 414 -407 q 325 -249 325 -318 q 369 -135 325 -179 q 483 -90 414 -90 z "},"Ṯ":{"ha":989,"x_min":14,"x_max":961,"o":"m 881 640 q 649 717 771 694 l 649 0 l 326 0 l 326 717 q 94 640 203 694 l 14 878 q 238 965 117 935 q 486 994 358 994 q 735 964 614 994 q 961 876 857 933 l 881 640 m 265 -104 l 710 -104 l 710 -282 l 265 -282 l 265 -104 z "},"U":{"ha":1057,"x_min":56,"x_max":988,"o":"m 988 974 l 988 0 l 665 0 l 665 140 q 547 20 619 63 q 382 -22 474 -22 q 210 23 283 -22 q 96 152 136 68 q 56 347 56 236 l 56 974 l 382 974 l 382 424 q 417 310 382 353 q 511 267 451 267 q 624 313 582 267 q 665 438 665 360 l 665 974 l 988 974 z "},"Ú":{"ha":1057,"x_min":56,"x_max":988,"o":"m 988 974 l 988 0 l 665 0 l 665 140 q 547 20 619 63 q 382 -22 474 -22 q 210 23 283 -22 q 96 152 136 68 q 56 347 56 236 l 56 974 l 382 974 l 382 424 q 417 310 382 353 q 511 267 451 267 q 624 313 582 267 q 665 438 665 360 l 665 974 l 988 974 m 561 1297 l 796 1214 l 571 1035 l 374 1049 l 561 1297 z "},"Ŭ":{"ha":1057,"x_min":56,"x_max":988,"o":"m 988 974 l 988 0 l 665 0 l 665 140 q 547 20 619 63 q 382 -22 474 -22 q 210 23 283 -22 q 96 152 136 68 q 56 347 56 236 l 56 974 l 382 974 l 382 424 q 417 310 382 353 q 511 267 451 267 q 624 313 582 267 q 665 438 665 360 l 665 974 l 988 974 m 461 1286 q 483 1235 464 1254 q 529 1217 501 1217 q 576 1235 557 1217 q 597 1286 594 1254 l 785 1286 q 710 1110 779 1176 q 529 1044 640 1044 q 349 1110 418 1044 q 274 1286 279 1176 l 461 1286 z "},"Û":{"ha":1057,"x_min":56,"x_max":988,"o":"m 988 974 l 988 0 l 665 0 l 665 140 q 547 20 619 63 q 382 -22 474 -22 q 210 23 283 -22 q 96 152 136 68 q 56 347 56 236 l 56 974 l 382 974 l 382 424 q 417 310 382 353 q 511 267 451 267 q 624 313 582 267 q 665 438 665 360 l 665 974 l 988 974 m 814 1044 l 619 1044 l 529 1144 l 439 1044 l 244 1044 l 399 1269 l 660 1269 l 814 1044 z "},"Ȕ":{"ha":1057,"x_min":56,"x_max":988,"o":"m 988 974 l 988 0 l 665 0 l 665 140 q 547 20 619 63 q 382 -22 474 -22 q 210 23 283 -22 q 96 152 136 68 q 56 347 56 236 l 56 974 l 382 974 l 382 424 q 417 310 382 353 q 511 267 451 267 q 624 313 582 267 q 665 438 665 360 l 665 974 l 988 974 m 400 1293 l 514 1044 l 299 1031 l 175 1219 l 400 1293 m 707 1293 l 821 1044 l 606 1031 l 482 1219 l 707 1293 z "},"Ü":{"ha":1057,"x_min":56,"x_max":988,"o":"m 988 974 l 988 0 l 665 0 l 665 140 q 547 20 619 63 q 382 -22 474 -22 q 210 23 283 -22 q 96 152 136 68 q 56 347 56 236 l 56 974 l 382 974 l 382 424 q 417 310 382 353 q 511 267 451 267 q 624 313 582 267 q 665 438 665 360 l 665 974 l 988 974 m 389 1290 q 477 1256 443 1290 q 511 1167 511 1221 q 477 1079 511 1114 q 389 1044 443 1044 q 301 1079 335 1044 q 267 1167 267 1114 q 301 1256 267 1221 q 389 1290 335 1290 m 669 1290 q 758 1256 724 1290 q 792 1167 792 1221 q 758 1079 792 1114 q 669 1044 724 1044 q 581 1079 615 1044 q 547 1167 547 1114 q 581 1256 547 1221 q 669 1290 615 1290 z "},"Ụ":{"ha":1057,"x_min":56,"x_max":988,"o":"m 988 974 l 988 0 l 665 0 l 665 140 q 547 20 619 63 q 382 -22 474 -22 q 210 23 283 -22 q 96 152 136 68 q 56 347 56 236 l 56 974 l 382 974 l 382 424 q 417 310 382 353 q 511 267 451 267 q 624 313 582 267 q 665 438 665 360 l 665 974 l 988 974 m 525 -90 q 639 -135 594 -90 q 683 -249 683 -179 q 639 -362 683 -318 q 525 -407 594 -407 q 411 -362 456 -407 q 367 -249 367 -318 q 411 -135 367 -179 q 525 -90 456 -90 z "},"Ù":{"ha":1057,"x_min":56,"x_max":988,"o":"m 988 974 l 988 0 l 665 0 l 665 140 q 547 20 619 63 q 382 -22 474 -22 q 210 23 283 -22 q 96 152 136 68 q 56 347 56 236 l 56 974 l 382 974 l 382 424 q 417 310 382 353 q 511 267 451 267 q 624 313 582 267 q 665 438 665 360 l 665 974 l 988 974 m 519 1297 l 674 1049 l 475 1035 l 283 1214 l 519 1297 z "},"Ủ":{"ha":1057,"x_min":56,"x_max":988,"o":"m 988 974 l 988 0 l 665 0 l 665 140 q 547 20 619 63 q 382 -22 474 -22 q 210 23 283 -22 q 96 152 136 68 q 56 347 56 236 l 56 974 l 382 974 l 382 424 q 417 310 382 353 q 511 267 451 267 q 624 313 582 267 q 665 438 665 360 l 665 974 l 988 974 m 544 1376 q 670 1337 628 1376 q 713 1235 713 1297 q 582 1029 713 1128 l 454 1081 q 502 1133 485 1107 q 519 1183 519 1160 q 509 1211 519 1201 q 481 1221 499 1221 q 426 1200 451 1221 l 351 1315 q 544 1376 449 1376 z "},"Ư":{"ha":1131,"x_min":56,"x_max":1168,"o":"m 1135 1193 q 1168 1042 1168 1108 q 1122 910 1168 963 q 988 838 1076 858 l 988 0 l 665 0 l 665 140 q 547 20 619 63 q 382 -22 474 -22 q 210 23 283 -22 q 96 152 136 68 q 56 347 56 236 l 56 974 l 382 974 l 382 424 q 417 310 382 353 q 511 267 451 267 q 624 313 582 267 q 665 438 665 360 l 665 974 l 876 974 q 928 994 911 974 q 946 1044 946 1014 q 940 1083 946 1064 q 922 1114 933 1101 l 1135 1193 z "},"Ứ":{"ha":1131,"x_min":56,"x_max":1168,"o":"m 1135 1193 q 1168 1042 1168 1108 q 1122 910 1168 963 q 988 838 1076 858 l 988 0 l 665 0 l 665 140 q 547 20 619 63 q 382 -22 474 -22 q 210 23 283 -22 q 96 152 136 68 q 56 347 56 236 l 56 974 l 382 974 l 382 424 q 417 310 382 353 q 511 267 451 267 q 624 313 582 267 q 665 438 665 360 l 665 974 l 876 974 q 928 994 911 974 q 946 1044 946 1014 q 940 1083 946 1064 q 922 1114 933 1101 l 1135 1193 m 561 1297 l 796 1214 l 571 1035 l 374 1049 l 561 1297 z "},"Ự":{"ha":1128,"x_min":56,"x_max":1168,"o":"m 1135 1193 q 1168 1042 1168 1108 q 1122 910 1168 963 q 988 838 1076 858 l 988 0 l 665 0 l 665 140 q 547 20 619 63 q 382 -22 474 -22 q 210 23 283 -22 q 96 152 136 68 q 56 347 56 236 l 56 974 l 382 974 l 382 424 q 417 310 382 353 q 511 267 451 267 q 624 313 582 267 q 665 438 665 360 l 665 974 l 876 974 q 928 994 911 974 q 946 1044 946 1014 q 940 1083 946 1064 q 922 1114 933 1101 l 1135 1193 m 525 -90 q 639 -135 594 -90 q 683 -249 683 -179 q 639 -362 683 -318 q 525 -407 594 -407 q 411 -362 456 -407 q 367 -249 367 -318 q 411 -135 367 -179 q 525 -90 456 -90 z "},"Ừ":{"ha":1131,"x_min":56,"x_max":1168,"o":"m 1135 1193 q 1168 1042 1168 1108 q 1122 910 1168 963 q 988 838 1076 858 l 988 0 l 665 0 l 665 140 q 547 20 619 63 q 382 -22 474 -22 q 210 23 283 -22 q 96 152 136 68 q 56 347 56 236 l 56 974 l 382 974 l 382 424 q 417 310 382 353 q 511 267 451 267 q 624 313 582 267 q 665 438 665 360 l 665 974 l 876 974 q 928 994 911 974 q 946 1044 946 1014 q 940 1083 946 1064 q 922 1114 933 1101 l 1135 1193 m 519 1297 l 674 1049 l 475 1035 l 283 1214 l 519 1297 z "},"Ử":{"ha":1131,"x_min":56,"x_max":1168,"o":"m 1135 1193 q 1168 1042 1168 1108 q 1122 910 1168 963 q 988 838 1076 858 l 988 0 l 665 0 l 665 140 q 547 20 619 63 q 382 -22 474 -22 q 210 23 283 -22 q 96 152 136 68 q 56 347 56 236 l 56 974 l 382 974 l 382 424 q 417 310 382 353 q 511 267 451 267 q 624 313 582 267 q 665 438 665 360 l 665 974 l 876 974 q 928 994 911 974 q 946 1044 946 1014 q 940 1083 946 1064 q 922 1114 933 1101 l 1135 1193 m 544 1376 q 670 1337 628 1376 q 713 1235 713 1297 q 582 1029 713 1128 l 454 1081 q 502 1133 485 1107 q 519 1183 519 1160 q 509 1211 519 1201 q 481 1221 499 1221 q 426 1200 451 1221 l 351 1315 q 544 1376 449 1376 z "},"Ữ":{"ha":1131,"x_min":56,"x_max":1168,"o":"m 1135 1193 q 1168 1042 1168 1108 q 1122 910 1168 963 q 988 838 1076 858 l 988 0 l 665 0 l 665 140 q 547 20 619 63 q 382 -22 474 -22 q 210 23 283 -22 q 96 152 136 68 q 56 347 56 236 l 56 974 l 382 974 l 382 424 q 417 310 382 353 q 511 267 451 267 q 624 313 582 267 q 665 438 665 360 l 665 974 l 876 974 q 928 994 911 974 q 946 1044 946 1014 q 940 1083 946 1064 q 922 1114 933 1101 l 1135 1193 m 808 1288 q 773 1100 808 1158 q 660 1042 738 1042 q 597 1051 625 1042 q 532 1079 568 1061 q 508 1090 528 1081 q 475 1099 489 1099 q 446 1085 456 1099 q 435 1044 436 1072 l 272 1044 q 308 1232 272 1172 q 422 1292 344 1292 q 486 1281 457 1292 q 550 1254 515 1271 q 606 1235 589 1235 q 636 1247 626 1235 q 647 1288 646 1260 l 808 1288 z "},"Ű":{"ha":1057,"x_min":56,"x_max":988,"o":"m 988 974 l 988 0 l 665 0 l 665 140 q 547 20 619 63 q 382 -22 474 -22 q 210 23 283 -22 q 96 152 136 68 q 56 347 56 236 l 56 974 l 382 974 l 382 424 q 417 310 382 353 q 511 267 451 267 q 624 313 582 267 q 665 438 665 360 l 665 974 l 988 974 m 368 1297 l 593 1224 l 469 1035 l 253 1049 l 368 1297 m 675 1297 l 900 1224 l 776 1035 l 560 1049 l 675 1297 z "},"Ȗ":{"ha":1057,"x_min":56,"x_max":988,"o":"m 988 974 l 988 0 l 665 0 l 665 140 q 547 20 619 63 q 382 -22 474 -22 q 210 23 283 -22 q 96 152 136 68 q 56 347 56 236 l 56 974 l 382 974 l 382 424 q 417 310 382 353 q 511 267 451 267 q 624 313 582 267 q 665 438 665 360 l 665 974 l 988 974 m 272 1044 q 347 1220 278 1154 q 528 1286 417 1286 q 708 1220 639 1286 q 783 1044 778 1154 l 596 1044 q 574 1095 593 1076 q 528 1114 556 1114 q 481 1095 500 1114 q 460 1044 463 1076 l 272 1044 z "},"Ū":{"ha":1057,"x_min":56,"x_max":988,"o":"m 988 974 l 988 0 l 665 0 l 665 140 q 547 20 619 63 q 382 -22 474 -22 q 210 23 283 -22 q 96 152 136 68 q 56 347 56 236 l 56 974 l 382 974 l 382 424 q 417 310 382 353 q 511 267 451 267 q 624 313 582 267 q 665 438 665 360 l 665 974 l 988 974 m 265 1222 l 793 1222 l 793 1044 l 265 1044 l 265 1222 z "},"Ṻ":{"ha":1057,"x_min":56,"x_max":988,"o":"m 988 974 l 988 0 l 665 0 l 665 140 q 547 20 619 63 q 382 -22 474 -22 q 210 23 283 -22 q 96 152 136 68 q 56 347 56 236 l 56 974 l 382 974 l 382 424 q 417 310 382 353 q 511 267 451 267 q 624 313 582 267 q 665 438 665 360 l 665 974 l 988 974 z "},"Ų":{"ha":1057,"x_min":56,"x_max":988,"o":"m 892 0 q 796 -125 796 -67 q 824 -161 796 -161 q 858 -150 839 -161 l 901 -304 q 753 -339 824 -339 q 633 -293 674 -339 q 592 -176 592 -247 q 665 4 592 -86 l 665 140 q 547 20 619 63 q 382 -22 474 -22 q 210 23 283 -22 q 96 152 136 68 q 56 347 56 236 l 56 974 l 382 974 l 382 424 q 417 310 382 353 q 511 267 451 267 q 624 313 582 267 q 665 438 665 360 l 665 974 l 988 974 l 988 0 l 892 0 z "},"Ů":{"ha":1057,"x_min":56,"x_max":988,"o":"m 988 974 l 988 0 l 665 0 l 665 140 q 547 20 619 63 q 382 -22 474 -22 q 210 23 283 -22 q 96 152 136 68 q 56 347 56 236 l 56 974 l 382 974 l 382 424 q 417 310 382 353 q 511 267 451 267 q 624 313 582 267 q 665 438 665 360 l 665 974 l 988 974 m 529 1363 q 651 1313 601 1363 q 701 1190 701 1263 q 651 1068 701 1118 q 529 1018 601 1018 q 407 1068 457 1018 q 357 1190 357 1118 q 407 1313 357 1263 q 529 1363 457 1363 m 529 1244 q 490 1229 506 1244 q 475 1190 475 1214 q 490 1152 475 1168 q 529 1136 506 1136 q 567 1152 551 1136 q 583 1190 583 1168 q 567 1229 583 1214 q 529 1244 551 1244 z "},"Ũ":{"ha":1057,"x_min":56,"x_max":988,"o":"m 988 974 l 988 0 l 665 0 l 665 140 q 547 20 619 63 q 382 -22 474 -22 q 210 23 283 -22 q 96 152 136 68 q 56 347 56 236 l 56 974 l 382 974 l 382 424 q 417 310 382 353 q 511 267 451 267 q 624 313 582 267 q 665 438 665 360 l 665 974 l 988 974 m 808 1288 q 773 1100 808 1158 q 660 1042 738 1042 q 597 1051 625 1042 q 532 1079 568 1061 q 508 1090 528 1081 q 475 1099 489 1099 q 446 1085 456 1099 q 435 1044 436 1072 l 272 1044 q 308 1232 272 1172 q 422 1292 344 1292 q 486 1281 457 1292 q 550 1254 515 1271 q 606 1235 589 1235 q 636 1247 626 1235 q 647 1288 646 1260 l 808 1288 z "},"Ṹ":{"ha":1057,"x_min":56,"x_max":988,"o":"m 988 974 l 988 0 l 665 0 l 665 140 q 547 20 619 63 q 382 -22 474 -22 q 210 23 283 -22 q 96 152 136 68 q 56 347 56 236 l 56 974 l 382 974 l 382 424 q 417 310 382 353 q 511 267 451 267 q 624 313 582 267 q 665 438 665 360 l 665 974 l 988 974 m 797 1246 q 763 1091 797 1140 q 650 1042 728 1042 q 580 1051 613 1042 q 506 1076 547 1060 q 440 1094 457 1094 q 408 1083 417 1094 q 399 1044 399 1071 l 260 1044 q 294 1200 260 1150 q 407 1250 329 1250 q 478 1241 446 1250 q 553 1215 511 1232 q 588 1203 571 1208 q 617 1197 606 1197 q 649 1209 639 1197 q 660 1246 658 1221 l 797 1246 m 583 1549 l 776 1436 l 536 1307 l 367 1350 l 583 1549 z "},"V":{"ha":1061,"x_min":-7,"x_max":1068,"o":"m -7 974 l 338 974 l 539 335 l 739 974 l 1068 974 l 696 0 l 363 0 l -7 974 z "},"W":{"ha":1575,"x_min":56,"x_max":1519,"o":"m 1519 392 q 1469 180 1519 274 q 1329 33 1418 86 q 1129 -21 1240 -21 q 934 25 1026 -21 q 789 143 842 71 q 647 25 738 71 q 451 -21 556 -21 q 249 33 339 -21 q 107 180 158 86 q 56 392 56 274 l 56 974 l 378 974 l 378 392 q 414 288 378 329 q 504 247 450 247 q 592 288 557 247 q 626 392 626 329 l 626 974 l 949 974 l 949 392 q 986 289 949 331 q 1078 247 1024 247 q 1164 288 1131 247 q 1197 392 1197 329 l 1197 974 l 1519 974 l 1519 392 z "},"Ẃ":{"ha":1575,"x_min":56,"x_max":1519,"o":"m 1519 392 q 1469 180 1519 274 q 1329 33 1418 86 q 1129 -21 1240 -21 q 934 25 1026 -21 q 789 143 842 71 q 647 25 738 71 q 451 -21 556 -21 q 249 33 339 -21 q 107 180 158 86 q 56 392 56 274 l 56 974 l 378 974 l 378 392 q 414 288 378 329 q 504 247 450 247 q 592 288 557 247 q 626 392 626 329 l 626 974 l 949 974 l 949 392 q 986 289 949 331 q 1078 247 1024 247 q 1164 288 1131 247 q 1197 392 1197 329 l 1197 974 l 1519 974 l 1519 392 m 819 1297 l 1054 1214 l 829 1035 l 632 1049 l 819 1297 z "},"Ŵ":{"ha":1575,"x_min":56,"x_max":1519,"o":"m 1519 392 q 1469 180 1519 274 q 1329 33 1418 86 q 1129 -21 1240 -21 q 934 25 1026 -21 q 789 143 842 71 q 647 25 738 71 q 451 -21 556 -21 q 249 33 339 -21 q 107 180 158 86 q 56 392 56 274 l 56 974 l 378 974 l 378 392 q 414 288 378 329 q 504 247 450 247 q 592 288 557 247 q 626 392 626 329 l 626 974 l 949 974 l 949 392 q 986 289 949 331 q 1078 247 1024 247 q 1164 288 1131 247 q 1197 392 1197 329 l 1197 974 l 1519 974 l 1519 392 m 1072 1044 l 878 1044 l 788 1144 l 697 1044 l 503 1044 l 657 1269 l 918 1269 l 1072 1044 z "},"Ẅ":{"ha":1575,"x_min":56,"x_max":1519,"o":"m 1519 392 q 1469 180 1519 274 q 1329 33 1418 86 q 1129 -21 1240 -21 q 934 25 1026 -21 q 789 143 842 71 q 647 25 738 71 q 451 -21 556 -21 q 249 33 339 -21 q 107 180 158 86 q 56 392 56 274 l 56 974 l 378 974 l 378 392 q 414 288 378 329 q 504 247 450 247 q 592 288 557 247 q 626 392 626 329 l 626 974 l 949 974 l 949 392 q 986 289 949 331 q 1078 247 1024 247 q 1164 288 1131 247 q 1197 392 1197 329 l 1197 974 l 1519 974 l 1519 392 m 647 1290 q 735 1256 701 1290 q 769 1167 769 1221 q 735 1079 769 1114 q 647 1044 701 1044 q 559 1079 593 1044 q 525 1167 525 1114 q 559 1256 525 1221 q 647 1290 593 1290 m 928 1290 q 1016 1256 982 1290 q 1050 1167 1050 1221 q 1016 1079 1050 1114 q 928 1044 982 1044 q 840 1079 874 1044 q 806 1167 806 1114 q 840 1256 806 1221 q 928 1290 874 1290 z "},"Ẁ":{"ha":1575,"x_min":56,"x_max":1519,"o":"m 1519 392 q 1469 180 1519 274 q 1329 33 1418 86 q 1129 -21 1240 -21 q 934 25 1026 -21 q 789 143 842 71 q 647 25 738 71 q 451 -21 556 -21 q 249 33 339 -21 q 107 180 158 86 q 56 392 56 274 l 56 974 l 378 974 l 378 392 q 414 288 378 329 q 504 247 450 247 q 592 288 557 247 q 626 392 626 329 l 626 974 l 949 974 l 949 392 q 986 289 949 331 q 1078 247 1024 247 q 1164 288 1131 247 q 1197 392 1197 329 l 1197 974 l 1519 974 l 1519 392 m 778 1297 l 932 1049 l 733 1035 l 542 1214 l 778 1297 z "},"X":{"ha":1074,"x_min":-7,"x_max":1081,"o":"m 14 974 l 389 974 l 531 744 l 672 974 l 1051 974 l 736 510 l 1081 0 l 694 0 l 531 251 l 369 0 l -7 0 l 335 494 l 14 974 z "},"Y":{"ha":1036,"x_min":56,"x_max":981,"o":"m 981 974 l 981 274 q 921 49 981 146 q 753 -100 861 -47 q 501 -153 644 -153 q 265 -117 382 -153 q 69 -24 149 -82 l 189 193 q 322 136 249 157 q 458 115 394 115 q 603 160 549 115 q 658 281 658 206 l 658 353 q 545 248 614 285 q 389 211 476 211 q 215 258 290 211 q 97 390 139 304 q 56 588 56 475 l 56 974 l 378 974 l 378 618 q 415 522 378 557 q 515 486 451 486 q 619 523 581 486 q 658 622 658 560 l 658 974 l 981 974 z "},"Ý":{"ha":1036,"x_min":56,"x_max":981,"o":"m 981 974 l 981 274 q 921 49 981 146 q 753 -100 861 -47 q 501 -153 644 -153 q 265 -117 382 -153 q 69 -24 149 -82 l 189 193 q 322 136 249 157 q 458 115 394 115 q 603 160 549 115 q 658 281 658 206 l 658 353 q 545 248 614 285 q 389 211 476 211 q 215 258 290 211 q 97 390 139 304 q 56 588 56 475 l 56 974 l 378 974 l 378 618 q 415 522 378 557 q 515 486 451 486 q 619 523 581 486 q 658 622 658 560 l 658 974 l 981 974 m 550 1297 l 785 1214 l 560 1035 l 363 1049 l 550 1297 z "},"Ŷ":{"ha":1036,"x_min":56,"x_max":981,"o":"m 981 974 l 981 274 q 921 49 981 146 q 753 -100 861 -47 q 501 -153 644 -153 q 265 -117 382 -153 q 69 -24 149 -82 l 189 193 q 322 136 249 157 q 458 115 394 115 q 603 160 549 115 q 658 281 658 206 l 658 353 q 545 248 614 285 q 389 211 476 211 q 215 258 290 211 q 97 390 139 304 q 56 588 56 475 l 56 974 l 378 974 l 378 618 q 415 522 378 557 q 515 486 451 486 q 619 523 581 486 q 658 622 658 560 l 658 974 l 981 974 m 803 1044 l 608 1044 l 518 1144 l 428 1044 l 233 1044 l 388 1269 l 649 1269 l 803 1044 z "},"Ÿ":{"ha":1036,"x_min":56,"x_max":981,"o":"m 981 974 l 981 274 q 921 49 981 146 q 753 -100 861 -47 q 501 -153 644 -153 q 265 -117 382 -153 q 69 -24 149 -82 l 189 193 q 322 136 249 157 q 458 115 394 115 q 603 160 549 115 q 658 281 658 206 l 658 353 q 545 248 614 285 q 389 211 476 211 q 215 258 290 211 q 97 390 139 304 q 56 588 56 475 l 56 974 l 378 974 l 378 618 q 415 522 378 557 q 515 486 451 486 q 619 523 581 486 q 658 622 658 560 l 658 974 l 981 974 m 378 1290 q 466 1256 432 1290 q 500 1167 500 1221 q 466 1079 500 1114 q 378 1044 432 1044 q 290 1079 324 1044 q 256 1167 256 1114 q 290 1256 256 1221 q 378 1290 324 1290 m 658 1290 q 747 1256 713 1290 q 781 1167 781 1221 q 747 1079 781 1114 q 658 1044 713 1044 q 570 1079 604 1044 q 536 1167 536 1114 q 570 1256 536 1221 q 658 1290 604 1290 z "},"Ẏ":{"ha":1036,"x_min":56,"x_max":981,"o":"m 981 974 l 981 274 q 921 49 981 146 q 753 -100 861 -47 q 501 -153 644 -153 q 265 -117 382 -153 q 69 -24 149 -82 l 189 193 q 322 136 249 157 q 458 115 394 115 q 603 160 549 115 q 658 281 658 206 l 658 353 q 545 248 614 285 q 389 211 476 211 q 215 258 290 211 q 97 390 139 304 q 56 588 56 475 l 56 974 l 378 974 l 378 618 q 415 522 378 557 q 515 486 451 486 q 619 523 581 486 q 658 622 658 560 l 658 974 l 981 974 m 518 1361 q 632 1317 588 1361 q 676 1203 676 1272 q 632 1089 676 1133 q 518 1044 588 1044 q 404 1089 449 1044 q 360 1203 360 1133 q 404 1317 360 1272 q 518 1361 449 1361 z "},"Ỵ":{"ha":1036,"x_min":56,"x_max":981,"o":"m 981 974 l 981 274 q 921 49 981 146 q 753 -100 861 -47 q 501 -153 644 -153 q 265 -117 382 -153 q 69 -24 149 -82 l 189 193 q 322 136 249 157 q 458 115 394 115 q 603 160 549 115 q 658 281 658 206 l 658 353 q 545 248 614 285 q 389 211 476 211 q 215 258 290 211 q 97 390 139 304 q 56 588 56 475 l 56 974 l 378 974 l 378 618 q 415 522 378 557 q 515 486 451 486 q 619 523 581 486 q 658 622 658 560 l 658 974 l 981 974 m 533 -222 q 647 -267 603 -222 q 692 -381 692 -311 q 647 -494 692 -450 q 533 -539 603 -539 q 419 -494 464 -539 q 375 -381 375 -450 q 419 -267 375 -311 q 533 -222 464 -222 z "},"Ỳ":{"ha":1036,"x_min":56,"x_max":981,"o":"m 981 974 l 981 274 q 921 49 981 146 q 753 -100 861 -47 q 501 -153 644 -153 q 265 -117 382 -153 q 69 -24 149 -82 l 189 193 q 322 136 249 157 q 458 115 394 115 q 603 160 549 115 q 658 281 658 206 l 658 353 q 545 248 614 285 q 389 211 476 211 q 215 258 290 211 q 97 390 139 304 q 56 588 56 475 l 56 974 l 378 974 l 378 618 q 415 522 378 557 q 515 486 451 486 q 619 523 581 486 q 658 622 658 560 l 658 974 l 981 974 m 508 1297 l 663 1049 l 464 1035 l 272 1214 l 508 1297 z "},"Ỷ":{"ha":1036,"x_min":56,"x_max":981,"o":"m 981 974 l 981 274 q 921 49 981 146 q 753 -100 861 -47 q 501 -153 644 -153 q 265 -117 382 -153 q 69 -24 149 -82 l 189 193 q 322 136 249 157 q 458 115 394 115 q 603 160 549 115 q 658 281 658 206 l 658 353 q 545 248 614 285 q 389 211 476 211 q 215 258 290 211 q 97 390 139 304 q 56 588 56 475 l 56 974 l 378 974 l 378 618 q 415 522 378 557 q 515 486 451 486 q 619 523 581 486 q 658 622 658 560 l 658 974 l 981 974 m 533 1376 q 659 1337 617 1376 q 701 1235 701 1297 q 571 1029 701 1128 l 443 1081 q 491 1133 474 1107 q 508 1183 508 1160 q 498 1211 508 1201 q 469 1221 488 1221 q 415 1200 440 1221 l 340 1315 q 533 1376 438 1376 z "},"Ȳ":{"ha":1036,"x_min":56,"x_max":981,"o":"m 981 974 l 981 274 q 921 49 981 146 q 753 -100 861 -47 q 501 -153 644 -153 q 265 -117 382 -153 q 69 -24 149 -82 l 189 193 q 322 136 249 157 q 458 115 394 115 q 603 160 549 115 q 658 281 658 206 l 658 353 q 545 248 614 285 q 389 211 476 211 q 215 258 290 211 q 97 390 139 304 q 56 588 56 475 l 56 974 l 378 974 l 378 618 q 415 522 378 557 q 515 486 451 486 q 619 523 581 486 q 658 622 658 560 l 658 974 l 981 974 m 254 1222 l 782 1222 l 782 1044 l 254 1044 l 254 1222 z "},"Ỹ":{"ha":1036,"x_min":56,"x_max":981,"o":"m 981 974 l 981 274 q 921 49 981 146 q 753 -100 861 -47 q 501 -153 644 -153 q 265 -117 382 -153 q 69 -24 149 -82 l 189 193 q 322 136 249 157 q 458 115 394 115 q 603 160 549 115 q 658 281 658 206 l 658 353 q 545 248 614 285 q 389 211 476 211 q 215 258 290 211 q 97 390 139 304 q 56 588 56 475 l 56 974 l 378 974 l 378 618 q 415 522 378 557 q 515 486 451 486 q 619 523 581 486 q 658 622 658 560 l 658 974 l 981 974 m 797 1288 q 762 1100 797 1158 q 649 1042 726 1042 q 585 1051 614 1042 q 521 1079 557 1061 q 497 1090 517 1081 q 464 1099 478 1099 q 435 1085 444 1099 q 424 1044 425 1072 l 261 1044 q 297 1232 261 1172 q 411 1292 333 1292 q 475 1281 446 1292 q 539 1254 504 1271 q 594 1235 578 1235 q 625 1247 615 1235 q 636 1288 635 1260 l 797 1288 z "},"Z":{"ha":949,"x_min":28,"x_max":921,"o":"m 457 247 l 921 247 l 921 0 l 28 0 l 28 201 l 210 413 l 94 413 l 94 606 l 378 606 l 482 726 l 44 726 l 44 974 l 911 974 l 911 772 l 743 578 l 840 578 l 840 385 l 576 385 l 457 247 z "},"Ź":{"ha":949,"x_min":28,"x_max":921,"o":"m 457 247 l 921 247 l 921 0 l 28 0 l 28 201 l 210 413 l 94 413 l 94 606 l 378 606 l 482 726 l 44 726 l 44 974 l 911 974 l 911 772 l 743 578 l 840 578 l 840 385 l 576 385 l 457 247 m 510 1297 l 744 1214 l 519 1035 l 322 1049 l 510 1297 z "},"Ž":{"ha":949,"x_min":28,"x_max":921,"o":"m 457 247 l 921 247 l 921 0 l 28 0 l 28 201 l 210 413 l 94 413 l 94 606 l 378 606 l 482 726 l 44 726 l 44 974 l 911 974 l 911 772 l 743 578 l 840 578 l 840 385 l 576 385 l 457 247 m 568 1269 l 763 1269 l 608 1044 l 347 1044 l 193 1269 l 388 1269 l 478 1171 l 568 1269 z "},"Ż":{"ha":949,"x_min":28,"x_max":921,"o":"m 457 247 l 921 247 l 921 0 l 28 0 l 28 201 l 210 413 l 94 413 l 94 606 l 378 606 l 482 726 l 44 726 l 44 974 l 911 974 l 911 772 l 743 578 l 840 578 l 840 385 l 576 385 l 457 247 m 478 1361 q 592 1317 547 1361 q 636 1203 636 1272 q 592 1089 636 1133 q 478 1044 547 1044 q 364 1089 408 1044 q 319 1203 319 1133 q 364 1317 319 1272 q 478 1361 408 1361 z "},"Ẓ":{"ha":949,"x_min":28,"x_max":921,"o":"m 457 247 l 921 247 l 921 0 l 28 0 l 28 201 l 210 413 l 94 413 l 94 606 l 378 606 l 482 726 l 44 726 l 44 974 l 911 974 l 911 772 l 743 578 l 840 578 l 840 385 l 576 385 l 457 247 m 471 -90 q 585 -135 540 -90 q 629 -249 629 -179 q 585 -362 629 -318 q 471 -407 540 -407 q 357 -362 401 -407 q 313 -249 313 -318 q 357 -135 313 -179 q 471 -90 401 -90 z "},"a":{"ha":951,"x_min":21,"x_max":875,"o":"m 875 760 l 875 0 l 563 0 l 563 76 q 369 -11 488 -11 q 186 38 265 -11 q 64 176 107 86 q 21 385 21 265 q 63 589 21 501 q 181 724 104 676 q 361 771 258 771 q 474 748 422 771 q 563 682 525 725 l 563 760 l 875 760 m 450 229 q 532 269 501 229 q 563 376 563 310 q 532 483 563 443 q 450 524 501 524 q 367 483 399 524 q 336 376 336 443 q 367 269 336 310 q 450 229 399 229 z "},"á":{"ha":951,"x_min":21,"x_max":875,"o":"m 875 760 l 875 0 l 563 0 l 563 76 q 369 -11 488 -11 q 186 38 265 -11 q 64 176 107 86 q 21 385 21 265 q 63 589 21 501 q 181 724 104 676 q 361 771 258 771 q 474 748 422 771 q 563 682 525 725 l 563 760 l 875 760 m 450 229 q 532 269 501 229 q 563 376 563 310 q 532 483 563 443 q 450 524 501 524 q 367 483 399 524 q 336 376 336 443 q 367 269 336 310 q 450 229 399 229 m 521 1083 l 756 1000 l 531 821 l 333 835 l 521 1083 z "},"ă":{"ha":951,"x_min":21,"x_max":875,"o":"m 875 760 l 875 0 l 563 0 l 563 76 q 369 -11 488 -11 q 186 38 265 -11 q 64 176 107 86 q 21 385 21 265 q 63 589 21 501 q 181 724 104 676 q 361 771 258 771 q 474 748 422 771 q 563 682 525 725 l 563 760 l 875 760 m 450 229 q 532 269 501 229 q 563 376 563 310 q 532 483 563 443 q 450 524 501 524 q 367 483 399 524 q 336 376 336 443 q 367 269 336 310 q 450 229 399 229 m 421 1068 q 442 1017 424 1036 q 489 999 461 999 q 535 1017 517 999 q 557 1068 554 1036 l 744 1068 q 669 892 739 958 q 489 826 600 826 q 308 892 378 826 q 233 1068 239 958 l 421 1068 z "},"ắ":{"ha":951,"x_min":21,"x_max":875,"o":"m 875 760 l 875 0 l 563 0 l 563 76 q 369 -11 488 -11 q 186 38 265 -11 q 64 176 107 86 q 21 385 21 265 q 63 589 21 501 q 181 724 104 676 q 361 771 258 771 q 474 748 422 771 q 563 682 525 725 l 563 760 l 875 760 m 450 229 q 532 269 501 229 q 563 376 563 310 q 532 483 563 443 q 450 524 501 524 q 367 483 399 524 q 336 376 336 443 q 367 269 336 310 q 450 229 399 229 m 406 1054 q 431 1009 408 1026 q 489 992 454 992 q 547 1009 524 992 q 572 1054 569 1026 l 746 1054 q 671 894 740 954 q 489 835 601 835 q 307 894 376 835 q 232 1054 238 953 l 406 1054 m 542 1310 l 735 1197 l 494 1068 l 325 1111 l 542 1310 z "},"ặ":{"ha":951,"x_min":21,"x_max":875,"o":"m 875 760 l 875 0 l 563 0 l 563 76 q 369 -11 488 -11 q 186 38 265 -11 q 64 176 107 86 q 21 385 21 265 q 63 589 21 501 q 181 724 104 676 q 361 771 258 771 q 474 748 422 771 q 563 682 525 725 l 563 760 l 875 760 m 450 229 q 532 269 501 229 q 563 376 563 310 q 532 483 563 443 q 450 524 501 524 q 367 483 399 524 q 336 376 336 443 q 367 269 336 310 q 450 229 399 229 m 458 -90 q 572 -135 528 -90 q 617 -249 617 -179 q 572 -362 617 -318 q 458 -407 528 -407 q 344 -362 389 -407 q 300 -249 300 -318 q 344 -135 300 -179 q 458 -90 389 -90 m 394 1068 q 416 1017 397 1036 q 463 999 435 999 q 509 1017 490 999 q 531 1068 528 1036 l 718 1068 q 643 892 713 958 q 463 826 574 826 q 282 892 351 826 q 207 1068 213 958 l 394 1068 z "},"ằ":{"ha":951,"x_min":21,"x_max":875,"o":"m 875 760 l 875 0 l 563 0 l 563 76 q 369 -11 488 -11 q 186 38 265 -11 q 64 176 107 86 q 21 385 21 265 q 63 589 21 501 q 181 724 104 676 q 361 771 258 771 q 474 748 422 771 q 563 682 525 725 l 563 760 l 875 760 m 450 229 q 532 269 501 229 q 563 376 563 310 q 532 483 563 443 q 450 524 501 524 q 367 483 399 524 q 336 376 336 443 q 367 269 336 310 q 450 229 399 229 m 406 1054 q 431 1009 408 1026 q 489 992 454 992 q 547 1009 524 992 q 572 1054 569 1026 l 746 1054 q 671 894 740 954 q 489 835 601 835 q 307 894 376 835 q 232 1054 238 953 l 406 1054 m 422 1310 l 639 1111 l 469 1068 l 229 1197 l 422 1310 z "},"ẳ":{"ha":951,"x_min":21,"x_max":875,"o":"m 875 760 l 875 0 l 563 0 l 563 76 q 369 -11 488 -11 q 186 38 265 -11 q 64 176 107 86 q 21 385 21 265 q 63 589 21 501 q 181 724 104 676 q 361 771 258 771 q 474 748 422 771 q 563 682 525 725 l 563 760 l 875 760 m 450 229 q 532 269 501 229 q 563 376 563 310 q 532 483 563 443 q 450 524 501 524 q 367 483 399 524 q 336 376 336 443 q 367 269 336 310 q 450 229 399 229 m 406 1054 q 431 1009 408 1026 q 489 992 454 992 q 547 1009 524 992 q 572 1054 569 1026 l 746 1054 q 671 894 740 954 q 489 835 601 835 q 307 894 376 835 q 232 1054 238 953 l 406 1054 m 490 1321 q 597 1290 563 1321 q 631 1215 631 1258 q 605 1138 631 1172 q 521 1068 579 1104 l 406 1111 q 447 1138 433 1126 q 460 1164 460 1150 q 431 1186 460 1186 q 388 1171 404 1186 l 319 1268 q 490 1321 407 1321 z "},"ẵ":{"ha":951,"x_min":21,"x_max":875,"o":"m 875 760 l 875 0 l 563 0 l 563 76 q 369 -11 488 -11 q 186 38 265 -11 q 64 176 107 86 q 21 385 21 265 q 63 589 21 501 q 181 724 104 676 q 361 771 258 771 q 474 748 422 771 q 563 682 525 725 l 563 760 l 875 760 m 450 229 q 532 269 501 229 q 563 376 563 310 q 532 483 563 443 q 450 524 501 524 q 367 483 399 524 q 336 376 336 443 q 367 269 336 310 q 450 229 399 229 m 394 1054 q 420 1009 397 1026 q 478 992 443 992 q 535 1009 513 992 q 561 1054 558 1026 l 735 1054 q 660 894 729 954 q 478 835 590 835 q 296 894 365 835 q 221 1054 226 953 l 394 1054 m 757 1311 q 722 1156 757 1206 q 610 1107 688 1107 q 540 1116 572 1107 q 465 1142 507 1125 q 400 1160 417 1160 q 367 1148 376 1160 q 358 1110 358 1136 l 219 1110 q 254 1265 219 1215 q 367 1315 289 1315 q 438 1306 406 1315 q 513 1281 471 1297 q 548 1268 531 1274 q 576 1263 565 1263 q 608 1274 599 1263 q 619 1311 618 1286 l 757 1311 z "},"â":{"ha":951,"x_min":21,"x_max":875,"o":"m 875 760 l 875 0 l 563 0 l 563 76 q 369 -11 488 -11 q 186 38 265 -11 q 64 176 107 86 q 21 385 21 265 q 63 589 21 501 q 181 724 104 676 q 361 771 258 771 q 474 748 422 771 q 563 682 525 725 l 563 760 l 875 760 m 450 229 q 532 269 501 229 q 563 376 563 310 q 532 483 563 443 q 450 524 501 524 q 367 483 399 524 q 336 376 336 443 q 367 269 336 310 q 450 229 399 229 m 774 843 l 579 843 l 489 943 l 399 843 l 204 843 l 358 1068 l 619 1068 l 774 843 z "},"ấ":{"ha":951,"x_min":21,"x_max":875,"o":"m 875 760 l 875 0 l 563 0 l 563 76 q 369 -11 488 -11 q 186 38 265 -11 q 64 176 107 86 q 21 385 21 265 q 63 589 21 501 q 181 724 104 676 q 361 771 258 771 q 474 748 422 771 q 563 682 525 725 l 563 760 l 875 760 m 450 229 q 532 269 501 229 q 563 376 563 310 q 532 483 563 443 q 450 524 501 524 q 367 483 399 524 q 336 376 336 443 q 367 269 336 310 q 450 229 399 229 m 800 835 l 576 835 l 488 933 l 397 835 l 175 835 l 346 1026 l 628 1026 l 800 835 m 540 1311 l 733 1199 l 493 1069 l 324 1113 l 540 1311 z "},"ậ":{"ha":951,"x_min":21,"x_max":875,"o":"m 875 760 l 875 0 l 563 0 l 563 76 q 369 -11 488 -11 q 186 38 265 -11 q 64 176 107 86 q 21 385 21 265 q 63 589 21 501 q 181 724 104 676 q 361 771 258 771 q 474 748 422 771 q 563 682 525 725 l 563 760 l 875 760 m 450 229 q 532 269 501 229 q 563 376 563 310 q 532 483 563 443 q 450 524 501 524 q 367 483 399 524 q 336 376 336 443 q 367 269 336 310 q 450 229 399 229 m 458 -90 q 572 -135 528 -90 q 617 -249 617 -179 q 572 -362 617 -318 q 458 -407 528 -407 q 344 -362 389 -407 q 300 -249 300 -318 q 344 -135 300 -179 q 458 -90 389 -90 m 747 843 l 553 843 l 463 943 l 372 843 l 178 843 l 332 1068 l 593 1068 l 747 843 z "},"ầ":{"ha":951,"x_min":21,"x_max":875,"o":"m 875 760 l 875 0 l 563 0 l 563 76 q 369 -11 488 -11 q 186 38 265 -11 q 64 176 107 86 q 21 385 21 265 q 63 589 21 501 q 181 724 104 676 q 361 771 258 771 q 474 748 422 771 q 563 682 525 725 l 563 760 l 875 760 m 450 229 q 532 269 501 229 q 563 376 563 310 q 532 483 563 443 q 450 524 501 524 q 367 483 399 524 q 336 376 336 443 q 367 269 336 310 q 450 229 399 229 m 800 835 l 576 835 l 488 933 l 397 835 l 175 835 l 346 1026 l 628 1026 l 800 835 m 421 1311 l 638 1113 l 468 1069 l 228 1199 l 421 1311 z "},"ẩ":{"ha":951,"x_min":21,"x_max":875,"o":"m 875 760 l 875 0 l 563 0 l 563 76 q 369 -11 488 -11 q 186 38 265 -11 q 64 176 107 86 q 21 385 21 265 q 63 589 21 501 q 181 724 104 676 q 361 771 258 771 q 474 748 422 771 q 563 682 525 725 l 563 760 l 875 760 m 450 229 q 532 269 501 229 q 563 376 563 310 q 532 483 563 443 q 450 524 501 524 q 367 483 399 524 q 336 376 336 443 q 367 269 336 310 q 450 229 399 229 m 800 835 l 576 835 l 488 933 l 397 835 l 175 835 l 346 1026 l 628 1026 l 800 835 m 489 1322 q 595 1291 561 1322 q 629 1217 629 1260 q 603 1140 629 1174 q 519 1069 578 1106 l 404 1113 q 445 1140 432 1128 q 458 1165 458 1151 q 429 1188 458 1188 q 386 1172 403 1188 l 318 1269 q 489 1322 406 1322 z "},"ẫ":{"ha":951,"x_min":21,"x_max":875,"o":"m 875 760 l 875 0 l 563 0 l 563 76 q 369 -11 488 -11 q 186 38 265 -11 q 64 176 107 86 q 21 385 21 265 q 63 589 21 501 q 181 724 104 676 q 361 771 258 771 q 474 748 422 771 q 563 682 525 725 l 563 760 l 875 760 m 450 229 q 532 269 501 229 q 563 376 563 310 q 532 483 563 443 q 450 524 501 524 q 367 483 399 524 q 336 376 336 443 q 367 269 336 310 q 450 229 399 229 m 800 835 l 576 835 l 488 933 l 397 835 l 175 835 l 346 1026 l 628 1026 l 800 835 m 754 1271 q 719 1116 754 1165 q 607 1067 685 1067 q 537 1076 569 1067 q 463 1101 504 1085 q 397 1119 414 1119 q 365 1108 374 1119 q 356 1069 356 1096 l 217 1069 q 251 1225 217 1175 q 364 1275 286 1275 q 435 1266 403 1275 q 510 1240 468 1257 q 545 1228 528 1233 q 574 1222 563 1222 q 606 1234 596 1222 q 617 1271 615 1246 l 754 1271 z "},"ȁ":{"ha":951,"x_min":21,"x_max":875,"o":"m 875 760 l 875 0 l 563 0 l 563 76 q 369 -11 488 -11 q 186 38 265 -11 q 64 176 107 86 q 21 385 21 265 q 63 589 21 501 q 181 724 104 676 q 361 771 258 771 q 474 748 422 771 q 563 682 525 725 l 563 760 l 875 760 m 450 229 q 532 269 501 229 q 563 376 563 310 q 532 483 563 443 q 450 524 501 524 q 367 483 399 524 q 336 376 336 443 q 367 269 336 310 q 450 229 399 229 m 360 1083 l 474 835 l 258 821 l 135 1010 l 360 1083 m 667 1083 l 781 835 l 565 821 l 442 1010 l 667 1083 z "},"ä":{"ha":951,"x_min":21,"x_max":875,"o":"m 875 760 l 875 0 l 563 0 l 563 76 q 369 -11 488 -11 q 186 38 265 -11 q 64 176 107 86 q 21 385 21 265 q 63 589 21 501 q 181 724 104 676 q 361 771 258 771 q 474 748 422 771 q 563 682 525 725 l 563 760 l 875 760 m 450 229 q 532 269 501 229 q 563 376 563 310 q 532 483 563 443 q 450 524 501 524 q 367 483 399 524 q 336 376 336 443 q 367 269 336 310 q 450 229 399 229 m 349 1086 q 437 1051 403 1086 q 471 963 471 1017 q 437 875 471 910 q 349 840 403 840 q 260 875 294 840 q 226 963 226 910 q 260 1051 226 1017 q 349 1086 294 1086 m 629 1086 q 717 1051 683 1086 q 751 963 751 1017 q 717 875 751 910 q 629 840 683 840 q 541 875 575 840 q 507 963 507 910 q 541 1051 507 1017 q 629 1086 575 1086 z "},"ạ":{"ha":951,"x_min":21,"x_max":875,"o":"m 875 760 l 875 0 l 563 0 l 563 76 q 369 -11 488 -11 q 186 38 265 -11 q 64 176 107 86 q 21 385 21 265 q 63 589 21 501 q 181 724 104 676 q 361 771 258 771 q 474 748 422 771 q 563 682 525 725 l 563 760 l 875 760 m 450 229 q 532 269 501 229 q 563 376 563 310 q 532 483 563 443 q 450 524 501 524 q 367 483 399 524 q 336 376 336 443 q 367 269 336 310 q 450 229 399 229 m 458 -90 q 572 -135 528 -90 q 617 -249 617 -179 q 572 -362 617 -318 q 458 -407 528 -407 q 344 -362 389 -407 q 300 -249 300 -318 q 344 -135 300 -179 q 458 -90 389 -90 z "},"à":{"ha":951,"x_min":21,"x_max":875,"o":"m 875 760 l 875 0 l 563 0 l 563 76 q 369 -11 488 -11 q 186 38 265 -11 q 64 176 107 86 q 21 385 21 265 q 63 589 21 501 q 181 724 104 676 q 361 771 258 771 q 474 748 422 771 q 563 682 525 725 l 563 760 l 875 760 m 450 229 q 532 269 501 229 q 563 376 563 310 q 532 483 563 443 q 450 524 501 524 q 367 483 399 524 q 336 376 336 443 q 367 269 336 310 q 450 229 399 229 m 479 1083 l 633 835 l 435 821 l 243 1000 l 479 1083 z "},"ả":{"ha":951,"x_min":21,"x_max":875,"o":"m 875 760 l 875 0 l 563 0 l 563 76 q 369 -11 488 -11 q 186 38 265 -11 q 64 176 107 86 q 21 385 21 265 q 63 589 21 501 q 181 724 104 676 q 361 771 258 771 q 474 748 422 771 q 563 682 525 725 l 563 760 l 875 760 m 450 229 q 532 269 501 229 q 563 376 563 310 q 532 483 563 443 q 450 524 501 524 q 367 483 399 524 q 336 376 336 443 q 367 269 336 310 q 450 229 399 229 m 504 1163 q 630 1123 588 1163 q 672 1021 672 1083 q 542 815 672 914 l 414 867 q 462 919 444 893 q 479 969 479 946 q 469 997 479 988 q 440 1007 458 1007 q 386 986 411 1007 l 311 1101 q 504 1163 408 1163 z "},"ȃ":{"ha":951,"x_min":21,"x_max":875,"o":"m 875 760 l 875 0 l 563 0 l 563 76 q 369 -11 488 -11 q 186 38 265 -11 q 64 176 107 86 q 21 385 21 265 q 63 589 21 501 q 181 724 104 676 q 361 771 258 771 q 474 748 422 771 q 563 682 525 725 l 563 760 l 875 760 m 450 229 q 532 269 501 229 q 563 376 563 310 q 532 483 563 443 q 450 524 501 524 q 367 483 399 524 q 336 376 336 443 q 367 269 336 310 q 450 229 399 229 m 232 826 q 307 1002 238 936 q 488 1068 376 1068 q 668 1002 599 1068 q 743 826 738 936 l 556 826 q 534 877 553 858 q 488 896 515 896 q 441 877 460 896 q 419 826 422 858 l 232 826 z "},"ā":{"ha":951,"x_min":21,"x_max":875,"o":"m 875 760 l 875 0 l 563 0 l 563 76 q 369 -11 488 -11 q 186 38 265 -11 q 64 176 107 86 q 21 385 21 265 q 63 589 21 501 q 181 724 104 676 q 361 771 258 771 q 474 748 422 771 q 563 682 525 725 l 563 760 l 875 760 m 450 229 q 532 269 501 229 q 563 376 563 310 q 532 483 563 443 q 450 524 501 524 q 367 483 399 524 q 336 376 336 443 q 367 269 336 310 q 450 229 399 229 m 267 1058 l 711 1058 l 711 881 l 267 881 l 267 1058 z "},"ą":{"ha":951,"x_min":21,"x_max":875,"o":"m 789 0 q 693 -125 693 -67 q 721 -161 693 -161 q 756 -150 736 -161 l 799 -304 q 650 -339 721 -339 q 530 -293 571 -339 q 489 -176 489 -247 q 563 4 489 -86 l 563 76 q 369 -11 488 -11 q 186 38 265 -11 q 64 176 107 86 q 21 385 21 265 q 63 589 21 501 q 181 724 104 676 q 361 771 258 771 q 474 748 422 771 q 563 682 525 725 l 563 760 l 875 760 l 875 0 l 789 0 m 450 229 q 532 269 501 229 q 563 376 563 310 q 532 483 563 443 q 450 524 501 524 q 367 483 399 524 q 336 376 336 443 q 367 269 336 310 q 450 229 399 229 z "},"å":{"ha":951,"x_min":21,"x_max":875,"o":"m 875 760 l 875 0 l 563 0 l 563 76 q 369 -11 488 -11 q 186 38 265 -11 q 64 176 107 86 q 21 385 21 265 q 63 589 21 501 q 181 724 104 676 q 361 771 258 771 q 474 748 422 771 q 563 682 525 725 l 563 760 l 875 760 m 450 229 q 532 269 501 229 q 563 376 563 310 q 532 483 563 443 q 450 524 501 524 q 367 483 399 524 q 336 376 336 443 q 367 269 336 310 q 450 229 399 229 m 489 1149 q 611 1099 561 1149 q 661 976 661 1049 q 611 854 661 904 q 489 804 561 804 q 367 854 417 804 q 317 976 317 904 q 367 1099 317 1049 q 489 1149 417 1149 m 489 1031 q 450 1015 465 1031 q 435 976 435 1000 q 450 938 435 954 q 489 922 465 922 q 527 938 511 922 q 543 976 543 954 q 527 1015 543 1000 q 489 1031 511 1031 z "},"ǻ":{"ha":951,"x_min":21,"x_max":875,"o":"m 875 760 l 875 0 l 563 0 l 563 76 q 369 -11 488 -11 q 186 38 265 -11 q 64 176 107 86 q 21 385 21 265 q 63 589 21 501 q 181 724 104 676 q 361 771 258 771 q 474 748 422 771 q 563 682 525 725 l 563 760 l 875 760 m 450 229 q 532 269 501 229 q 563 376 563 310 q 532 483 563 443 q 450 524 501 524 q 367 483 399 524 q 336 376 336 443 q 367 269 336 310 q 450 229 399 229 m 489 1149 q 611 1099 561 1149 q 661 976 661 1049 q 611 854 661 904 q 489 804 561 804 q 367 854 417 804 q 317 976 317 904 q 367 1099 317 1049 q 489 1149 417 1149 m 489 1031 q 450 1015 465 1031 q 435 976 435 1000 q 450 938 435 954 q 489 922 465 922 q 527 938 511 922 q 543 976 543 954 q 527 1015 543 1000 q 489 1031 511 1031 m 542 1421 l 735 1308 l 494 1179 l 325 1222 l 542 1421 z "},"ã":{"ha":951,"x_min":21,"x_max":875,"o":"m 875 760 l 875 0 l 563 0 l 563 76 q 369 -11 488 -11 q 186 38 265 -11 q 64 176 107 86 q 21 385 21 265 q 63 589 21 501 q 181 724 104 676 q 361 771 258 771 q 474 748 422 771 q 563 682 525 725 l 563 760 l 875 760 m 450 229 q 532 269 501 229 q 563 376 563 310 q 532 483 563 443 q 450 524 501 524 q 367 483 399 524 q 336 376 336 443 q 367 269 336 310 q 450 229 399 229 m 768 1071 q 733 883 768 942 q 619 825 697 825 q 556 835 585 825 q 492 863 528 844 q 468 873 488 864 q 435 882 449 882 q 406 869 415 882 q 394 828 396 856 l 232 828 q 268 1015 232 956 q 382 1075 304 1075 q 446 1065 417 1075 q 510 1038 475 1054 q 565 1018 549 1018 q 596 1031 586 1018 q 607 1071 606 1043 l 768 1071 z "},"æ":{"ha":1321,"x_min":21,"x_max":1300,"o":"m 938 219 q 1020 240 978 219 q 1103 300 1063 261 l 1276 144 q 1119 29 1211 69 q 919 -11 1026 -11 q 738 26 817 -11 q 611 133 660 63 q 490 23 567 61 q 310 -15 413 -15 q 98 49 175 -15 q 21 228 21 114 q 97 397 21 338 q 318 457 174 456 l 496 457 l 494 469 q 458 522 490 503 q 375 540 426 540 q 265 527 328 540 q 140 492 201 514 l 71 700 q 267 755 169 736 q 449 774 364 774 q 694 711 603 774 q 918 771 789 771 q 1121 724 1035 771 q 1253 588 1207 676 q 1300 379 1300 499 l 829 288 q 938 219 867 219 m 911 563 q 840 526 867 563 q 806 436 813 490 l 1003 471 q 974 538 999 514 q 911 563 950 563 m 496 313 l 383 313 q 332 297 350 313 q 314 251 314 282 q 333 202 314 219 q 386 185 351 185 q 447 200 418 185 q 496 243 476 215 l 496 313 z "},"ǽ":{"ha":1321,"x_min":21,"x_max":1300,"o":"m 938 219 q 1020 240 978 219 q 1103 300 1063 261 l 1276 144 q 1119 29 1211 69 q 919 -11 1026 -11 q 738 26 817 -11 q 611 133 660 63 q 490 23 567 61 q 310 -15 413 -15 q 98 49 175 -15 q 21 228 21 114 q 97 397 21 338 q 318 457 174 456 l 496 457 l 494 469 q 458 522 490 503 q 375 540 426 540 q 265 527 328 540 q 140 492 201 514 l 71 700 q 267 755 169 736 q 449 774 364 774 q 694 711 603 774 q 918 771 789 771 q 1121 724 1035 771 q 1253 588 1207 676 q 1300 379 1300 499 l 829 288 q 938 219 867 219 m 911 563 q 840 526 867 563 q 806 436 813 490 l 1003 471 q 974 538 999 514 q 911 563 950 563 m 496 313 l 383 313 q 332 297 350 313 q 314 251 314 282 q 333 202 314 219 q 386 185 351 185 q 447 200 418 185 q 496 243 476 215 l 496 313 m 693 1083 l 928 1000 l 703 821 l 506 835 l 693 1083 z "},"b":{"ha":958,"x_min":83,"x_max":938,"o":"m 589 771 q 772 722 693 771 q 894 584 851 674 q 938 375 938 494 q 896 171 938 258 q 777 36 854 83 q 597 -11 700 -11 q 485 12 536 -11 q 396 78 433 35 l 396 0 l 83 0 l 83 1031 l 396 1031 l 396 683 q 589 771 471 771 m 508 236 q 591 276 560 236 q 622 383 622 317 q 591 490 622 450 q 508 531 560 531 q 426 490 457 531 q 396 383 396 450 q 426 276 396 317 q 508 236 457 236 z "},"c":{"ha":779,"x_min":21,"x_max":782,"o":"m 533 446 q 436 518 503 518 q 363 480 390 518 q 336 378 336 442 q 363 274 336 313 q 436 236 390 236 q 529 318 506 236 l 782 201 q 645 44 740 100 q 419 -11 550 -11 q 210 37 300 -11 q 70 172 119 85 q 21 376 21 260 q 70 584 21 494 q 210 722 119 674 q 422 771 301 771 q 640 713 546 771 q 782 551 735 656 l 533 446 z "},"ć":{"ha":779,"x_min":21,"x_max":782,"o":"m 533 446 q 436 518 503 518 q 363 480 390 518 q 336 378 336 442 q 363 274 336 313 q 436 236 390 236 q 529 318 506 236 l 782 201 q 645 44 740 100 q 419 -11 550 -11 q 210 37 300 -11 q 70 172 119 85 q 21 376 21 260 q 70 584 21 494 q 210 722 119 674 q 422 771 301 771 q 640 713 546 771 q 782 551 735 656 l 533 446 m 446 1083 l 681 1000 l 456 821 l 258 835 l 446 1083 z "},"č":{"ha":779,"x_min":21,"x_max":782,"o":"m 533 446 q 436 518 503 518 q 363 480 390 518 q 336 378 336 442 q 363 274 336 313 q 436 236 390 236 q 529 318 506 236 l 782 201 q 645 44 740 100 q 419 -11 550 -11 q 210 37 300 -11 q 70 172 119 85 q 21 376 21 260 q 70 584 21 494 q 210 722 119 674 q 422 771 301 771 q 640 713 546 771 q 782 551 735 656 l 533 446 m 504 1068 l 699 1068 l 544 843 l 283 843 l 129 1068 l 324 1068 l 414 969 l 504 1068 z "},"ç":{"ha":779,"x_min":21,"x_max":782,"o":"m 436 236 q 529 318 506 236 l 782 201 q 671 60 747 114 q 489 -7 594 7 l 461 -82 q 576 -197 576 -112 q 521 -304 576 -269 q 386 -339 465 -339 q 221 -312 300 -339 l 263 -187 q 325 -197 290 -197 q 365 -190 350 -197 q 381 -171 381 -183 q 358 -147 381 -154 q 301 -139 335 -139 l 278 -139 l 322 -3 q 101 126 182 25 q 21 376 21 226 q 70 584 21 494 q 210 722 119 674 q 422 771 301 771 q 640 713 546 771 q 782 551 735 656 l 533 446 q 436 518 503 518 q 363 480 390 518 q 336 378 336 442 q 363 274 336 313 q 436 236 390 236 z "},"ḉ":{"ha":779,"x_min":21,"x_max":782,"o":"m 661 1000 l 436 821 l 239 835 l 426 1083 l 661 1000 m 436 236 q 529 318 506 236 l 782 201 q 671 60 747 114 q 489 -7 594 7 l 461 -82 q 576 -197 576 -112 q 521 -304 576 -269 q 386 -339 465 -339 q 221 -312 300 -339 l 263 -187 q 325 -197 290 -197 q 365 -190 350 -197 q 381 -171 381 -183 q 358 -147 381 -154 q 301 -139 335 -139 l 278 -139 l 322 -3 q 101 126 182 25 q 21 376 21 226 q 70 584 21 494 q 210 722 119 674 q 422 771 301 771 q 640 713 546 771 q 782 551 735 656 l 533 446 q 436 518 503 518 q 363 480 390 518 q 336 378 336 442 q 363 274 336 313 q 436 236 390 236 z "},"ĉ":{"ha":779,"x_min":21,"x_max":782,"o":"m 533 446 q 436 518 503 518 q 363 480 390 518 q 336 378 336 442 q 363 274 336 313 q 436 236 390 236 q 529 318 506 236 l 782 201 q 645 44 740 100 q 419 -11 550 -11 q 210 37 300 -11 q 70 172 119 85 q 21 376 21 260 q 70 584 21 494 q 210 722 119 674 q 422 771 301 771 q 640 713 546 771 q 782 551 735 656 l 533 446 m 699 843 l 504 843 l 414 943 l 324 843 l 129 843 l 283 1068 l 544 1068 l 699 843 z "},"ċ":{"ha":779,"x_min":21,"x_max":782,"o":"m 533 446 q 436 518 503 518 q 363 480 390 518 q 336 378 336 442 q 363 274 336 313 q 436 236 390 236 q 529 318 506 236 l 782 201 q 645 44 740 100 q 419 -11 550 -11 q 210 37 300 -11 q 70 172 119 85 q 21 376 21 260 q 70 584 21 494 q 210 722 119 674 q 422 771 301 771 q 640 713 546 771 q 782 551 735 656 l 533 446 m 410 1135 q 524 1090 479 1135 q 568 976 568 1046 q 524 863 568 907 q 410 818 479 818 q 296 863 340 818 q 251 976 251 907 q 296 1090 251 1046 q 410 1135 340 1135 z "},"d":{"ha":958,"x_min":21,"x_max":875,"o":"m 875 1031 l 875 0 l 563 0 l 563 76 q 369 -11 488 -11 q 186 38 265 -11 q 64 176 107 86 q 21 385 21 265 q 63 589 21 501 q 181 724 104 676 q 361 771 258 771 q 474 748 422 771 q 563 682 525 725 l 563 1031 l 875 1031 m 450 229 q 532 269 501 229 q 563 376 563 310 q 532 483 563 443 q 450 524 501 524 q 367 483 399 524 q 336 376 336 443 q 367 269 336 310 q 450 229 399 229 z "},"ð":{"ha":857,"x_min":13,"x_max":836,"o":"m 626 871 q 781 663 726 779 q 836 421 836 547 q 782 192 836 290 q 628 39 728 93 q 394 -15 528 -15 q 193 26 279 -15 q 60 142 107 67 q 13 315 13 217 q 51 476 13 407 q 162 584 90 546 q 328 622 233 622 q 441 608 386 622 q 529 568 496 593 q 403 771 528 671 l 156 658 l 104 764 l 285 847 q 117 921 207 889 l 326 1044 q 519 953 433 1008 l 721 1046 l 772 938 l 626 871 m 406 242 q 475 265 449 242 q 501 329 501 289 q 475 393 501 369 q 404 417 449 417 q 336 393 361 417 q 311 331 311 369 q 337 266 311 290 q 406 242 363 242 z "},"ď":{"ha":1150,"x_min":21,"x_max":1192,"o":"m 875 1031 l 875 0 l 563 0 l 563 76 q 369 -11 488 -11 q 186 38 265 -11 q 64 176 107 86 q 21 385 21 265 q 63 589 21 501 q 181 724 104 676 q 361 771 258 771 q 474 748 422 771 q 563 682 525 725 l 563 1031 l 875 1031 m 450 229 q 532 269 501 229 q 563 376 563 310 q 532 483 563 443 q 450 524 501 524 q 367 483 399 524 q 336 376 336 443 q 367 269 336 310 q 450 229 399 229 m 972 1031 l 1192 1031 l 1150 710 l 972 710 l 972 1031 z "},"đ":{"ha":958,"x_min":21,"x_max":958,"o":"m 958 788 l 875 788 l 875 -1 l 563 -1 l 563 69 q 369 -11 486 -11 q 186 34 265 -11 q 64 162 107 79 q 21 356 21 244 q 63 543 21 463 q 181 667 104 624 q 361 711 258 711 q 563 629 485 711 l 563 788 l 354 788 l 354 926 l 563 926 l 563 1031 l 875 1031 l 875 926 l 958 926 l 958 788 m 450 229 q 532 261 501 229 q 563 347 563 293 q 532 432 563 400 q 450 464 501 464 q 367 433 397 464 q 336 347 336 401 q 367 261 336 293 q 450 229 397 229 z "},"ḍ":{"ha":958,"x_min":21,"x_max":875,"o":"m 875 1031 l 875 0 l 563 0 l 563 76 q 369 -11 488 -11 q 186 38 265 -11 q 64 176 107 86 q 21 385 21 265 q 63 589 21 501 q 181 724 104 676 q 361 771 258 771 q 474 748 422 771 q 563 682 525 725 l 563 1031 l 875 1031 m 450 229 q 532 269 501 229 q 563 376 563 310 q 532 483 563 443 q 450 524 501 524 q 367 483 399 524 q 336 376 336 443 q 367 269 336 310 q 450 229 399 229 m 488 -90 q 601 -135 557 -90 q 646 -249 646 -179 q 601 -362 646 -318 q 488 -407 557 -407 q 374 -362 418 -407 q 329 -249 329 -318 q 374 -135 329 -179 q 488 -90 418 -90 z "},"ḏ":{"ha":958,"x_min":21,"x_max":875,"o":"m 875 1031 l 875 0 l 563 0 l 563 76 q 369 -11 488 -11 q 186 38 265 -11 q 64 176 107 86 q 21 385 21 265 q 63 589 21 501 q 181 724 104 676 q 361 771 258 771 q 474 748 422 771 q 563 682 525 725 l 563 1031 l 875 1031 m 450 229 q 532 269 501 229 q 563 376 563 310 q 532 483 563 443 q 450 524 501 524 q 367 483 399 524 q 336 376 336 443 q 367 269 336 310 q 450 229 399 229 m 269 -104 l 714 -104 l 714 -282 l 269 -282 l 269 -104 z "},"ǆ":{"ha":1747,"x_min":21,"x_max":1718,"o":"m 875 1031 l 875 0 l 563 0 l 563 76 q 369 -11 488 -11 q 186 38 265 -11 q 64 176 107 86 q 21 385 21 265 q 63 589 21 501 q 181 724 104 676 q 361 771 258 771 q 474 748 422 771 q 563 682 525 725 l 563 1031 l 875 1031 m 450 229 q 532 269 501 229 q 563 376 563 310 q 532 483 563 443 q 450 524 501 524 q 367 483 399 524 q 336 376 336 443 q 367 269 336 310 q 450 229 399 229 m 1388 233 l 1718 233 l 1718 0 l 993 0 l 993 182 l 1115 315 l 1038 315 l 1038 465 l 1254 465 l 1310 526 l 1007 526 l 1007 760 l 1704 760 l 1704 578 l 1586 449 l 1667 449 l 1667 299 l 1447 299 l 1388 233 m 1451 1068 l 1646 1068 l 1492 843 l 1231 843 l 1076 1068 l 1271 1068 l 1361 969 l 1451 1068 z "},"e":{"ha":844,"x_min":21,"x_max":831,"o":"m 468 219 q 551 240 508 219 q 633 300 593 261 l 807 144 q 443 -11 671 -11 q 221 37 317 -11 q 73 172 125 85 q 21 375 21 260 q 71 584 21 494 q 213 722 121 674 q 429 771 306 771 q 641 724 550 771 q 781 591 732 678 q 831 386 831 504 l 354 296 q 399 240 369 260 q 468 219 429 219 m 440 563 q 372 532 399 563 q 338 444 346 501 l 521 478 q 495 540 517 518 q 440 563 474 563 z "},"é":{"ha":844,"x_min":21,"x_max":831,"o":"m 468 219 q 551 240 508 219 q 633 300 593 261 l 807 144 q 443 -11 671 -11 q 221 37 317 -11 q 73 172 125 85 q 21 375 21 260 q 71 584 21 494 q 213 722 121 674 q 429 771 306 771 q 641 724 550 771 q 781 591 732 678 q 831 386 831 504 l 354 296 q 399 240 369 260 q 468 219 429 219 m 440 563 q 372 532 399 563 q 338 444 346 501 l 521 478 q 495 540 517 518 q 440 563 474 563 m 461 1083 l 696 1000 l 471 821 l 274 835 l 461 1083 z "},"ĕ":{"ha":844,"x_min":21,"x_max":831,"o":"m 468 219 q 551 240 508 219 q 633 300 593 261 l 807 144 q 443 -11 671 -11 q 221 37 317 -11 q 73 172 125 85 q 21 375 21 260 q 71 584 21 494 q 213 722 121 674 q 429 771 306 771 q 641 724 550 771 q 781 591 732 678 q 831 386 831 504 l 354 296 q 399 240 369 260 q 468 219 429 219 m 440 563 q 372 532 399 563 q 338 444 346 501 l 521 478 q 495 540 517 518 q 440 563 474 563 m 361 1068 q 383 1017 364 1036 q 429 999 401 999 q 476 1017 457 999 q 497 1068 494 1036 l 685 1068 q 610 892 679 958 q 429 826 540 826 q 249 892 318 826 q 174 1068 179 958 l 361 1068 z "},"ě":{"ha":844,"x_min":21,"x_max":831,"o":"m 468 219 q 551 240 508 219 q 633 300 593 261 l 807 144 q 443 -11 671 -11 q 221 37 317 -11 q 73 172 125 85 q 21 375 21 260 q 71 584 21 494 q 213 722 121 674 q 429 771 306 771 q 641 724 550 771 q 781 591 732 678 q 831 386 831 504 l 354 296 q 399 240 369 260 q 468 219 429 219 m 440 563 q 372 532 399 563 q 338 444 346 501 l 521 478 q 495 540 517 518 q 440 563 474 563 m 519 1068 l 714 1068 l 560 843 l 299 843 l 144 1068 l 339 1068 l 429 969 l 519 1068 z "},"ḝ":{"ha":844,"x_min":21,"x_max":831,"o":"m 435 826 q 254 892 324 826 q 179 1068 185 958 l 367 1068 q 388 1017 369 1036 q 435 999 407 999 q 481 1017 463 999 q 503 1068 500 1036 l 690 1068 q 615 892 685 958 q 435 826 546 826 m 468 219 q 551 240 508 219 q 633 300 593 261 l 807 144 q 531 -4 699 21 l 501 -82 q 617 -197 617 -112 q 561 -304 617 -269 q 426 -339 506 -339 q 261 -312 340 -339 l 303 -187 q 365 -197 331 -197 q 406 -190 390 -197 q 421 -171 421 -183 q 398 -147 421 -154 q 342 -139 375 -139 l 318 -139 l 361 -6 q 113 119 204 17 q 21 375 21 221 q 71 584 21 494 q 213 722 121 674 q 429 771 306 771 q 641 724 550 771 q 781 591 732 678 q 831 386 831 504 l 354 296 q 399 240 369 260 q 468 219 429 219 m 440 563 q 372 532 399 563 q 338 444 346 501 l 521 478 q 495 540 517 518 q 440 563 474 563 z "},"ê":{"ha":844,"x_min":21,"x_max":831,"o":"m 468 219 q 551 240 508 219 q 633 300 593 261 l 807 144 q 443 -11 671 -11 q 221 37 317 -11 q 73 172 125 85 q 21 375 21 260 q 71 584 21 494 q 213 722 121 674 q 429 771 306 771 q 641 724 550 771 q 781 591 732 678 q 831 386 831 504 l 354 296 q 399 240 369 260 q 468 219 429 219 m 440 563 q 372 532 399 563 q 338 444 346 501 l 521 478 q 495 540 517 518 q 440 563 474 563 m 714 843 l 519 843 l 429 943 l 339 843 l 144 843 l 299 1068 l 560 1068 l 714 843 z "},"ế":{"ha":844,"x_min":21,"x_max":831,"o":"m 468 219 q 551 240 508 219 q 633 300 593 261 l 807 144 q 443 -11 671 -11 q 221 37 317 -11 q 73 172 125 85 q 21 375 21 260 q 71 584 21 494 q 213 722 121 674 q 429 771 306 771 q 641 724 550 771 q 781 591 732 678 q 831 386 831 504 l 354 296 q 399 240 369 260 q 468 219 429 219 m 440 563 q 372 532 399 563 q 338 444 346 501 l 521 478 q 495 540 517 518 q 440 563 474 563 m 740 835 l 517 835 l 428 933 l 338 835 l 115 835 l 286 1026 l 568 1026 l 740 835 m 481 1311 l 674 1199 l 433 1069 l 264 1113 l 481 1311 z "},"ệ":{"ha":844,"x_min":21,"x_max":831,"o":"m 468 219 q 551 240 508 219 q 633 300 593 261 l 807 144 q 443 -11 671 -11 q 221 37 317 -11 q 73 172 125 85 q 21 375 21 260 q 71 584 21 494 q 213 722 121 674 q 429 771 306 771 q 641 724 550 771 q 781 591 732 678 q 831 386 831 504 l 354 296 q 399 240 369 260 q 468 219 429 219 m 440 563 q 372 532 399 563 q 338 444 346 501 l 521 478 q 495 540 517 518 q 440 563 474 563 m 439 -90 q 553 -135 508 -90 q 597 -249 597 -179 q 553 -362 597 -318 q 439 -407 508 -407 q 325 -362 369 -407 q 281 -249 281 -318 q 325 -135 281 -179 q 439 -90 369 -90 m 728 843 l 533 843 l 443 943 l 353 843 l 158 843 l 313 1068 l 574 1068 l 728 843 z "},"ề":{"ha":844,"x_min":21,"x_max":831,"o":"m 468 219 q 551 240 508 219 q 633 300 593 261 l 807 144 q 443 -11 671 -11 q 221 37 317 -11 q 73 172 125 85 q 21 375 21 260 q 71 584 21 494 q 213 722 121 674 q 429 771 306 771 q 641 724 550 771 q 781 591 732 678 q 831 386 831 504 l 354 296 q 399 240 369 260 q 468 219 429 219 m 440 563 q 372 532 399 563 q 338 444 346 501 l 521 478 q 495 540 517 518 q 440 563 474 563 m 740 835 l 517 835 l 428 933 l 338 835 l 115 835 l 286 1026 l 568 1026 l 740 835 m 361 1311 l 578 1113 l 408 1069 l 168 1199 l 361 1311 z "},"ể":{"ha":844,"x_min":21,"x_max":831,"o":"m 468 219 q 551 240 508 219 q 633 300 593 261 l 807 144 q 443 -11 671 -11 q 221 37 317 -11 q 73 172 125 85 q 21 375 21 260 q 71 584 21 494 q 213 722 121 674 q 429 771 306 771 q 641 724 550 771 q 781 591 732 678 q 831 386 831 504 l 354 296 q 399 240 369 260 q 468 219 429 219 m 440 563 q 372 532 399 563 q 338 444 346 501 l 521 478 q 495 540 517 518 q 440 563 474 563 m 740 835 l 517 835 l 428 933 l 338 835 l 115 835 l 286 1026 l 568 1026 l 740 835 m 429 1322 q 535 1291 501 1322 q 569 1217 569 1260 q 544 1140 569 1174 q 460 1069 518 1106 l 344 1113 q 385 1140 372 1128 q 399 1165 399 1151 q 369 1188 399 1188 q 326 1172 343 1188 l 258 1269 q 429 1322 346 1322 z "},"ễ":{"ha":844,"x_min":21,"x_max":831,"o":"m 468 219 q 551 240 508 219 q 633 300 593 261 l 807 144 q 443 -11 671 -11 q 221 37 317 -11 q 73 172 125 85 q 21 375 21 260 q 71 584 21 494 q 213 722 121 674 q 429 771 306 771 q 641 724 550 771 q 781 591 732 678 q 831 386 831 504 l 354 296 q 399 240 369 260 q 468 219 429 219 m 440 563 q 372 532 399 563 q 338 444 346 501 l 521 478 q 495 540 517 518 q 440 563 474 563 m 740 835 l 517 835 l 428 933 l 338 835 l 115 835 l 286 1026 l 568 1026 l 740 835 m 694 1271 q 660 1116 694 1165 q 547 1067 625 1067 q 477 1076 510 1067 q 403 1101 444 1085 q 338 1119 354 1119 q 305 1108 314 1119 q 296 1069 296 1096 l 157 1069 q 192 1225 157 1175 q 304 1275 226 1275 q 376 1266 343 1275 q 450 1240 408 1257 q 485 1228 468 1233 q 514 1222 503 1222 q 546 1234 536 1222 q 557 1271 556 1246 l 694 1271 z "},"ȅ":{"ha":844,"x_min":21,"x_max":831,"o":"m 468 219 q 551 240 508 219 q 633 300 593 261 l 807 144 q 443 -11 671 -11 q 221 37 317 -11 q 73 172 125 85 q 21 375 21 260 q 71 584 21 494 q 213 722 121 674 q 429 771 306 771 q 641 724 550 771 q 781 591 732 678 q 831 386 831 504 l 354 296 q 399 240 369 260 q 468 219 429 219 m 440 563 q 372 532 399 563 q 338 444 346 501 l 521 478 q 495 540 517 518 q 440 563 474 563 m 300 1083 l 414 835 l 199 821 l 75 1010 l 300 1083 m 607 1083 l 721 835 l 506 821 l 382 1010 l 607 1083 z "},"ë":{"ha":844,"x_min":21,"x_max":831,"o":"m 468 219 q 551 240 508 219 q 633 300 593 261 l 807 144 q 443 -11 671 -11 q 221 37 317 -11 q 73 172 125 85 q 21 375 21 260 q 71 584 21 494 q 213 722 121 674 q 429 771 306 771 q 641 724 550 771 q 781 591 732 678 q 831 386 831 504 l 354 296 q 399 240 369 260 q 468 219 429 219 m 440 563 q 372 532 399 563 q 338 444 346 501 l 521 478 q 495 540 517 518 q 440 563 474 563 m 289 1086 q 377 1051 343 1086 q 411 963 411 1017 q 377 875 411 910 q 289 840 343 840 q 201 875 235 840 q 167 963 167 910 q 201 1051 167 1017 q 289 1086 235 1086 m 569 1086 q 658 1051 624 1086 q 692 963 692 1017 q 658 875 692 910 q 569 840 624 840 q 481 875 515 840 q 447 963 447 910 q 481 1051 447 1017 q 569 1086 515 1086 z "},"ė":{"ha":844,"x_min":21,"x_max":831,"o":"m 468 219 q 551 240 508 219 q 633 300 593 261 l 807 144 q 443 -11 671 -11 q 221 37 317 -11 q 73 172 125 85 q 21 375 21 260 q 71 584 21 494 q 213 722 121 674 q 429 771 306 771 q 641 724 550 771 q 781 591 732 678 q 831 386 831 504 l 354 296 q 399 240 369 260 q 468 219 429 219 m 440 563 q 372 532 399 563 q 338 444 346 501 l 521 478 q 495 540 517 518 q 440 563 474 563 m 425 1135 q 539 1090 494 1135 q 583 976 583 1046 q 539 863 583 907 q 425 818 494 818 q 311 863 356 818 q 267 976 267 907 q 311 1090 267 1046 q 425 1135 356 1135 z "},"ẹ":{"ha":844,"x_min":21,"x_max":831,"o":"m 468 219 q 551 240 508 219 q 633 300 593 261 l 807 144 q 443 -11 671 -11 q 221 37 317 -11 q 73 172 125 85 q 21 375 21 260 q 71 584 21 494 q 213 722 121 674 q 429 771 306 771 q 641 724 550 771 q 781 591 732 678 q 831 386 831 504 l 354 296 q 399 240 369 260 q 468 219 429 219 m 440 563 q 372 532 399 563 q 338 444 346 501 l 521 478 q 495 540 517 518 q 440 563 474 563 m 439 -90 q 553 -135 508 -90 q 597 -249 597 -179 q 553 -362 597 -318 q 439 -407 508 -407 q 325 -362 369 -407 q 281 -249 281 -318 q 325 -135 281 -179 q 439 -90 369 -90 z "},"è":{"ha":844,"x_min":21,"x_max":831,"o":"m 468 219 q 551 240 508 219 q 633 300 593 261 l 807 144 q 443 -11 671 -11 q 221 37 317 -11 q 73 172 125 85 q 21 375 21 260 q 71 584 21 494 q 213 722 121 674 q 429 771 306 771 q 641 724 550 771 q 781 591 732 678 q 831 386 831 504 l 354 296 q 399 240 369 260 q 468 219 429 219 m 440 563 q 372 532 399 563 q 338 444 346 501 l 521 478 q 495 540 517 518 q 440 563 474 563 m 419 1083 l 574 835 l 375 821 l 183 1000 l 419 1083 z "},"ẻ":{"ha":844,"x_min":21,"x_max":831,"o":"m 468 219 q 551 240 508 219 q 633 300 593 261 l 807 144 q 443 -11 671 -11 q 221 37 317 -11 q 73 172 125 85 q 21 375 21 260 q 71 584 21 494 q 213 722 121 674 q 429 771 306 771 q 641 724 550 771 q 781 591 732 678 q 831 386 831 504 l 354 296 q 399 240 369 260 q 468 219 429 219 m 440 563 q 372 532 399 563 q 338 444 346 501 l 521 478 q 495 540 517 518 q 440 563 474 563 m 444 1163 q 570 1123 528 1163 q 613 1021 613 1083 q 482 815 613 914 l 354 867 q 402 919 385 893 q 419 969 419 946 q 409 997 419 988 q 381 1007 399 1007 q 326 986 351 1007 l 251 1101 q 444 1163 349 1163 z "},"ȇ":{"ha":844,"x_min":21,"x_max":831,"o":"m 468 219 q 551 240 508 219 q 633 300 593 261 l 807 144 q 443 -11 671 -11 q 221 37 317 -11 q 73 172 125 85 q 21 375 21 260 q 71 584 21 494 q 213 722 121 674 q 429 771 306 771 q 641 724 550 771 q 781 591 732 678 q 831 386 831 504 l 354 296 q 399 240 369 260 q 468 219 429 219 m 440 563 q 372 532 399 563 q 338 444 346 501 l 521 478 q 495 540 517 518 q 440 563 474 563 m 172 826 q 247 1002 178 936 q 428 1068 317 1068 q 608 1002 539 1068 q 683 826 678 936 l 496 826 q 474 877 493 858 q 428 896 456 896 q 381 877 400 896 q 360 826 363 858 l 172 826 z "},"ē":{"ha":844,"x_min":21,"x_max":831,"o":"m 468 219 q 551 240 508 219 q 633 300 593 261 l 807 144 q 443 -11 671 -11 q 221 37 317 -11 q 73 172 125 85 q 21 375 21 260 q 71 584 21 494 q 213 722 121 674 q 429 771 306 771 q 641 724 550 771 q 781 591 732 678 q 831 386 831 504 l 354 296 q 399 240 369 260 q 468 219 429 219 m 440 563 q 372 532 399 563 q 338 444 346 501 l 521 478 q 495 540 517 518 q 440 563 474 563 m 207 1058 l 651 1058 l 651 881 l 207 881 l 207 1058 z "},"ḗ":{"ha":844,"x_min":21,"x_max":831,"o":"m 468 219 q 551 240 508 219 q 633 300 593 261 l 807 144 q 443 -11 671 -11 q 221 37 317 -11 q 73 172 125 85 q 21 375 21 260 q 71 584 21 494 q 213 722 121 674 q 429 771 306 771 q 641 724 550 771 q 781 591 732 678 q 831 386 831 504 l 354 296 q 399 240 369 260 q 468 219 429 219 m 440 563 q 372 532 399 563 q 338 444 346 501 l 521 478 q 495 540 517 518 q 440 563 474 563 m 165 1000 l 610 1000 l 610 835 l 165 835 l 165 1000 m 440 1304 l 633 1192 l 393 1063 l 224 1106 l 440 1304 z "},"ḕ":{"ha":844,"x_min":21,"x_max":831,"o":"m 468 219 q 551 240 508 219 q 633 300 593 261 l 807 144 q 443 -11 671 -11 q 221 37 317 -11 q 73 172 125 85 q 21 375 21 260 q 71 584 21 494 q 213 722 121 674 q 429 771 306 771 q 641 724 550 771 q 781 591 732 678 q 831 386 831 504 l 354 296 q 399 240 369 260 q 468 219 429 219 m 440 563 q 372 532 399 563 q 338 444 346 501 l 521 478 q 495 540 517 518 q 440 563 474 563 m 169 1000 l 614 1000 l 614 835 l 169 835 l 169 1000 m 325 1304 l 542 1106 l 372 1063 l 132 1192 l 325 1304 z "},"ę":{"ha":844,"x_min":21,"x_max":831,"o":"m 468 219 q 551 240 508 219 q 633 300 593 261 l 807 144 q 754 93 786 119 q 660 -20 694 38 q 626 -122 626 -78 q 653 -161 626 -161 q 689 -150 669 -161 l 732 -304 q 662 -330 694 -321 q 589 -339 629 -339 q 469 -300 515 -339 q 422 -183 422 -261 q 442 -94 422 -136 q 503 -8 461 -51 q 443 -11 464 -11 q 221 37 317 -11 q 73 172 125 85 q 21 375 21 260 q 71 584 21 494 q 213 722 121 674 q 429 771 306 771 q 641 724 550 771 q 781 591 732 678 q 831 386 831 504 l 354 296 q 399 240 369 260 q 468 219 429 219 m 440 563 q 372 532 399 563 q 338 444 346 501 l 521 478 q 495 540 517 518 q 440 563 474 563 z "},"ẽ":{"ha":844,"x_min":21,"x_max":831,"o":"m 468 219 q 551 240 508 219 q 633 300 593 261 l 807 144 q 443 -11 671 -11 q 221 37 317 -11 q 73 172 125 85 q 21 375 21 260 q 71 584 21 494 q 213 722 121 674 q 429 771 306 771 q 641 724 550 771 q 781 591 732 678 q 831 386 831 504 l 354 296 q 399 240 369 260 q 468 219 429 219 m 440 563 q 372 532 399 563 q 338 444 346 501 l 521 478 q 495 540 517 518 q 440 563 474 563 m 708 1071 q 673 883 708 942 q 560 825 638 825 q 497 835 525 825 q 432 863 468 844 q 408 873 428 864 q 375 882 389 882 q 346 869 356 882 q 335 828 336 856 l 172 828 q 208 1015 172 956 q 322 1075 244 1075 q 386 1065 357 1075 q 450 1038 415 1054 q 506 1018 489 1018 q 536 1031 526 1018 q 547 1071 546 1043 l 708 1071 z "},"ə":{"ha":844,"x_min":14,"x_max":824,"o":"m 401 771 q 624 723 528 771 q 772 588 719 675 q 824 385 824 500 q 774 176 824 265 q 631 38 724 86 q 415 -11 539 -11 q 203 35 294 -11 q 63 169 113 82 q 14 374 14 256 l 490 464 q 445 520 475 500 q 376 540 415 540 q 294 519 336 540 q 211 460 251 499 l 38 615 q 401 771 174 771 m 404 197 q 472 228 446 197 q 507 315 499 258 l 324 282 q 349 219 328 242 q 404 197 371 197 z "},"f":{"ha":525,"x_min":65,"x_max":557,"o":"m 449 803 q 396 786 415 803 q 376 739 376 769 l 376 718 l 524 718 l 524 521 l 376 521 l 376 0 l 65 0 l 65 786 q 151 974 65 904 q 381 1044 236 1044 q 557 1018 471 1044 l 526 788 q 449 803 472 803 z "},"g":{"ha":908,"x_min":21,"x_max":835,"o":"m 835 760 l 835 63 q 781 -120 835 -42 q 631 -241 728 -199 q 410 -283 535 -283 q 210 -256 306 -283 q 51 -185 115 -228 l 150 25 q 263 -24 199 -6 q 382 -42 326 -42 q 487 -16 450 -42 q 524 54 524 10 l 524 126 q 333 46 451 46 q 173 91 244 46 q 61 219 101 136 q 21 413 21 303 q 60 601 21 519 q 169 726 99 682 q 328 771 239 771 q 524 689 450 771 l 524 760 l 835 760 m 418 268 q 494 306 465 268 q 524 404 524 343 q 495 504 524 467 q 418 542 467 542 q 341 504 369 542 q 313 404 313 467 q 342 306 313 343 q 418 268 371 268 z "},"ğ":{"ha":908,"x_min":21,"x_max":835,"o":"m 835 760 l 835 63 q 781 -120 835 -42 q 631 -241 728 -199 q 410 -283 535 -283 q 210 -256 306 -283 q 51 -185 115 -228 l 150 25 q 263 -24 199 -6 q 382 -42 326 -42 q 487 -16 450 -42 q 524 54 524 10 l 524 126 q 333 46 451 46 q 173 91 244 46 q 61 219 101 136 q 21 413 21 303 q 60 601 21 519 q 169 726 99 682 q 328 771 239 771 q 524 689 450 771 l 524 760 l 835 760 m 418 268 q 494 306 465 268 q 524 404 524 343 q 495 504 524 467 q 418 542 467 542 q 341 504 369 542 q 313 404 313 467 q 342 306 313 343 q 418 268 371 268 m 364 1068 q 385 1017 367 1036 q 432 999 404 999 q 478 1017 460 999 q 500 1068 497 1036 l 688 1068 q 613 892 682 958 q 432 826 543 826 q 251 892 321 826 q 176 1068 182 958 l 364 1068 z "},"ǧ":{"ha":908,"x_min":21,"x_max":835,"o":"m 835 760 l 835 63 q 781 -120 835 -42 q 631 -241 728 -199 q 410 -283 535 -283 q 210 -256 306 -283 q 51 -185 115 -228 l 150 25 q 263 -24 199 -6 q 382 -42 326 -42 q 487 -16 450 -42 q 524 54 524 10 l 524 126 q 333 46 451 46 q 173 91 244 46 q 61 219 101 136 q 21 413 21 303 q 60 601 21 519 q 169 726 99 682 q 328 771 239 771 q 524 689 450 771 l 524 760 l 835 760 m 418 268 q 494 306 465 268 q 524 404 524 343 q 495 504 524 467 q 418 542 467 542 q 341 504 369 542 q 313 404 313 467 q 342 306 313 343 q 418 268 371 268 m 522 1068 l 717 1068 l 563 843 l 301 843 l 147 1068 l 342 1068 l 432 969 l 522 1068 z "},"ĝ":{"ha":908,"x_min":21,"x_max":835,"o":"m 835 760 l 835 63 q 781 -120 835 -42 q 631 -241 728 -199 q 410 -283 535 -283 q 210 -256 306 -283 q 51 -185 115 -228 l 150 25 q 263 -24 199 -6 q 382 -42 326 -42 q 487 -16 450 -42 q 524 54 524 10 l 524 126 q 333 46 451 46 q 173 91 244 46 q 61 219 101 136 q 21 413 21 303 q 60 601 21 519 q 169 726 99 682 q 328 771 239 771 q 524 689 450 771 l 524 760 l 835 760 m 418 268 q 494 306 465 268 q 524 404 524 343 q 495 504 524 467 q 418 542 467 542 q 341 504 369 542 q 313 404 313 467 q 342 306 313 343 q 418 268 371 268 m 717 843 l 522 843 l 432 943 l 342 843 l 147 843 l 301 1068 l 563 1068 l 717 843 z "},"ģ":{"ha":908,"x_min":21,"x_max":835,"o":"m 835 760 l 835 63 q 781 -120 835 -42 q 631 -241 728 -199 q 410 -283 535 -283 q 210 -256 306 -283 q 51 -185 115 -228 l 150 25 q 263 -24 199 -6 q 382 -42 326 -42 q 487 -16 450 -42 q 524 54 524 10 l 524 126 q 333 46 451 46 q 173 91 244 46 q 61 219 101 136 q 21 413 21 303 q 60 601 21 519 q 169 726 99 682 q 328 771 239 771 q 524 689 450 771 l 524 760 l 835 760 m 418 268 q 494 306 465 268 q 524 404 524 343 q 495 504 524 467 q 418 542 467 542 q 341 504 369 542 q 313 404 313 467 q 342 306 313 343 q 418 268 371 268 m 521 844 l 278 844 l 397 1099 l 564 1099 l 521 844 z "},"ġ":{"ha":908,"x_min":21,"x_max":835,"o":"m 835 760 l 835 63 q 781 -120 835 -42 q 631 -241 728 -199 q 410 -283 535 -283 q 210 -256 306 -283 q 51 -185 115 -228 l 150 25 q 263 -24 199 -6 q 382 -42 326 -42 q 487 -16 450 -42 q 524 54 524 10 l 524 126 q 333 46 451 46 q 173 91 244 46 q 61 219 101 136 q 21 413 21 303 q 60 601 21 519 q 169 726 99 682 q 328 771 239 771 q 524 689 450 771 l 524 760 l 835 760 m 418 268 q 494 306 465 268 q 524 404 524 343 q 495 504 524 467 q 418 542 467 542 q 341 504 369 542 q 313 404 313 467 q 342 306 313 343 q 418 268 371 268 m 428 1135 q 542 1090 497 1135 q 586 976 586 1046 q 542 863 586 907 q 428 818 497 818 q 314 863 358 818 q 269 976 269 907 q 314 1090 269 1046 q 428 1135 358 1135 z "},"ḡ":{"ha":908,"x_min":21,"x_max":835,"o":"m 835 760 l 835 63 q 781 -120 835 -42 q 631 -241 728 -199 q 410 -283 535 -283 q 210 -256 306 -283 q 51 -185 115 -228 l 150 25 q 263 -24 199 -6 q 382 -42 326 -42 q 487 -16 450 -42 q 524 54 524 10 l 524 126 q 333 46 451 46 q 173 91 244 46 q 61 219 101 136 q 21 413 21 303 q 60 601 21 519 q 169 726 99 682 q 328 771 239 771 q 524 689 450 771 l 524 760 l 835 760 m 418 268 q 494 306 465 268 q 524 404 524 343 q 495 504 524 467 q 418 542 467 542 q 341 504 369 542 q 313 404 313 467 q 342 306 313 343 q 418 268 371 268 m 210 1058 l 654 1058 l 654 881 l 210 881 l 210 1058 z "},"h":{"ha":954,"x_min":83,"x_max":899,"o":"m 626 774 q 767 738 706 774 q 864 636 829 701 q 899 485 899 571 l 899 0 l 586 0 l 586 394 q 561 470 586 442 q 496 499 536 499 q 423 465 450 499 q 396 376 396 432 l 396 0 l 83 0 l 83 1031 l 396 1031 l 396 651 q 494 742 435 711 q 626 774 553 774 z "},"ħ":{"ha":954,"x_min":0,"x_max":899,"o":"m 626 711 q 767 675 706 711 q 864 574 829 639 q 899 422 899 508 l 899 0 l 586 0 l 586 332 q 561 408 586 379 q 496 436 536 436 q 423 403 450 436 q 396 314 396 369 l 396 0 l 83 0 l 83 788 l 0 788 l 0 926 l 83 926 l 83 1031 l 396 1031 l 396 926 l 604 926 l 604 788 l 396 788 l 396 589 q 494 680 435 649 q 626 711 553 711 z "},"ḫ":{"ha":954,"x_min":83,"x_max":899,"o":"m 626 774 q 767 738 706 774 q 864 636 829 701 q 899 485 899 571 l 899 0 l 586 0 l 586 394 q 561 470 586 442 q 496 499 536 499 q 423 465 450 499 q 396 376 396 432 l 396 0 l 83 0 l 83 1031 l 396 1031 l 396 651 q 494 742 435 711 q 626 774 553 774 m 424 -90 q 445 -141 426 -122 q 492 -160 464 -160 q 538 -141 519 -160 q 560 -90 557 -122 l 747 -90 q 672 -266 742 -200 q 492 -332 603 -332 q 311 -266 381 -332 q 236 -90 242 -200 l 424 -90 z "},"ĥ":{"ha":954,"x_min":-54,"x_max":899,"o":"m 626 774 q 767 738 706 774 q 864 636 829 701 q 899 485 899 571 l 899 0 l 586 0 l 586 394 q 561 470 586 442 q 496 499 536 499 q 423 465 450 499 q 396 376 396 432 l 396 0 l 83 0 l 83 1031 l 396 1031 l 396 651 q 494 742 435 711 q 626 774 553 774 m 515 1114 l 321 1114 l 231 1214 l 140 1114 l -54 1114 l 100 1339 l 361 1339 l 515 1114 z "},"ḥ":{"ha":954,"x_min":83,"x_max":899,"o":"m 626 774 q 767 738 706 774 q 864 636 829 701 q 899 485 899 571 l 899 0 l 586 0 l 586 394 q 561 470 586 442 q 496 499 536 499 q 423 465 450 499 q 396 376 396 432 l 396 0 l 83 0 l 83 1031 l 396 1031 l 396 651 q 494 742 435 711 q 626 774 553 774 m 488 -90 q 601 -135 557 -90 q 646 -249 646 -179 q 601 -362 646 -318 q 488 -407 557 -407 q 374 -362 418 -407 q 329 -249 329 -318 q 374 -135 329 -179 q 488 -90 418 -90 z "},"i":{"ha":465,"x_min":71,"x_max":389,"o":"m 76 760 l 389 760 l 389 0 l 76 0 l 76 760 m 229 1135 q 343 1090 299 1135 q 388 976 388 1046 q 343 863 388 907 q 229 818 299 818 q 115 863 160 818 q 71 976 71 907 q 115 1090 71 1046 q 229 1135 160 1135 z "},"ı":{"ha":465,"x_min":76,"x_max":389,"o":"m 76 760 l 389 760 l 389 0 l 76 0 l 76 760 z "},"í":{"ha":465,"x_min":76,"x_max":500,"o":"m 76 760 l 389 760 l 389 0 l 76 0 l 76 760 m 265 1083 l 500 1000 l 275 821 l 78 835 l 265 1083 z "},"ĭ":{"ha":465,"x_min":-22,"x_max":489,"o":"m 76 760 l 389 760 l 389 0 l 76 0 l 76 760 m 165 1068 q 187 1017 168 1036 q 233 999 206 999 q 280 1017 261 999 q 301 1068 299 1036 l 489 1068 q 414 892 483 958 q 233 826 344 826 q 53 892 122 826 q -22 1068 -17 958 l 165 1068 z "},"î":{"ha":465,"x_min":-51,"x_max":518,"o":"m 76 760 l 389 760 l 389 0 l 76 0 l 76 760 m 518 843 l 324 843 l 233 943 l 143 843 l -51 843 l 103 1068 l 364 1068 l 518 843 z "},"ȉ":{"ha":465,"x_min":-121,"x_max":525,"o":"m 76 760 l 389 760 l 389 0 l 76 0 l 76 760 m 104 1083 l 218 835 l 3 821 l -121 1010 l 104 1083 m 411 1083 l 525 835 l 310 821 l 186 1010 l 411 1083 z "},"ï":{"ha":465,"x_min":-29,"x_max":496,"o":"m 76 760 l 389 760 l 389 0 l 76 0 l 76 760 m 93 1086 q 181 1051 147 1086 q 215 963 215 1017 q 181 875 215 910 q 93 840 147 840 q 5 875 39 840 q -29 963 -29 910 q 5 1051 -29 1017 q 93 1086 39 1086 m 374 1086 q 462 1051 428 1086 q 496 963 496 1017 q 462 875 496 910 q 374 840 428 840 q 285 875 319 840 q 251 963 251 910 q 285 1051 251 1017 q 374 1086 319 1086 z "},"ḯ":{"ha":465,"x_min":-37,"x_max":504,"o":"m 76 760 l 389 760 l 389 0 l 76 0 l 76 760 m 85 1081 q 173 1047 139 1081 q 207 957 207 1013 q 173 869 207 904 q 85 835 139 835 q -3 869 31 835 q -37 957 -37 904 q -3 1047 -37 1013 q 85 1081 31 1081 m 382 1081 q 470 1047 436 1081 q 504 957 504 1013 q 470 869 504 904 q 382 835 436 835 q 294 869 328 835 q 260 957 260 904 q 294 1047 260 1013 q 382 1081 328 1081 m 286 1361 l 479 1249 l 239 1119 l 69 1163 l 286 1361 z "},"ị":{"ha":465,"x_min":71,"x_max":389,"o":"m 76 760 l 389 760 l 389 0 l 76 0 l 76 760 m 229 1135 q 343 1090 299 1135 q 388 976 388 1046 q 343 863 388 907 q 229 818 299 818 q 115 863 160 818 q 71 976 71 907 q 115 1090 71 1046 q 229 1135 160 1135 m 229 -90 q 343 -135 299 -90 q 388 -249 388 -179 q 343 -362 388 -318 q 229 -407 299 -407 q 115 -362 160 -407 q 71 -249 71 -318 q 115 -135 71 -179 q 229 -90 160 -90 z "},"ì":{"ha":465,"x_min":-12,"x_max":389,"o":"m 76 760 l 389 760 l 389 0 l 76 0 l 76 760 m 224 1083 l 378 835 l 179 821 l -12 1000 l 224 1083 z "},"ỉ":{"ha":465,"x_min":56,"x_max":417,"o":"m 76 760 l 389 760 l 389 0 l 76 0 l 76 760 m 249 1163 q 374 1123 332 1163 q 417 1021 417 1083 q 286 815 417 914 l 158 867 q 206 919 189 893 q 224 969 224 946 q 213 997 224 988 q 185 1007 203 1007 q 131 986 156 1007 l 56 1101 q 249 1163 153 1163 z "},"ȋ":{"ha":465,"x_min":-17,"x_max":479,"o":"m 76 760 l 389 760 l 389 0 l 76 0 l 76 760 m -17 826 q 56 1003 -11 938 q 232 1068 122 1068 q 407 1003 340 1068 q 479 826 474 938 l 299 826 q 276 876 294 858 q 232 894 258 894 q 188 876 206 894 q 165 826 169 858 l -17 826 z "},"ĳ":{"ha":935,"x_min":71,"x_max":861,"o":"m 76 760 l 389 760 l 389 0 l 76 0 l 76 760 m 229 1135 q 343 1090 299 1135 q 388 976 388 1046 q 343 863 388 907 q 229 818 299 818 q 115 863 160 818 q 71 976 71 907 q 115 1090 71 1046 q 229 1135 160 1135 m 435 -32 q 488 -40 468 -40 q 533 -25 517 -42 q 549 24 549 -8 l 549 760 l 861 760 l 861 -24 q 781 -212 861 -142 q 564 -282 700 -282 q 375 -250 458 -282 l 435 -32 m 699 1135 q 813 1090 768 1135 q 857 976 857 1046 q 813 863 857 907 q 699 818 768 818 q 585 863 629 818 q 540 976 540 907 q 585 1090 540 1046 q 699 1135 629 1135 z "},"ī":{"ha":465,"x_min":25,"x_max":442,"o":"m 76 760 l 389 760 l 389 0 l 76 0 l 76 760 m 25 1058 l 442 1058 l 442 881 l 25 881 l 25 1058 z "},"į":{"ha":465,"x_min":6,"x_max":389,"o":"m 229 818 q 115 863 160 818 q 71 976 71 907 q 115 1090 71 1046 q 229 1135 160 1135 q 343 1090 299 1135 q 388 976 388 1046 q 343 863 388 907 q 229 818 299 818 m 306 0 q 210 -125 210 -67 q 238 -161 210 -161 q 272 -150 253 -161 l 315 -304 q 167 -339 238 -339 q 47 -293 88 -339 q 6 -176 6 -247 q 76 0 6 -86 l 76 760 l 389 760 l 389 0 l 306 0 z "},"ĩ":{"ha":465,"x_min":-8,"x_max":501,"o":"m 76 760 l 389 760 l 389 0 l 76 0 l 76 760 m 501 1068 q 467 879 501 936 q 357 822 432 822 q 299 831 325 822 q 242 857 272 840 q 192 876 207 876 q 154 825 156 876 l -8 825 q 27 1013 -8 954 q 136 1072 63 1072 q 194 1063 168 1072 q 253 1039 219 1054 q 301 1021 289 1021 q 330 1031 321 1021 q 340 1068 339 1042 l 501 1068 z "},"j":{"ha":472,"x_min":-90,"x_max":396,"o":"m -31 -32 q 22 -40 3 -40 q 67 -25 51 -42 q 83 24 83 -8 l 83 760 l 396 760 l 396 -24 q 315 -212 396 -142 q 99 -282 235 -282 q -90 -250 -7 -282 l -31 -32 m 233 1135 q 347 1090 303 1135 q 392 976 392 1046 q 347 863 392 907 q 233 818 303 818 q 119 863 164 818 q 75 976 75 907 q 119 1090 75 1046 q 233 1135 164 1135 z "},"ȷ":{"ha":472,"x_min":-90,"x_max":396,"o":"m -31 -32 q 22 -40 3 -40 q 67 -25 51 -42 q 83 24 83 -8 l 83 760 l 396 760 l 396 -24 q 315 -212 396 -142 q 99 -282 235 -282 q -90 -250 -7 -282 l -31 -32 z "},"ĵ":{"ha":472,"x_min":-90,"x_max":522,"o":"m -31 -32 q 22 -40 3 -40 q 67 -25 51 -42 q 83 24 83 -8 l 83 760 l 396 760 l 396 -24 q 315 -212 396 -142 q 99 -282 235 -282 q -90 -250 -7 -282 l -31 -32 m 522 843 l 328 843 l 238 943 l 147 843 l -47 843 l 107 1068 l 368 1068 l 522 843 z "},"k":{"ha":919,"x_min":83,"x_max":925,"o":"m 925 760 l 649 467 l 921 0 l 550 0 l 433 239 l 396 200 l 396 0 l 83 0 l 83 1031 l 396 1031 l 396 563 l 572 760 l 925 760 z "},"ķ":{"ha":919,"x_min":83,"x_max":925,"o":"m 925 760 l 649 467 l 921 0 l 550 0 l 433 239 l 396 200 l 396 0 l 83 0 l 83 1031 l 396 1031 l 396 563 l 572 760 l 925 760 m 338 -85 l 581 -85 l 461 -339 l 294 -339 l 338 -85 z "},"ĸ":{"ha":910,"x_min":76,"x_max":915,"o":"m 915 760 l 639 467 l 911 0 l 540 0 l 424 239 l 389 203 l 389 0 l 76 0 l 76 760 l 389 760 l 389 546 l 563 760 l 915 760 z "},"l":{"ha":519,"x_min":63,"x_max":526,"o":"m 375 322 q 392 269 375 286 q 439 253 410 253 q 508 271 469 253 l 526 11 q 379 -15 451 -15 q 221 21 293 -15 q 106 131 149 57 q 63 315 63 206 l 63 1031 l 375 1031 l 375 322 z "},"ĺ":{"ha":519,"x_min":63,"x_max":526,"o":"m 375 322 q 392 269 375 286 q 439 253 410 253 q 508 271 469 253 l 526 11 q 379 -15 451 -15 q 221 21 293 -15 q 106 131 149 57 q 63 315 63 206 l 63 1031 l 375 1031 l 375 322 m 251 1354 l 486 1271 l 261 1092 l 64 1106 l 251 1354 z "},"ľ":{"ha":650,"x_min":63,"x_max":692,"o":"m 375 322 q 392 269 375 286 q 439 253 410 253 q 508 271 469 253 l 526 11 q 379 -15 451 -15 q 221 21 293 -15 q 106 131 149 57 q 63 315 63 206 l 63 1031 l 375 1031 l 375 322 m 472 1032 l 692 1032 l 650 711 l 472 711 l 472 1032 z "},"ļ":{"ha":519,"x_min":63,"x_max":526,"o":"m 375 322 q 392 269 375 286 q 439 253 410 253 q 508 271 469 253 l 526 11 q 379 -15 451 -15 q 221 21 293 -15 q 106 131 149 57 q 63 315 63 206 l 63 1031 l 375 1031 l 375 322 m 190 -85 l 433 -85 l 314 -339 l 147 -339 l 190 -85 z "},"ŀ":{"ha":735,"x_min":63,"x_max":742,"o":"m 375 322 q 392 269 375 286 q 439 253 410 253 q 508 271 469 253 l 526 11 q 379 -15 451 -15 q 221 21 293 -15 q 106 131 149 57 q 63 315 63 206 l 63 1031 l 375 1031 l 375 322 m 583 714 q 697 669 653 714 q 742 556 742 625 q 697 442 742 486 q 583 397 653 397 q 469 442 514 397 q 425 556 425 486 q 469 669 425 625 q 583 714 514 714 z "},"ḷ":{"ha":519,"x_min":63,"x_max":526,"o":"m 375 322 q 392 269 375 286 q 439 253 410 253 q 508 271 469 253 l 526 11 q 379 -15 451 -15 q 221 21 293 -15 q 106 131 149 57 q 63 315 63 206 l 63 1031 l 375 1031 l 375 322 m 311 -90 q 425 -135 381 -90 q 469 -249 469 -179 q 425 -362 469 -318 q 311 -407 381 -407 q 197 -362 242 -407 q 153 -249 153 -318 q 197 -135 153 -179 q 311 -90 242 -90 z "},"ǉ":{"ha":992,"x_min":63,"x_max":915,"o":"m 375 322 q 392 269 375 286 q 439 253 410 253 q 508 271 469 253 l 526 11 q 379 -15 451 -15 q 221 21 293 -15 q 106 131 149 57 q 63 315 63 206 l 63 1031 l 375 1031 l 375 322 m 489 -32 q 542 -40 522 -40 q 587 -25 571 -42 q 603 24 603 -8 l 603 760 l 915 760 l 915 -24 q 835 -212 915 -142 q 618 -282 754 -282 q 429 -250 513 -282 l 489 -32 m 753 1135 q 867 1090 822 1135 q 911 976 911 1046 q 867 863 911 907 q 753 818 822 818 q 639 863 683 818 q 594 976 594 907 q 639 1090 594 1046 q 753 1135 683 1135 z "},"ḻ":{"ha":519,"x_min":63,"x_max":538,"o":"m 375 322 q 392 269 375 286 q 439 253 410 253 q 508 271 469 253 l 526 11 q 379 -15 451 -15 q 221 21 293 -15 q 106 131 149 57 q 63 315 63 206 l 63 1031 l 375 1031 l 375 322 m 93 -104 l 538 -104 l 538 -282 l 93 -282 l 93 -104 z "},"ł":{"ha":622,"x_min":11,"x_max":601,"o":"m 449 546 l 449 322 q 466 269 449 286 q 513 253 483 253 q 582 271 543 253 l 600 11 q 453 -15 525 -15 q 294 21 367 -15 q 179 131 222 57 q 136 315 136 206 l 136 389 l 11 325 l 11 489 l 136 553 l 136 1031 l 449 1031 l 449 710 l 601 788 l 601 624 l 449 546 z "},"m":{"ha":1433,"x_min":76,"x_max":1378,"o":"m 1110 774 q 1249 738 1188 774 q 1344 636 1310 701 q 1378 485 1378 571 l 1378 0 l 1065 0 l 1065 394 q 1042 470 1065 442 q 979 499 1018 499 q 910 465 936 499 q 883 376 883 432 l 883 0 l 571 0 l 571 394 q 547 470 571 442 q 485 499 524 499 q 415 465 442 499 q 389 376 389 432 l 389 0 l 76 0 l 76 760 l 389 760 l 389 653 q 485 742 428 711 q 615 774 543 774 q 766 731 701 774 q 861 611 831 688 q 962 731 899 689 q 1110 774 1025 774 z "},"ṃ":{"ha":1433,"x_min":76,"x_max":1378,"o":"m 1110 774 q 1249 738 1188 774 q 1344 636 1310 701 q 1378 485 1378 571 l 1378 0 l 1065 0 l 1065 394 q 1042 470 1065 442 q 979 499 1018 499 q 910 465 936 499 q 883 376 883 432 l 883 0 l 571 0 l 571 394 q 547 470 571 442 q 485 499 524 499 q 415 465 442 499 q 389 376 389 432 l 389 0 l 76 0 l 76 760 l 389 760 l 389 653 q 485 742 428 711 q 615 774 543 774 q 766 731 701 774 q 861 611 831 688 q 962 731 899 689 q 1110 774 1025 774 m 724 -90 q 838 -135 793 -90 q 882 -249 882 -179 q 838 -362 882 -318 q 724 -407 793 -407 q 610 -362 654 -407 q 565 -249 565 -318 q 610 -135 565 -179 q 724 -90 654 -90 z "},"n":{"ha":947,"x_min":76,"x_max":892,"o":"m 619 774 q 760 738 699 774 q 857 636 822 701 q 892 485 892 571 l 892 0 l 579 0 l 579 394 q 554 470 579 442 q 489 499 529 499 q 416 465 443 499 q 389 376 389 432 l 389 0 l 76 0 l 76 760 l 389 760 l 389 651 q 487 742 428 711 q 619 774 546 774 z "},"ń":{"ha":947,"x_min":76,"x_max":892,"o":"m 619 774 q 760 738 699 774 q 857 636 822 701 q 892 485 892 571 l 892 0 l 579 0 l 579 394 q 554 470 579 442 q 489 499 529 499 q 416 465 443 499 q 389 376 389 432 l 389 0 l 76 0 l 76 760 l 389 760 l 389 651 q 487 742 428 711 q 619 774 546 774 m 532 1083 l 767 1000 l 542 821 l 344 835 l 532 1083 z "},"ŉ":{"ha":1193,"x_min":69,"x_max":1138,"o":"m 69 974 l 271 974 l 229 607 l 69 607 l 69 974 m 865 774 q 1006 738 944 774 q 1103 636 1068 701 q 1138 485 1138 571 l 1138 0 l 825 0 l 825 394 q 800 470 825 442 q 735 499 775 499 q 662 465 689 499 q 635 376 635 432 l 635 0 l 322 0 l 322 760 l 635 760 l 635 651 q 733 742 674 711 q 865 774 792 774 z "},"ň":{"ha":947,"x_min":76,"x_max":892,"o":"m 619 774 q 760 738 699 774 q 857 636 822 701 q 892 485 892 571 l 892 0 l 579 0 l 579 394 q 554 470 579 442 q 489 499 529 499 q 416 465 443 499 q 389 376 389 432 l 389 0 l 76 0 l 76 760 l 389 760 l 389 651 q 487 742 428 711 q 619 774 546 774 m 590 1068 l 785 1068 l 631 843 l 369 843 l 215 1068 l 410 1068 l 500 969 l 590 1068 z "},"ņ":{"ha":947,"x_min":76,"x_max":892,"o":"m 619 774 q 760 738 699 774 q 857 636 822 701 q 892 485 892 571 l 892 0 l 579 0 l 579 394 q 554 470 579 442 q 489 499 529 499 q 416 465 443 499 q 389 376 389 432 l 389 0 l 76 0 l 76 760 l 389 760 l 389 651 q 487 742 428 711 q 619 774 546 774 m 357 -85 l 600 -85 l 481 -339 l 314 -339 l 357 -85 z "},"ṅ":{"ha":947,"x_min":76,"x_max":892,"o":"m 619 774 q 760 738 699 774 q 857 636 822 701 q 892 485 892 571 l 892 0 l 579 0 l 579 394 q 554 470 579 442 q 489 499 529 499 q 416 465 443 499 q 389 376 389 432 l 389 0 l 76 0 l 76 760 l 389 760 l 389 651 q 487 742 428 711 q 619 774 546 774 m 496 1135 q 610 1090 565 1135 q 654 976 654 1046 q 610 863 654 907 q 496 818 565 818 q 382 863 426 818 q 338 976 338 907 q 382 1090 338 1046 q 496 1135 426 1135 z "},"ṇ":{"ha":947,"x_min":76,"x_max":892,"o":"m 619 774 q 760 738 699 774 q 857 636 822 701 q 892 485 892 571 l 892 0 l 579 0 l 579 394 q 554 470 579 442 q 489 499 529 499 q 416 465 443 499 q 389 376 389 432 l 389 0 l 76 0 l 76 760 l 389 760 l 389 651 q 487 742 428 711 q 619 774 546 774 m 478 -90 q 592 -135 547 -90 q 636 -249 636 -179 q 592 -362 636 -318 q 478 -407 547 -407 q 364 -362 408 -407 q 319 -249 319 -318 q 364 -135 319 -179 q 478 -90 408 -90 z "},"ŋ":{"ha":947,"x_min":76,"x_max":892,"o":"m 619 774 q 760 738 699 774 q 857 636 822 701 q 892 485 892 571 l 892 -32 q 810 -213 892 -144 q 594 -282 729 -282 q 372 -235 467 -282 l 442 -21 q 518 -40 483 -40 q 563 -25 547 -42 q 579 24 579 -8 l 579 394 q 554 470 579 442 q 489 499 529 499 q 416 465 443 499 q 389 376 389 432 l 389 0 l 76 0 l 76 760 l 389 760 l 389 651 q 487 742 428 711 q 619 774 546 774 z "},"ǌ":{"ha":1419,"x_min":76,"x_max":1343,"o":"m 619 774 q 760 738 699 774 q 857 636 822 701 q 892 485 892 571 l 892 0 l 579 0 l 579 394 q 554 470 579 442 q 489 499 529 499 q 416 465 443 499 q 389 376 389 432 l 389 0 l 76 0 l 76 760 l 389 760 l 389 651 q 487 742 428 711 q 619 774 546 774 m 917 -32 q 969 -40 950 -40 q 1015 -25 999 -42 q 1031 24 1031 -8 l 1031 760 l 1343 760 l 1343 -24 q 1263 -212 1343 -142 q 1046 -282 1182 -282 q 857 -250 940 -282 l 917 -32 m 1181 1135 q 1294 1090 1250 1135 q 1339 976 1339 1046 q 1294 863 1339 907 q 1181 818 1250 818 q 1067 863 1111 818 q 1022 976 1022 907 q 1067 1090 1022 1046 q 1181 1135 1111 1135 z "},"ṉ":{"ha":947,"x_min":76,"x_max":892,"o":"m 619 774 q 760 738 699 774 q 857 636 822 701 q 892 485 892 571 l 892 0 l 579 0 l 579 394 q 554 470 579 442 q 489 499 529 499 q 416 465 443 499 q 389 376 389 432 l 389 0 l 76 0 l 76 760 l 389 760 l 389 651 q 487 742 428 711 q 619 774 546 774 m 260 -104 l 704 -104 l 704 -282 l 260 -282 l 260 -104 z "},"ñ":{"ha":947,"x_min":76,"x_max":892,"o":"m 619 774 q 760 738 699 774 q 857 636 822 701 q 892 485 892 571 l 892 0 l 579 0 l 579 394 q 554 470 579 442 q 489 499 529 499 q 416 465 443 499 q 389 376 389 432 l 389 0 l 76 0 l 76 760 l 389 760 l 389 651 q 487 742 428 711 q 619 774 546 774 m 779 1071 q 744 883 779 942 q 631 825 708 825 q 567 835 596 825 q 503 863 539 844 q 479 873 499 864 q 446 882 460 882 q 417 869 426 882 q 406 828 407 856 l 243 828 q 279 1015 243 956 q 393 1075 315 1075 q 457 1065 428 1075 q 521 1038 486 1054 q 576 1018 560 1018 q 607 1031 597 1018 q 618 1071 617 1043 l 779 1071 z "},"o":{"ha":900,"x_min":21,"x_max":879,"o":"m 450 771 q 676 723 579 771 q 826 587 774 675 q 879 381 879 499 q 826 174 879 263 q 676 38 774 86 q 450 -11 579 -11 q 224 38 321 -11 q 74 174 126 86 q 21 381 21 263 q 74 587 21 499 q 224 723 126 675 q 450 771 321 771 m 450 524 q 367 483 399 524 q 336 376 336 443 q 367 269 336 310 q 450 229 399 229 q 533 269 501 229 q 564 376 564 310 q 533 483 564 443 q 450 524 501 524 z "},"ó":{"ha":900,"x_min":21,"x_max":879,"o":"m 450 771 q 676 723 579 771 q 826 587 774 675 q 879 381 879 499 q 826 174 879 263 q 676 38 774 86 q 450 -11 579 -11 q 224 38 321 -11 q 74 174 126 86 q 21 381 21 263 q 74 587 21 499 q 224 723 126 675 q 450 771 321 771 m 450 524 q 367 483 399 524 q 336 376 336 443 q 367 269 336 310 q 450 229 399 229 q 533 269 501 229 q 564 376 564 310 q 533 483 564 443 q 450 524 501 524 m 482 1083 l 717 1000 l 492 821 l 294 835 l 482 1083 z "},"ŏ":{"ha":900,"x_min":21,"x_max":879,"o":"m 450 771 q 676 723 579 771 q 826 587 774 675 q 879 381 879 499 q 826 174 879 263 q 676 38 774 86 q 450 -11 579 -11 q 224 38 321 -11 q 74 174 126 86 q 21 381 21 263 q 74 587 21 499 q 224 723 126 675 q 450 771 321 771 m 450 524 q 367 483 399 524 q 336 376 336 443 q 367 269 336 310 q 450 229 399 229 q 533 269 501 229 q 564 376 564 310 q 533 483 564 443 q 450 524 501 524 m 382 1068 q 403 1017 385 1036 q 450 999 422 999 q 497 1017 478 999 q 518 1068 515 1036 l 706 1068 q 631 892 700 958 q 450 826 561 826 q 269 892 339 826 q 194 1068 200 958 l 382 1068 z "},"ô":{"ha":900,"x_min":21,"x_max":879,"o":"m 450 771 q 676 723 579 771 q 826 587 774 675 q 879 381 879 499 q 826 174 879 263 q 676 38 774 86 q 450 -11 579 -11 q 224 38 321 -11 q 74 174 126 86 q 21 381 21 263 q 74 587 21 499 q 224 723 126 675 q 450 771 321 771 m 450 524 q 367 483 399 524 q 336 376 336 443 q 367 269 336 310 q 450 229 399 229 q 533 269 501 229 q 564 376 564 310 q 533 483 564 443 q 450 524 501 524 m 735 843 l 540 843 l 450 943 l 360 843 l 165 843 l 319 1068 l 581 1068 l 735 843 z "},"ố":{"ha":900,"x_min":21,"x_max":879,"o":"m 450 771 q 676 723 579 771 q 826 587 774 675 q 879 381 879 499 q 826 174 879 263 q 676 38 774 86 q 450 -11 579 -11 q 224 38 321 -11 q 74 174 126 86 q 21 381 21 263 q 74 587 21 499 q 224 723 126 675 q 450 771 321 771 m 450 524 q 367 483 399 524 q 336 376 336 443 q 367 269 336 310 q 450 229 399 229 q 533 269 501 229 q 564 376 564 310 q 533 483 564 443 q 450 524 501 524 m 761 835 l 538 835 l 449 933 l 358 835 l 136 835 l 307 1026 l 589 1026 l 761 835 m 501 1311 l 694 1199 l 454 1069 l 285 1113 l 501 1311 z "},"ộ":{"ha":900,"x_min":21,"x_max":879,"o":"m 450 771 q 676 723 579 771 q 826 587 774 675 q 879 381 879 499 q 826 174 879 263 q 676 38 774 86 q 450 -11 579 -11 q 224 38 321 -11 q 74 174 126 86 q 21 381 21 263 q 74 587 21 499 q 224 723 126 675 q 450 771 321 771 m 450 524 q 367 483 399 524 q 336 376 336 443 q 367 269 336 310 q 450 229 399 229 q 533 269 501 229 q 564 376 564 310 q 533 483 564 443 q 450 524 501 524 m 446 -90 q 560 -135 515 -90 q 604 -249 604 -179 q 560 -362 604 -318 q 446 -407 515 -407 q 332 -362 376 -407 q 288 -249 288 -318 q 332 -135 288 -179 q 446 -90 376 -90 m 735 843 l 540 843 l 450 943 l 360 843 l 165 843 l 319 1068 l 581 1068 l 735 843 z "},"ồ":{"ha":900,"x_min":21,"x_max":879,"o":"m 450 771 q 676 723 579 771 q 826 587 774 675 q 879 381 879 499 q 826 174 879 263 q 676 38 774 86 q 450 -11 579 -11 q 224 38 321 -11 q 74 174 126 86 q 21 381 21 263 q 74 587 21 499 q 224 723 126 675 q 450 771 321 771 m 450 524 q 367 483 399 524 q 336 376 336 443 q 367 269 336 310 q 450 229 399 229 q 533 269 501 229 q 564 376 564 310 q 533 483 564 443 q 450 524 501 524 m 761 835 l 538 835 l 449 933 l 358 835 l 136 835 l 307 1026 l 589 1026 l 761 835 m 382 1311 l 599 1113 l 429 1069 l 189 1199 l 382 1311 z "},"ổ":{"ha":900,"x_min":21,"x_max":879,"o":"m 450 771 q 676 723 579 771 q 826 587 774 675 q 879 381 879 499 q 826 174 879 263 q 676 38 774 86 q 450 -11 579 -11 q 224 38 321 -11 q 74 174 126 86 q 21 381 21 263 q 74 587 21 499 q 224 723 126 675 q 450 771 321 771 m 450 524 q 367 483 399 524 q 336 376 336 443 q 367 269 336 310 q 450 229 399 229 q 533 269 501 229 q 564 376 564 310 q 533 483 564 443 q 450 524 501 524 m 761 835 l 538 835 l 449 933 l 358 835 l 136 835 l 307 1026 l 589 1026 l 761 835 m 450 1322 q 556 1291 522 1322 q 590 1217 590 1260 q 565 1140 590 1174 q 481 1069 539 1106 l 365 1113 q 406 1140 393 1128 q 419 1165 419 1151 q 390 1188 419 1188 q 347 1172 364 1188 l 279 1269 q 450 1322 367 1322 z "},"ỗ":{"ha":900,"x_min":21,"x_max":879,"o":"m 450 771 q 676 723 579 771 q 826 587 774 675 q 879 381 879 499 q 826 174 879 263 q 676 38 774 86 q 450 -11 579 -11 q 224 38 321 -11 q 74 174 126 86 q 21 381 21 263 q 74 587 21 499 q 224 723 126 675 q 450 771 321 771 m 450 524 q 367 483 399 524 q 336 376 336 443 q 367 269 336 310 q 450 229 399 229 q 533 269 501 229 q 564 376 564 310 q 533 483 564 443 q 450 524 501 524 m 761 835 l 538 835 l 449 933 l 358 835 l 136 835 l 307 1026 l 589 1026 l 761 835 m 715 1271 q 681 1116 715 1165 q 568 1067 646 1067 q 498 1076 531 1067 q 424 1101 465 1085 q 358 1119 375 1119 q 326 1108 335 1119 q 317 1069 317 1096 l 178 1069 q 213 1225 178 1175 q 325 1275 247 1275 q 397 1266 364 1275 q 471 1240 429 1257 q 506 1228 489 1233 q 535 1222 524 1222 q 567 1234 557 1222 q 578 1271 576 1246 l 715 1271 z "},"ȍ":{"ha":900,"x_min":21,"x_max":879,"o":"m 450 771 q 676 723 579 771 q 826 587 774 675 q 879 381 879 499 q 826 174 879 263 q 676 38 774 86 q 450 -11 579 -11 q 224 38 321 -11 q 74 174 126 86 q 21 381 21 263 q 74 587 21 499 q 224 723 126 675 q 450 771 321 771 m 450 524 q 367 483 399 524 q 336 376 336 443 q 367 269 336 310 q 450 229 399 229 q 533 269 501 229 q 564 376 564 310 q 533 483 564 443 q 450 524 501 524 m 321 1083 l 435 835 l 219 821 l 96 1010 l 321 1083 m 628 1083 l 742 835 l 526 821 l 403 1010 l 628 1083 z "},"ö":{"ha":900,"x_min":21,"x_max":879,"o":"m 450 771 q 676 723 579 771 q 826 587 774 675 q 879 381 879 499 q 826 174 879 263 q 676 38 774 86 q 450 -11 579 -11 q 224 38 321 -11 q 74 174 126 86 q 21 381 21 263 q 74 587 21 499 q 224 723 126 675 q 450 771 321 771 m 450 524 q 367 483 399 524 q 336 376 336 443 q 367 269 336 310 q 450 229 399 229 q 533 269 501 229 q 564 376 564 310 q 533 483 564 443 q 450 524 501 524 m 310 1086 q 398 1051 364 1086 q 432 963 432 1017 q 398 875 432 910 q 310 840 364 840 q 222 875 256 840 q 188 963 188 910 q 222 1051 188 1017 q 310 1086 256 1086 m 590 1086 q 678 1051 644 1086 q 713 963 713 1017 q 678 875 713 910 q 590 840 644 840 q 502 875 536 840 q 468 963 468 910 q 502 1051 468 1017 q 590 1086 536 1086 z "},"ȫ":{"ha":900,"x_min":21,"x_max":879,"o":"m 450 771 q 676 723 579 771 q 826 587 774 675 q 879 381 879 499 q 826 174 879 263 q 676 38 774 86 q 450 -11 579 -11 q 224 38 321 -11 q 74 174 126 86 q 21 381 21 263 q 74 587 21 499 q 224 723 126 675 q 450 771 321 771 m 450 524 q 367 483 399 524 q 336 376 336 443 q 367 269 336 310 q 450 229 399 229 q 533 269 501 229 q 564 376 564 310 q 533 483 564 443 q 450 524 501 524 m 301 1081 q 390 1047 356 1081 q 424 957 424 1013 q 390 869 424 904 q 301 835 356 835 q 213 869 247 835 q 179 957 179 904 q 213 1047 179 1013 q 301 1081 247 1081 m 599 1081 q 687 1047 653 1081 q 721 957 721 1013 q 687 869 721 904 q 599 835 653 835 q 510 869 544 835 q 476 957 476 904 q 510 1047 476 1013 q 599 1081 544 1081 m 228 1304 l 672 1304 l 672 1139 l 228 1139 l 228 1304 z "},"ȱ":{"ha":900,"x_min":21,"x_max":879,"o":"m 450 771 q 676 723 579 771 q 826 587 774 675 q 879 381 879 499 q 826 174 879 263 q 676 38 774 86 q 450 -11 579 -11 q 224 38 321 -11 q 74 174 126 86 q 21 381 21 263 q 74 587 21 499 q 224 723 126 675 q 450 771 321 771 m 450 524 q 367 483 399 524 q 336 376 336 443 q 367 269 336 310 q 450 229 399 229 q 533 269 501 229 q 564 376 564 310 q 533 483 564 443 q 450 524 501 524 m 450 1100 q 547 1063 510 1100 q 583 967 583 1026 q 547 871 583 908 q 450 833 510 833 q 354 871 392 833 q 317 967 317 908 q 354 1063 317 1026 q 450 1100 392 1100 m 228 1304 l 672 1304 l 672 1139 l 228 1139 l 228 1304 z "},"ọ":{"ha":900,"x_min":21,"x_max":879,"o":"m 450 771 q 676 723 579 771 q 826 587 774 675 q 879 381 879 499 q 826 174 879 263 q 676 38 774 86 q 450 -11 579 -11 q 224 38 321 -11 q 74 174 126 86 q 21 381 21 263 q 74 587 21 499 q 224 723 126 675 q 450 771 321 771 m 450 524 q 367 483 399 524 q 336 376 336 443 q 367 269 336 310 q 450 229 399 229 q 533 269 501 229 q 564 376 564 310 q 533 483 564 443 q 450 524 501 524 m 446 -90 q 560 -135 515 -90 q 604 -249 604 -179 q 560 -362 604 -318 q 446 -407 515 -407 q 332 -362 376 -407 q 288 -249 288 -318 q 332 -135 288 -179 q 446 -90 376 -90 z "},"ò":{"ha":900,"x_min":21,"x_max":879,"o":"m 450 771 q 676 723 579 771 q 826 587 774 675 q 879 381 879 499 q 826 174 879 263 q 676 38 774 86 q 450 -11 579 -11 q 224 38 321 -11 q 74 174 126 86 q 21 381 21 263 q 74 587 21 499 q 224 723 126 675 q 450 771 321 771 m 450 524 q 367 483 399 524 q 336 376 336 443 q 367 269 336 310 q 450 229 399 229 q 533 269 501 229 q 564 376 564 310 q 533 483 564 443 q 450 524 501 524 m 440 1083 l 594 835 l 396 821 l 204 1000 l 440 1083 z "},"ỏ":{"ha":900,"x_min":21,"x_max":879,"o":"m 450 771 q 676 723 579 771 q 826 587 774 675 q 879 381 879 499 q 826 174 879 263 q 676 38 774 86 q 450 -11 579 -11 q 224 38 321 -11 q 74 174 126 86 q 21 381 21 263 q 74 587 21 499 q 224 723 126 675 q 450 771 321 771 m 450 524 q 367 483 399 524 q 336 376 336 443 q 367 269 336 310 q 450 229 399 229 q 533 269 501 229 q 564 376 564 310 q 533 483 564 443 q 450 524 501 524 m 465 1163 q 591 1123 549 1163 q 633 1021 633 1083 q 503 815 633 914 l 375 867 q 423 919 406 893 q 440 969 440 946 q 430 997 440 988 q 401 1007 419 1007 q 347 986 372 1007 l 272 1101 q 465 1163 369 1163 z "},"ơ":{"ha":967,"x_min":21,"x_max":1010,"o":"m 968 979 q 1010 817 1010 892 q 962 672 1010 733 q 828 585 914 611 q 879 381 879 497 q 826 174 879 263 q 676 38 774 86 q 450 -11 579 -11 q 224 38 321 -11 q 74 174 126 86 q 21 381 21 263 q 74 587 21 499 q 224 723 126 675 q 450 771 321 771 q 672 725 574 771 q 694 722 686 722 q 753 748 732 722 q 774 813 774 774 q 746 899 774 858 l 968 979 m 450 229 q 533 269 501 229 q 564 376 564 310 q 533 483 564 443 q 450 524 501 524 q 367 483 399 524 q 336 376 336 443 q 367 269 336 310 q 450 229 399 229 z "},"ớ":{"ha":967,"x_min":21,"x_max":1010,"o":"m 968 979 q 1010 817 1010 892 q 962 672 1010 733 q 828 585 914 611 q 879 381 879 497 q 826 174 879 263 q 676 38 774 86 q 450 -11 579 -11 q 224 38 321 -11 q 74 174 126 86 q 21 381 21 263 q 74 587 21 499 q 224 723 126 675 q 450 771 321 771 q 672 725 574 771 q 694 722 686 722 q 753 748 732 722 q 774 813 774 774 q 746 899 774 858 l 968 979 m 450 229 q 533 269 501 229 q 564 376 564 310 q 533 483 564 443 q 450 524 501 524 q 367 483 399 524 q 336 376 336 443 q 367 269 336 310 q 450 229 399 229 m 482 1083 l 717 1000 l 492 821 l 294 835 l 482 1083 z "},"ợ":{"ha":967,"x_min":21,"x_max":1010,"o":"m 968 979 q 1010 817 1010 892 q 962 672 1010 733 q 828 585 914 611 q 879 381 879 497 q 826 174 879 263 q 676 38 774 86 q 450 -11 579 -11 q 224 38 321 -11 q 74 174 126 86 q 21 381 21 263 q 74 587 21 499 q 224 723 126 675 q 450 771 321 771 q 672 725 574 771 q 694 722 686 722 q 753 748 732 722 q 774 813 774 774 q 746 899 774 858 l 968 979 m 450 229 q 533 269 501 229 q 564 376 564 310 q 533 483 564 443 q 450 524 501 524 q 367 483 399 524 q 336 376 336 443 q 367 269 336 310 q 450 229 399 229 m 446 -90 q 560 -135 515 -90 q 604 -249 604 -179 q 560 -362 604 -318 q 446 -407 515 -407 q 332 -362 376 -407 q 288 -249 288 -318 q 332 -135 288 -179 q 446 -90 376 -90 z "},"ờ":{"ha":967,"x_min":21,"x_max":1010,"o":"m 968 979 q 1010 817 1010 892 q 962 672 1010 733 q 828 585 914 611 q 879 381 879 497 q 826 174 879 263 q 676 38 774 86 q 450 -11 579 -11 q 224 38 321 -11 q 74 174 126 86 q 21 381 21 263 q 74 587 21 499 q 224 723 126 675 q 450 771 321 771 q 672 725 574 771 q 694 722 686 722 q 753 748 732 722 q 774 813 774 774 q 746 899 774 858 l 968 979 m 450 229 q 533 269 501 229 q 564 376 564 310 q 533 483 564 443 q 450 524 501 524 q 367 483 399 524 q 336 376 336 443 q 367 269 336 310 q 450 229 399 229 m 440 1083 l 594 835 l 396 821 l 204 1000 l 440 1083 z "},"ở":{"ha":967,"x_min":21,"x_max":1010,"o":"m 968 979 q 1010 817 1010 892 q 962 672 1010 733 q 828 585 914 611 q 879 381 879 497 q 826 174 879 263 q 676 38 774 86 q 450 -11 579 -11 q 224 38 321 -11 q 74 174 126 86 q 21 381 21 263 q 74 587 21 499 q 224 723 126 675 q 450 771 321 771 q 672 725 574 771 q 694 722 686 722 q 753 748 732 722 q 774 813 774 774 q 746 899 774 858 l 968 979 m 450 229 q 533 269 501 229 q 564 376 564 310 q 533 483 564 443 q 450 524 501 524 q 367 483 399 524 q 336 376 336 443 q 367 269 336 310 q 450 229 399 229 m 465 1163 q 591 1123 549 1163 q 633 1021 633 1083 q 503 815 633 914 l 375 867 q 423 919 406 893 q 440 969 440 946 q 430 997 440 988 q 401 1007 419 1007 q 347 986 372 1007 l 272 1101 q 465 1163 369 1163 z "},"ỡ":{"ha":967,"x_min":21,"x_max":1010,"o":"m 968 979 q 1010 817 1010 892 q 962 672 1010 733 q 828 585 914 611 q 879 381 879 497 q 826 174 879 263 q 676 38 774 86 q 450 -11 579 -11 q 224 38 321 -11 q 74 174 126 86 q 21 381 21 263 q 74 587 21 499 q 224 723 126 675 q 450 771 321 771 q 672 725 574 771 q 694 722 686 722 q 753 748 732 722 q 774 813 774 774 q 746 899 774 858 l 968 979 m 450 229 q 533 269 501 229 q 564 376 564 310 q 533 483 564 443 q 450 524 501 524 q 367 483 399 524 q 336 376 336 443 q 367 269 336 310 q 450 229 399 229 m 729 1071 q 694 883 729 942 q 581 825 658 825 q 517 835 546 825 q 453 863 489 844 q 429 873 449 864 q 396 882 410 882 q 367 869 376 882 q 356 828 357 856 l 193 828 q 229 1015 193 956 q 343 1075 265 1075 q 407 1065 378 1075 q 471 1038 436 1054 q 526 1018 510 1018 q 557 1031 547 1018 q 568 1071 567 1043 l 729 1071 z "},"ő":{"ha":900,"x_min":21,"x_max":879,"o":"m 450 771 q 676 723 579 771 q 826 587 774 675 q 879 381 879 499 q 826 174 879 263 q 676 38 774 86 q 450 -11 579 -11 q 224 38 321 -11 q 74 174 126 86 q 21 381 21 263 q 74 587 21 499 q 224 723 126 675 q 450 771 321 771 m 450 524 q 367 483 399 524 q 336 376 336 443 q 367 269 336 310 q 450 229 399 229 q 533 269 501 229 q 564 376 564 310 q 533 483 564 443 q 450 524 501 524 m 289 1083 l 514 1010 l 390 821 l 174 835 l 289 1083 m 596 1083 l 821 1010 l 697 821 l 481 835 l 596 1083 z "},"ȏ":{"ha":900,"x_min":21,"x_max":879,"o":"m 450 771 q 676 723 579 771 q 826 587 774 675 q 879 381 879 499 q 826 174 879 263 q 676 38 774 86 q 450 -11 579 -11 q 224 38 321 -11 q 74 174 126 86 q 21 381 21 263 q 74 587 21 499 q 224 723 126 675 q 450 771 321 771 m 450 524 q 367 483 399 524 q 336 376 336 443 q 367 269 336 310 q 450 229 399 229 q 533 269 501 229 q 564 376 564 310 q 533 483 564 443 q 450 524 501 524 m 193 826 q 268 1002 199 936 q 449 1068 338 1068 q 629 1002 560 1068 q 704 826 699 936 l 517 826 q 495 877 514 858 q 449 896 476 896 q 402 877 421 896 q 381 826 383 858 l 193 826 z "},"ō":{"ha":900,"x_min":21,"x_max":879,"o":"m 450 771 q 676 723 579 771 q 826 587 774 675 q 879 381 879 499 q 826 174 879 263 q 676 38 774 86 q 450 -11 579 -11 q 224 38 321 -11 q 74 174 126 86 q 21 381 21 263 q 74 587 21 499 q 224 723 126 675 q 450 771 321 771 m 450 524 q 367 483 399 524 q 336 376 336 443 q 367 269 336 310 q 450 229 399 229 q 533 269 501 229 q 564 376 564 310 q 533 483 564 443 q 450 524 501 524 m 228 1058 l 672 1058 l 672 881 l 228 881 l 228 1058 z "},"ṓ":{"ha":900,"x_min":21,"x_max":879,"o":"m 450 771 q 676 723 579 771 q 826 587 774 675 q 879 381 879 499 q 826 174 879 263 q 676 38 774 86 q 450 -11 579 -11 q 224 38 321 -11 q 74 174 126 86 q 21 381 21 263 q 74 587 21 499 q 224 723 126 675 q 450 771 321 771 m 450 524 q 367 483 399 524 q 336 376 336 443 q 367 269 336 310 q 450 229 399 229 q 533 269 501 229 q 564 376 564 310 q 533 483 564 443 q 450 524 501 524 m 186 1000 l 631 1000 l 631 835 l 186 835 l 186 1000 m 461 1304 l 654 1192 l 414 1063 l 244 1106 l 461 1304 z "},"ṑ":{"ha":900,"x_min":21,"x_max":879,"o":"m 450 771 q 676 723 579 771 q 826 587 774 675 q 879 381 879 499 q 826 174 879 263 q 676 38 774 86 q 450 -11 579 -11 q 224 38 321 -11 q 74 174 126 86 q 21 381 21 263 q 74 587 21 499 q 224 723 126 675 q 450 771 321 771 m 450 524 q 367 483 399 524 q 336 376 336 443 q 367 269 336 310 q 450 229 399 229 q 533 269 501 229 q 564 376 564 310 q 533 483 564 443 q 450 524 501 524 m 190 1000 l 635 1000 l 635 835 l 190 835 l 190 1000 m 346 1304 l 563 1106 l 393 1063 l 153 1192 l 346 1304 z "},"ǫ":{"ha":900,"x_min":21,"x_max":879,"o":"m 879 381 q 849 217 879 290 q 760 93 818 144 q 666 -20 700 38 q 632 -122 632 -78 q 658 -161 632 -161 q 694 -150 675 -161 l 738 -304 q 667 -330 700 -321 q 594 -339 635 -339 q 474 -300 521 -339 q 428 -183 428 -261 q 447 -94 428 -136 q 508 -8 467 -51 q 450 -11 472 -11 q 224 38 321 -11 q 74 174 126 86 q 21 381 21 263 q 74 587 21 499 q 224 723 126 675 q 450 771 321 771 q 676 723 579 771 q 826 587 774 675 q 879 381 879 499 m 336 376 q 367 269 336 310 q 450 229 399 229 q 533 269 501 229 q 564 376 564 310 q 533 483 564 443 q 450 524 501 524 q 367 483 399 524 q 336 376 336 443 z "},"ø":{"ha":900,"x_min":21,"x_max":879,"o":"m 726 693 q 840 562 800 642 q 879 381 879 482 q 826 174 879 263 q 676 38 774 86 q 450 -11 579 -11 q 271 18 350 -11 l 183 -111 l 61 -111 l 179 63 q 62 196 103 114 q 21 381 21 278 q 74 587 21 499 q 224 723 126 675 q 450 771 321 771 q 636 740 551 771 l 725 871 l 847 871 l 726 693 m 315 376 q 331 288 315 326 l 501 540 q 450 550 475 550 q 352 503 389 550 q 315 376 315 456 m 450 203 q 548 250 511 203 q 585 376 585 297 q 571 461 585 422 l 401 213 q 450 203 422 203 z "},"ǿ":{"ha":900,"x_min":21,"x_max":879,"o":"m 726 693 q 840 562 800 642 q 879 381 879 482 q 826 174 879 263 q 676 38 774 86 q 450 -11 579 -11 q 271 18 350 -11 l 183 -111 l 61 -111 l 179 63 q 62 196 103 114 q 21 381 21 278 q 74 587 21 499 q 224 723 126 675 q 450 771 321 771 q 636 740 551 771 l 725 871 l 847 871 l 726 693 m 315 376 q 331 288 315 326 l 501 540 q 450 550 475 550 q 352 503 389 550 q 315 376 315 456 m 450 203 q 548 250 511 203 q 585 376 585 297 q 571 461 585 422 l 401 213 q 450 203 422 203 m 510 1083 l 744 1000 l 519 821 l 322 835 l 510 1083 z "},"õ":{"ha":900,"x_min":21,"x_max":879,"o":"m 450 771 q 676 723 579 771 q 826 587 774 675 q 879 381 879 499 q 826 174 879 263 q 676 38 774 86 q 450 -11 579 -11 q 224 38 321 -11 q 74 174 126 86 q 21 381 21 263 q 74 587 21 499 q 224 723 126 675 q 450 771 321 771 m 450 524 q 367 483 399 524 q 336 376 336 443 q 367 269 336 310 q 450 229 399 229 q 533 269 501 229 q 564 376 564 310 q 533 483 564 443 q 450 524 501 524 m 729 1071 q 694 883 729 942 q 581 825 658 825 q 517 835 546 825 q 453 863 489 844 q 429 873 449 864 q 396 882 410 882 q 367 869 376 882 q 356 828 357 856 l 193 828 q 229 1015 193 956 q 343 1075 265 1075 q 407 1065 378 1075 q 471 1038 436 1054 q 526 1018 510 1018 q 557 1031 547 1018 q 568 1071 567 1043 l 729 1071 z "},"ṍ":{"ha":900,"x_min":21,"x_max":879,"o":"m 450 771 q 676 723 579 771 q 826 587 774 675 q 879 381 879 499 q 826 174 879 263 q 676 38 774 86 q 450 -11 579 -11 q 224 38 321 -11 q 74 174 126 86 q 21 381 21 263 q 74 587 21 499 q 224 723 126 675 q 450 771 321 771 m 450 524 q 367 483 399 524 q 336 376 336 443 q 367 269 336 310 q 450 229 399 229 q 533 269 501 229 q 564 376 564 310 q 533 483 564 443 q 450 524 501 524 m 718 1036 q 683 881 718 931 q 571 832 649 832 q 501 841 533 832 q 426 867 468 850 q 361 885 378 885 q 328 873 338 885 q 319 835 319 861 l 181 835 q 215 990 181 940 q 328 1040 250 1040 q 399 1031 367 1040 q 474 1006 432 1022 q 509 993 492 999 q 538 988 526 988 q 569 999 560 988 q 581 1036 579 1011 l 718 1036 m 504 1339 l 697 1226 l 457 1097 l 288 1140 l 504 1339 z "}}}
